<?xml version="1.0" encoding="utf-8"?>
<!-- Generator: Adobe Illustrator 19.2.1, SVG Export Plug-In . SVG Version: 6.00 Build 0)  -->
<svg version="1.2" baseProfile="tiny" id="Layer_1" xmlns="http://www.w3.org/2000/svg" xmlns:xlink="http://www.w3.org/1999/xlink"
	 x="0px" y="0px" viewBox="0 0 100 100" xml:space="preserve">
<g>
	<path d="M67,0.8C48.7,0.8,33.8,4.1,33.8,8c0,0.3,0.1,0.5,0.2,0.8c0.8,3.4,1.7,8.3,2.7,13.9c-0.3,0-0.6,0-0.9,0
		C16.3,22.7,0.4,38.5,0.4,58c0,19.5,15.8,35.3,35.3,35.3c4.2,0,8.2-0.7,11.9-2c3.4,2.9,10.2,6.8,21,6.8c10.6,0,15.3-4.7,17.8-7.2
		c1.8-17.1,8.4-62.3,13.7-82c0.1-0.3,0.2-0.6,0.2-0.9C100.3,4.1,85.4,0.8,67,0.8z M34.7,90.5C16.8,90.5,2.2,76,2.2,58
		s14.6-32.5,32.5-32.5c18,0,32.5,14.6,32.5,32.5S52.7,90.5,34.7,90.5z M84,89.6c-4.3,4.3-6,5.1-15.4,5.1c-8.8,0-15.6-2.6-18.3-4.5
		c3.3-1.5,6.4-3.5,9.1-6c8.9,0.9,19.1-1,23.4-5.1c-7.8,2.4-14.6,2.8-20.5,2.1c5.4-6.2,8.7-14.3,8.7-23.3c0-7.4-2.3-14.2-6.1-19.9
		c0.7,0,1.4,0,2,0c10.7,0,19.9-2,24.2-4.2C87.5,58.1,84,89.6,84,89.6z M68.3,36c-1.7,0-3.4,0-5-0.1c-2.6-3.2-5.7-6-9.2-8.1
		c3.9-0.6,8.8-1,14.2-1c12.7,0,22.9,2.1,22.9,4.6S81,36,68.3,36z M91.9,29.5C88,27.5,78.4,26,67,26c-5.3,0-10.3,0.3-14.5,0.9
		c-4-2.2-8.5-3.6-13.2-4.1c-0.7-4.8-1.3-8.7-1.7-11c5.6,2.8,16.7,5.3,29.4,5.3c11.8,0,22.1-2.1,28-4.6C94.1,16.6,93,22.6,91.9,29.5z
		 M68.6,14.2c-15.8,0-28.6-2.8-28.6-6.2s12.8-6.2,28.6-6.2S97.2,4.6,97.2,8S84.4,14.2,68.6,14.2z"/>
	<path d="M46.5,67.2L36,58.5c0-0.2,0.1-0.3,0.1-0.5c0-1.1-0.9-1.9-1.9-1.9c-1.1,0-1.9,0.9-1.9,1.9c0,0.8,0.5,1.5,1.2,1.8V86h-2.2
		l2.8,2.8l0.1-0.1c0.2,0.2,0.5,0.3,0.8,0.3h1.2c0.3,0,0.6-0.1,0.8-0.3s0.3-0.5,0.3-0.8v-1.2c0-0.3-0.1-0.6-0.3-0.8
		c-0.2-0.2-0.5-0.3-0.8-0.3h-0.6c-0.2,0-0.3,0-0.4,0.1C35,85.7,35,85.8,35,86h0v-0.5c0-0.3,0.1-0.6,0.3-0.8c0.2-0.2,0.5-0.3,0.8-0.3
		h0.6v-0.6h-0.9c-0.3,0-0.7,0.1-0.9,0.2V59.8c0.1,0,0.1-0.1,0.2-0.1l10.5,8.6L44.2,70l4-0.4l-0.4-4L46.5,67.2z M35.9,88.2
		c-0.1,0.1-0.3,0.2-0.4,0.2s-0.3-0.1-0.4-0.2C35,88.1,35,88,34.9,87.9l1.2-1.2v1.1C36.1,88,36,88.1,35.9,88.2z"/>
	<polygon points="32.2,32.9 32.2,27.6 31.6,27.6 30.5,28.2 30.5,28.8 31.1,28.8 31.1,32.9 	"/>
	<path d="M38.1,32.3h-2.3v-0.1c0-0.4,0.4-0.9,1.1-1.5l0.1-0.1c0.8-0.6,1.1-1.2,1.1-1.6v-0.3c0-0.3-0.1-0.6-0.3-0.8
		c-0.2-0.2-0.5-0.3-0.8-0.3h-1.2c-0.7,0-1.1,0.4-1.2,1.2h0.6c0-0.4,0.2-0.6,0.6-0.6h0.6c0.2,0,0.3,0.1,0.4,0.2
		c0.1,0.1,0.2,0.3,0.2,0.4v0.3c0,0.4-0.4,0.9-1.1,1.6l-0.1,0.1c-0.8,0.6-1.1,1.2-1.1,1.6v0.6h3.5V32.3z"/>
	<polygon points="50.5,38 50.5,32.8 49.9,32.8 48.7,33.3 48.7,33.9 49.3,33.9 49.3,38 	"/>
	<path d="M60.5,47.3h-2.3v-0.1c0-0.4,0.4-0.9,1.1-1.5l0.1-0.1c0.8-0.6,1.1-1.2,1.1-1.6v-0.3c0-0.3-0.1-0.6-0.3-0.8
		c-0.2-0.2-0.5-0.3-0.8-0.3h-1.2c-0.7,0-1.1,0.4-1.2,1.2h0.6c0-0.4,0.2-0.6,0.6-0.6h0.6c0.2,0,0.3,0.1,0.4,0.2
		c0.1,0.1,0.2,0.3,0.2,0.4v0.3c0,0.4-0.4,0.9-1.1,1.6l-0.1,0.1c-0.8,0.6-1.1,1.2-1.1,1.6v0.6h3.5V47.3z"/>
	<path d="M62.9,59.1c-0.1,0.1-0.3,0.2-0.4,0.2h-0.6c-0.4,0-0.6-0.2-0.6-0.6h-0.6c0.1,0.8,0.5,1.2,1.2,1.2h1.2c0.3,0,0.6-0.1,0.8-0.3
		c0.2-0.2,0.3-0.5,0.3-0.8v-1.2c0-0.3-0.1-0.5-0.3-0.8c-0.2-0.3-0.5-0.4-0.8-0.4h-0.6l1.7-1.2l0-0.6h-3.5v0.6h2.3l-1.8,1.2v0.6h1.2
		c0.2,0,0.3,0.1,0.4,0.2c0.1,0.1,0.1,0.3,0.1,0.4v1.2C63.1,58.8,63,59,62.9,59.1z"/>
	<path d="M61.4,67.8h-1.2l-2.3,2.9v0.6h2.3V73h1.2v-1.8H62v-0.6h-0.6V67.8z M60.3,70.7h-1.8l1.8-2.2V70.7z"/>
	<path d="M53.8,77l0-0.6h-3.5v2.3H52c0.2,0,0.3,0.1,0.4,0.2c0.1,0.1,0.2,0.2,0.2,0.4v1.2c0,0.2-0.1,0.3-0.2,0.4
		C52.3,81,52.2,81,52,81h-0.6c-0.4,0-0.6-0.2-0.6-0.6h-0.6c0.1,0.8,0.5,1.2,1.2,1.2h1.2c0.3,0,0.6-0.1,0.8-0.3
		c0.2-0.2,0.3-0.5,0.3-0.8v-1.2c0-0.3-0.1-0.6-0.3-0.8c-0.2-0.2-0.5-0.3-0.8-0.3h-1.2V77H53.8z"/>
	<path d="M17.6,77.8h2.3v0.6l-0.6,1.2c-0.4,0.8-0.6,1.4-0.6,1.8v1.2h1.2v-1.2c0-0.3,0.2-0.9,0.6-1.8l0.3-0.6l0.3-0.6v-1.2h-3.5V77.8
		z"/>
	<path d="M10.6,68.6H9.4c-0.3,0-0.6,0.1-0.8,0.3c-0.2,0.2-0.3,0.5-0.3,0.8v0.3c0,0.3,0.1,0.6,0.3,0.8c0.2,0.2,0.5,0.3,0.9,0.4
		c-0.4,0-0.7,0.1-0.9,0.4c-0.2,0.3-0.3,0.5-0.3,0.8v0.3c0,0.3,0.1,0.5,0.3,0.8c0.2,0.3,0.5,0.4,0.8,0.4h1.2c0.3,0,0.6-0.1,0.8-0.4
		c0.2-0.3,0.3-0.5,0.3-0.8v-0.3c0-0.3-0.1-0.5-0.3-0.8c-0.2-0.3-0.5-0.4-0.9-0.4c0.4,0,0.7-0.2,0.9-0.4c0.2-0.2,0.3-0.5,0.3-0.8
		v-0.3c0-0.3-0.1-0.6-0.3-0.8S10.9,68.6,10.6,68.6z M10.6,72.7c0,0.2-0.1,0.3-0.2,0.4c-0.1,0.1-0.3,0.2-0.4,0.2
		c-0.2,0-0.3-0.1-0.4-0.2c-0.1-0.1-0.2-0.2-0.2-0.4v-0.6c0-0.4,0.2-0.6,0.6-0.6c0.4,0,0.6,0.2,0.6,0.6V72.7z M10.6,70.3
		c0,0.2-0.1,0.3-0.2,0.4c-0.1,0.1-0.3,0.2-0.4,0.2c-0.2,0-0.3-0.1-0.4-0.2c-0.1-0.1-0.2-0.3-0.2-0.4v-0.6c0-0.2,0.1-0.3,0.2-0.4
		c0.1-0.1,0.3-0.2,0.4-0.2c0.2,0,0.3,0.1,0.4,0.2c0.1,0.1,0.2,0.3,0.2,0.4V70.3z"/>
	<path d="M8.4,55.7c0-0.3-0.1-0.6-0.3-0.8c-0.2-0.2-0.5-0.3-0.8-0.3H6.1c-0.3,0-0.6,0.1-0.8,0.3c-0.2,0.2-0.3,0.5-0.3,0.8v1.2
		c0,0.3,0.1,0.6,0.3,0.8C5.5,57.9,5.7,58,6.1,58h0.6c0.3,0,0.5-0.2,0.6-0.6V58c0,0.3-0.1,0.6-0.3,0.8c-0.2,0.2-0.5,0.3-0.8,0.3H5.5
		v0.6h0.9c0.6,0,1-0.2,1.4-0.6c0.4-0.4,0.6-0.9,0.6-1.4V55.7z M7.2,56.9c0,0.2-0.1,0.3-0.2,0.4c-0.1,0.1-0.3,0.2-0.4,0.2
		c-0.2,0-0.3-0.1-0.4-0.2c-0.1-0.1-0.2-0.2-0.2-0.4v-1.2c0-0.2,0.1-0.3,0.2-0.4c0.1-0.1,0.3-0.2,0.4-0.2c0.2,0,0.3,0.1,0.4,0.2
		c0.1,0.1,0.2,0.2,0.2,0.4V56.9z"/>
	<polygon points="8.4,48.2 9.6,48.2 9.6,43 9,43 7.8,43.6 7.8,44.2 8.4,44.2 	"/>
	<path d="M14.2,43h-1.2c-0.3,0-0.6,0.1-0.8,0.3c-0.2,0.2-0.3,0.5-0.3,0.8v2.9c0,0.3,0.1,0.6,0.3,0.8c0.2,0.2,0.5,0.3,0.8,0.3h1.2
		c0.3,0,0.6-0.1,0.8-0.3c0.2-0.2,0.3-0.5,0.3-0.8v-2.9c0-0.3-0.1-0.6-0.3-0.8C14.8,43.1,14.6,43,14.2,43z M13.1,44.2
		c0-0.2,0.1-0.3,0.2-0.4c0.1-0.1,0.3-0.2,0.4-0.2c0.3,0,0.5,0.2,0.6,0.5l-1.2,2.1V44.2z M14.2,47.1c0,0.2-0.1,0.3-0.2,0.4
		c-0.1,0.1-0.3,0.2-0.4,0.2c-0.2,0-0.3,0-0.4-0.1s-0.2-0.2-0.2-0.4l1.2-2.1V47.1z"/>
	<polygon points="18.7,37.1 18.7,31.9 18.1,31.9 17,32.5 17,33 17.6,33 17.6,37.1 	"/>
	<polygon points="21.6,32.5 21.6,33 22.2,33 22.2,37.1 23.4,37.1 23.4,31.9 22.8,31.9 	"/>
</g>
</svg>
