<?xml version="1.0" encoding="utf-8"?>
<!-- Generator: Adobe Illustrator 19.2.1, SVG Export Plug-In . SVG Version: 6.00 Build 0)  -->
<svg version="1.2" baseProfile="tiny" id="Layer_1" xmlns="http://www.w3.org/2000/svg" xmlns:xlink="http://www.w3.org/1999/xlink"
	 x="0px" y="0px" viewBox="0 0 100 100" xml:space="preserve">
<g>
	<path d="M95.5,66.6c-13.9-1.7-39,1-32.9-1.2c-3.6,0.3,29-3.9,29-3.9c6.2-1.9,8.2-6.2,8.2-13.9c0-7.8-5-14.1-11.1-14.1
		c0,0-36.3-4-37.2-4c-7.9,0-14.3,8.1-14.3,18c0,5.7,2.1,10.9,5.4,14.2c-9.2,0.5-15.1,3.6-21.6,3.8c-6.9,0.1-33.7,9.5-13.4,9.8
		c20.3,0.3,20.4,4.8,30.1,5c9.8,0.2,15.4-5.1,31.7-5.3S109.5,68.3,95.5,66.6z M5.5,73.3c-2.7-1.4,8.9-5.4,11.6-6
		C7.6,70.7,5.8,72.1,5.5,73.3z M43.9,63.8c1.9,1.4,6.8,3.3,11.7,1.9C49.4,68.9,43.8,65.2,43.9,63.8z M48.3,64
		c-5.8-1.9-10.1-8.5-10.1-16.4c0-9.3,6-16.9,13.4-16.9c7.4,0,13.4,7.6,13.4,16.9c0,6.8-3.2,12.6-7.7,15.3L48.3,64z M65.8,47.6
		c0-7.3-3.5-13.6-8.4-16.4c6.9,0.8,30.9,3.3,31.4,3.3c5.7,0,10.4,5.9,10.4,13.2c0,5.2-1.8,11.5-7.5,12.9c-4.8,0.7-34.1,4.1-34.1,4.1
		S65.8,59,65.8,47.6z"/>
	<path d="M62.7,33.1l3.5,4.3c0.1-1.5-0.8-2.9-0.8-2.9c4.4,0.1,24.7,1.9,24.7,1.9C80.1,34.4,62.7,33.1,62.7,33.1z"/>
</g>
</svg>
