<?xml version="1.0" encoding="utf-8"?>
<!-- Generator: Adobe Illustrator 19.2.1, SVG Export Plug-In . SVG Version: 6.00 Build 0)  -->
<svg version="1.2" baseProfile="tiny" id="Layer_1" xmlns="http://www.w3.org/2000/svg" xmlns:xlink="http://www.w3.org/1999/xlink"
	 x="0px" y="0px" viewBox="0 0 100 100" xml:space="preserve">
<g>
	<path d="M11.4,44.2c-0.7-1.5-1-3.1-1-4.6c0-5.2,4-9.9,11.9-14c8-4.1,17-6.2,27.1-6.2c10.6,0,18.9,2.3,25,7
		c6.1,4.7,9.1,11.1,9.1,19.3c0,10.9-4.7,20.4-14.2,28.7c-5,4.4-11.3,7.9-18.8,10.7c-7.5,2.8-14.7,4.2-21.6,4.2
		c-6.6,0-9.9-2.5-9.9-7.4c0-1.8,0.6-5.5,1.7-11.1l5.6-28.4c0.5-2.4,0.7-4.2,0.7-5.3c0-1-0.3-1.9-1-2.8c3.9-1.4,6.5-2.2,8-2.2
		c1.8,0,2.7,1,2.7,3.1c0,0.5-0.5,3-1.4,7.6l-4.7,23.8c-1.2,6.1-1.8,9.9-1.8,11.4c0,1.7,0.6,2.9,1.8,3.5c1.2,0.6,3.4,0.9,6.6,0.9
		c10.5,0,19.3-3.2,26.4-9.6c7.1-6.4,10.6-14.3,10.6-23.8c0-7.3-2.6-13.2-7.7-17.6c-5.2-4.4-12-6.6-20.6-6.6c-7,0-13.5,1.7-19.5,5
		C20.5,33.4,15.5,38.1,11.4,44.2z"/>
</g>
<g>
	<path d="M79.4,18.9c0.5-1.3,1.3-1.9,2.3-1.9c0.4,0,0.8,0.1,1.3,0.2c2.6-0.8,3.9-2.3,3.9-4.3c0-0.8-0.3-1.5-0.9-2
		c-0.6-0.5-1.3-0.8-2.2-0.8c-1.4,0-2.5,0.6-3.5,1.8l0-0.5c0-0.9,0.4-1.6,1.2-2.1c0.8-0.5,1.9-0.7,3.3-0.7c1.4,0,2.6,0.3,3.5,1
		c0.9,0.7,1.3,1.6,1.3,2.7c0,2.2-1.5,4-4.4,5.3c2.6,0.7,3.9,2.3,3.9,4.6c0,1.8-0.7,3.3-2.2,4.5c-1.4,1.2-3.2,1.8-5.4,1.8
		c-3.3,0-4.9-0.9-4.9-2.6c0-0.2,0-0.5,0.1-0.9c1.3,1.3,2.9,1.9,4.9,1.9c1.4,0,2.6-0.4,3.5-1.2s1.4-1.8,1.4-3.1
		c0-0.9-0.3-1.7-0.8-2.2s-1.5-0.9-2.9-1.3c-0.5,0.1-1,0.2-1.5,0.2C80.6,19.5,80,19.3,79.4,18.9z"/>
</g>
</svg>
