<?xml version="1.0" encoding="utf-8"?>
<!-- Generator: Adobe Illustrator 19.2.1, SVG Export Plug-In . SVG Version: 6.00 Build 0)  -->
<svg version="1.2" baseProfile="tiny" id="Layer_1" xmlns="http://www.w3.org/2000/svg" xmlns:xlink="http://www.w3.org/1999/xlink"
	 x="0px" y="0px" viewBox="0 0 100 100" xml:space="preserve">
<g>
	<path d="M43.4,39c0.4-0.1,0.8-0.3,1.1-0.5c0,0-1-5.3-1.8-7.3c0,0-0.1,0-0.1-0.1c0.5-0.2,1.1-0.3,1.6-0.5c-4.1,0.6-8.2,2.2-11.2,3.8
		c0,0,0,0,0.6,0.8c0,0,0.8-0.4,2-1.1c-0.3,1.6-0.3,4.2,0.4,5.7c0.2,0.1,0.5,0.1,0.8,0.1c0.3,0.9,0.8,1.9,0.8,1.9
		c1.3,2.6,3.5,1.9,4.3,1.6C42.6,43.1,43.8,41.6,43.4,39z M36.7,38.6c0,0-0.5-2.8-0.6-4.7c1.6-0.8,3.8-1.8,6.1-2.6c0,0,0,0.1,0,0.1
		c0,0,1.3,5.2,1,6.6C41.4,38.6,39.4,39.1,36.7,38.6z M38.3,41.6c0,0-0.4-0.9-0.6-1.6c0.6,0,1.3,0,2-0.1c0.1,0.3,0.2,0.5,0.2,0.5
		c0.4,0.9,0.7,0.9,1.3,0.8c0.7-0.3,0.8-0.8,0.6-1.7c0.3-0.1,0.5-0.1,0.8-0.2c0.5,2.1,0.5,3.4-1.2,4.1C40.1,43.7,39.3,43.6,38.3,41.6
		z"/>
	<path d="M54.4,30.7c-0.6,0.8-0.6,0.8-0.6,0.8c0.3,0.2,0.7,0.4,1.1,0.5c-0.1,0-0.1,0-0.1,0c-0.7,2.1-1.1,6.5-1.1,6.5
		c0.3,0.2,0.7,0.3,1,0.4c-0.4,2.6,0.9,4.1,1.5,4.4c0.3-0.2,1.6-1,4.3-1.6c0,0,0.4-1,0.7-1.9c0.3,0,0.6-0.1,0.8-0.1
		c0.9-2,0.5-4.1-0.1-5.2c0,1.8-0.6,4-0.6,4c-2.7,0.5-4.7-0.1-6.5-0.6c-0.2-1.4,0.6-5.7,0.6-5.7c0,0,0-0.1,0-0.1
		c2.8,1.3,6.2,2.5,9.6,3C59.8,33.8,54.4,30.7,54.4,30.7z M55,39.1c0.2,0.1,0.5,0.2,0.8,0.2c0,0.3,0,0.7,0,0.7c0.1,1,0.4,1.1,1,1.2
		c0.8-0.1,1-0.6,1.1-1.4c0.9,0.1,1.8,0.2,2.6,0.2c-0.2,0.7-0.6,1.7-0.6,1.7c-2.2,0.5-3.4,1.2-3.6,1.4C55.7,42.7,54.6,41.4,55,39.1z"
		/>
	<path d="M60.9,46.6c-2.3,5-11,7.4-19.2,3.8c1.4,3.4,2,3.7,1.4,5.2c7.9,2,19.3,1.4,17-6.6C59.9,48.1,61.1,47.9,60.9,46.6z
		 M44.2,53.1c-1.2-0.2-1.1-0.6-1.4-1.7c5.5,2,10.5,1.8,16.5-1.8C59.4,54.6,45.4,53.3,44.2,53.1z"/>
	<path d="M99.9,31.7c-1.2-4.7-8.5-4.1-11-3.2c-2.3,0.8-7.6,1.2-15.8-0.8c-1.5-5.3-4.9-10.2-9.8-13.5c-11.2-7.5-26.3-4.5-33.8,6.7
		c-1.2,1.7-2.1,3.6-2.7,5.5c-3.9,2.1-8.3,2.1-12.6,1.3C9.4,26.7,3.5,25,0.6,28.4C4.4,30,8.5,34,11.9,36.6c3.3,2.5,8.3,6.9,15.5,7
		c1.7,4.2,4.6,7.9,8.6,10.7c-3.3,2.7-7.1,4.2-7.1,4.2c5.8,3.8,18.5,8.6,24.4,13.2c0.1,4.9,1.6,23.5,1.6,23.5
		c2.5-4.5,1.5-19.8,1.5-19.8c0.1-1.9-1.8-4.1-4.5-6.3c2.3-1.9,12.1-9.6,19.5-13.2c0,0-0.4-1.7-4.1-4.4c0.2-0.3-1.4,1.3-1.4,1.3
		s0.5,0.2,1.1,0.6c-3.2,3.4-13.3,6.5-15,6.7c-1.7,0.2-8.8-0.4-13.6-3.7c0.3-0.1,0.5-0.2,0.7-0.3c0.2,0.1,0.5,0.3,0.7,0.4
		c0.6,0.3,1.1,0.5,2.1,0.9c10.2,3.7,22,0,28.3-9.4c0.7-1.1,1.3-2.2,1.8-3.3c1.1-0.4,2.5-0.5,3.7-0.2c1.5,0.5,8.8-2,11.3-3.8
		c2.4-1.8,8.2-8.4,9.7-8.4C98.1,32.3,100.4,33.4,99.9,31.7z M18.6,38.9c-3.2-1.2-13-10-14.2-10.2c5.8,0,17.3,4,21.1,5.3
		c0,1.3,0.1,2.7,0.3,4C23.9,39.6,21.5,40,18.6,38.9z M68.6,47.7c-6.8,10.2-20.6,12.9-30.8,6.1c-10.2-6.8-12.9-20.6-6.1-30.8
		s20.6-12.9,30.8-6.1C72.7,23.7,75.4,37.5,68.6,47.7z M97.2,31.1c-0.8,0-5-0.2-7.1,3.7c-2.1,3.8-8.4,5.5-10.8,6.2
		c-2,0.6-4.3-1.2-5.5-1.9c0.2-0.9,0.3-1.8,0.4-2.7c2.6-3.6,7.6-3.1,9.1-3.3c1.7-0.3,9-3.7,11.3-3.7S98,31.1,97.2,31.1z"/>
	<path d="M41.7,25.9c2.9-2.1,7.6-0.2,7.6-0.2c2.9-2.4,6.5-0.4,7.5,0.6c4.4-2.9,8,1.9,8,1.9c0-1.8-4.2-5.9-7.8-3.7
		C53,21.8,49.3,24,49.3,24c-2.8-1.1-5.8-0.8-7.5,0.2c-2.8-1.2-6.4,0.4-6.9,2.9C37.7,23.8,41.7,25.9,41.7,25.9z"/>
	<path d="M43.2,19c2.4-1.7,6.2-0.6,6.2-0.6c2.8-1.6,5.3,0.2,6.1,1c3.6-2.4,6.9,2,6.9,2c0-1.5-3.8-5.3-6.8-3.5
		c-3.2-2.2-6.3-0.6-6.3-0.6c-2.1-1.4-4.6-0.4-6.2,0.8c-2.3-1-5.2,1-5.6,3C39.9,18.3,43.2,19,43.2,19z"/>
	<path d="M46.4,40.8c0,1.5-2.2,0.8-2.2,3.1c0,2.3,9.2,2.3,9.2,0.2c-0.1-2.2-1.5-1.8-1.6-3c-0.8,1.2,0.8,1.3,0.8,2.8
		c0,1.4-7.3,1.6-7.2,0.1C45.3,42.4,47.3,42.2,46.4,40.8z"/>
</g>
</svg>
