<?xml version="1.0" encoding="utf-8"?>
<!-- Generator: Adobe Illustrator 19.2.1, SVG Export Plug-In . SVG Version: 6.00 Build 0)  -->
<svg version="1.2" baseProfile="tiny" id="Layer_1" xmlns="http://www.w3.org/2000/svg" xmlns:xlink="http://www.w3.org/1999/xlink"
	 x="0px" y="0px" viewBox="0 0 100 100" xml:space="preserve">
<g>
	<path d="M94.8,48.9C89.4,22,66,15,53.4,19c0.8-11.5-3.3-16.4-4.5-18.6c0,0-4.2-0.7-4.8,1.7c3.2,2.7,6.4,10.5,6.8,18
		c0,0-0.1,0-0.1,0.1C31.9,13.8,2.2,22.5,2.2,61.8c0,39.5,32.1,40.3,44.5,35.4C65.4,106.3,104.3,93.9,94.8,48.9z M42.1,94.2
		c1,0.9,2.2,1.8,3.5,2.5c-26.6,9-41.1-16.4-41.1-36.4c0-30.3,38.3-49.6,58.5-31.9c-2.3-3.1-5.7-5.6-9.9-7.4c0-0.3,0.1-0.6,0.1-0.9
		c21.8-7.3,37.9,17.4,39.9,28.9C98.9,81.9,77.5,107.7,42.1,94.2z"/>
	<path d="M30.4,41.9c-6.3,1.3-6.8-1.1-7.9-3.7c-7,9-13.5,31.5,4.2,48C8.5,53.8,30.4,41.9,30.4,41.9z"/>
	<path d="M74.5,27.9c-3.9,0.4-4.1,3.3-3.4,6.3c0.6,2.8,1.8,6.3-5,12.1c-0.6-0.1-1.1,0-1.6,0.2c-1.8,0.9-2.4,3.5-1.2,5.9
		c1.1,2.4,3.6,3.6,5.4,2.7c0.9-0.4,1.4-1.3,1.7-2.3c9-8.3,9.5-15.5,9.3-17.6C79.3,33.3,78.5,27.5,74.5,27.9z M70.4,51.6
		c-0.8,0.8-1.7,1.5-2.6,2.2c-1-0.1-2.2-0.7-2.9-1.6c-0.5-0.6-0.8-1.3-0.7-2c0-0.4,0.1-0.9,0.3-1.3c1-0.7,1.8-1.3,2.6-2
		c0.2,1.1,0.9,2.2,1.5,2.4c-0.6-0.7-1-2-1.1-2.8c1.2-1.1,2.1-2.3,2.8-3.4c0.6,0.7,1.6,1,1.9,1c-0.6-0.6-1.2-1.3-1.5-1.7
		c0.9-1.7,1.3-3.3,1.4-4.8c0.6,0.6,1.8,0.6,2.5,0.3c-1.2-0.1-2-0.6-2.5-0.9c0-1-0.2-1.9-0.4-2.7c-0.8-2.9-0.1-5,3.2-5.2
		c3.4-0.1,3.6,4.7,3.8,6.3C78.9,37,77.5,44.9,70.4,51.6z"/>
	<ellipse transform="matrix(0.9975 -7.115038e-02 7.115038e-02 0.9975 -2.0912 5.3617)" cx="74.2" cy="32" rx="0.4" ry="0.9"/>
	<ellipse transform="matrix(0.1603 -0.9871 0.9871 0.1603 32.3074 101.7936)" cx="76" cy="31.9" rx="0.9" ry="0.4"/>
	<path d="M75.9,34.5c-0.9,0.1-1.3,0.5-2.3-0.2c0,0.6,0.7,1.4,2.3,1C75.7,35,75.9,34.5,75.9,34.5z"/>
</g>
</svg>
