<?xml version="1.0" encoding="utf-8"?>
<!-- Generator: Adobe Illustrator 19.2.1, SVG Export Plug-In . SVG Version: 6.00 Build 0)  -->
<svg version="1.2" baseProfile="tiny" id="Layer_1" xmlns="http://www.w3.org/2000/svg" xmlns:xlink="http://www.w3.org/1999/xlink"
	 x="0px" y="0px" viewBox="0 0 100 100" xml:space="preserve">
<g>
	<path d="M48.1,25.3c-0.9,1.5-2.7,8.8-0.3,14.3c-0.7-4.4-0.4-12.9,1.9-15.7C48.7,24.8,48.1,25.3,48.1,25.3z"/>
	<circle cx="40.8" cy="34.3" r="1.3"/>
	<path d="M40.8,31.6C40.8,31.6,40.8,31.6,40.8,31.6l-0.2-1.1l-0.2,1.2c-1.1,0.2-2,1-2.2,2.1L37,33.9l1.2,0.4c0,1.4,1.1,2.6,2.5,2.6
		l0.3,1l0.2-1c1.3-0.1,2.4-1.3,2.4-2.6l0.9,0l-1-0.4C43.3,32.6,42.2,31.6,40.8,31.6z M40.8,36.5c-1.2,0-2.2-1-2.2-2.2s1-2.2,2.2-2.2
		c1.2,0,2.2,1,2.2,2.2S42,36.5,40.8,36.5z"/>
	<path d="M81,27c-1.3-0.6-19.9,2.4-22.6,3.2c-0.3-2.4-1-4.5-1.8-5.4c0,0-4.1-7-4.7-11.6c-0.6-4.6,0.5-8.2,2.2-8.9c0,0,2-3.9,1.6-4.2
		c-0.5-0.5-3.4,2-5.4,3.3c0,0,0.6-2.5-0.9-2.5s-0.9,1.6-0.8,2.5c0,0-5.2-3.6-5.5-2.8c-0.3,0.8,0.9,1.8,2,4.1
		c2.5,1.3,4.2,4.4,4.2,8.4s-2.8,11.8-3,12.1c-0.7,1.4-1.1,3.2-1.4,5c-2.2-0.7-21.4-3.9-22.8-3.3c-1.5,0.7,1.7,8.2,2.2,8.6
		c0.3,0.2,3,0.9,8,2.1c0,0.4-0.1,0.8-0.1,1.3c-0.8-0.4-1.7-0.8-2-0.1c-0.4,1,0.8,1,2.1,1.3c0,0,0,0,0,0c0,0.2,0.1,0.3,0.2,0.5
		c-0.5,0.5-1.1,1.4-0.1,1.7c1.1,0.4,1.1-0.3,1.1-1.2c0.2,0,0.4,0,0.7,0c0.6,0.4,1.5,0.7,2,0c0.5-0.7-0.3-0.9-1.2-0.9c0,0,0,0,0,0
		c0,0,0-0.9,0.1-1.7c3.2,0.8,7.1,1.9,11.6,3.1c0,0,0.1,0.1,0.1,0.1c0,0,1.2,2.2,1.3,10c-0.1,0.6-0.1,1.2,0.2,1.8
		c-0.2,0.1-0.3,0.3-0.3,0.5c0,0.9,0.6,0.9,1.4,0.8c0.4,0.3,0.9,0.5,1.4,0.6c0.1,0,0.3,0,0.4,0.1c-0.2,0.7-0.2,1.6,0.8,1.6
		c1.3,0,1.2-0.7,0.9-1.5c2.6-0.2,4.1-2,3.6-3.5c0-2,0.2-6.6,0.4-10.2c0.1-0.1,0.1-0.2,0.2-0.4c4.4-1.2,7.5-2.2,10.6-3.1
		c0.1,0.8,0.1,1.7,0.1,1.7c0,0,0,0,0,0c-0.8,0.1-1.6,0.2-1.2,0.9c0.5,0.7,1.4,0.4,2,0c0.3,0,0.5,0.1,0.7,0c0,0.9,0,1.6,1.1,1.2
		c0.9-0.4,0.3-1.2-0.1-1.7c0.1-0.2,0.2-0.4,0.2-0.5c0,0,0,0,0,0c1.2-0.3,2.5-0.2,2.1-1.3c-0.3-0.7-1.2-0.3-2,0.1
		c-0.1-0.4-0.1-0.9-0.1-1.3c5-1.3,7.7-1.9,8-2.1C79.3,35.2,82.5,27.7,81,27z M49.8,13.4c0-3.9-2.2-7.9-4.4-9.2
		c-1-2.3-1.7-1.9-1.4-2.7c0.3-0.8,5.3,2.6,5.3,2.6c-0.1-0.9-0.4-2.4,0.3-2.3c0.9,0.2,0.3,2.4,0.3,2.4C51.7,2.9,54.5,0.5,55,1
		c0.4,0.4-1.2,2.9-1.2,2.9c-1.6,0.6-3,4.7-2.5,9.1c0.4,3.2,2.6,8,3.8,10.4c-1.1-1.7-2.6-3.4-3.9-3.4c-1.2,0-2.8,2-3.8,3.6
		C48.4,21,49.8,16.2,49.8,13.4z M32.9,40.4c0-0.1-0.1-0.2-0.1-0.3c0.1,0,0.2,0.1,0.3,0.1C33.1,40.2,33,40.3,32.9,40.4z M32.6,39.1
		c0-0.6,0.1-1,0.2-1.3c0.2,0.1,0.4,0.1,0.7,0.2c-0.1,0.6,0,1.3,0,1.7C33.5,39.7,33.1,39.4,32.6,39.1z M33.7,40.7c0,0,0-0.1,0-0.1
		c0,0,0.1,0,0.1,0.1C33.8,40.7,33.7,40.7,33.7,40.7z M34.8,40.1c-0.3,0-0.6,0-0.7-0.1c0,0,0.6-0.6,1-1.3
		C35.1,39.1,35,39.6,34.8,40.1z M35.5,37.8c0.2-0.5,0.1-0.9-0.5-1.1c-0.8-0.3-1.2,0.1-1.4,0.7c-5.2-1.3-8.1-1.9-8.4-2.1
		c-0.5-0.3-3.7-6.6-2.4-7.2c0.8-0.4,19.6,2,22.1,2.7c-0.2,1.7-0.2,3.5,0,5.1c0,0.6,0.1,1.1,0.2,1.5c0,0,0,0,0,0
		c0.2,1.3,0.6,2.5,1,3.3C42,39.4,38.5,38.5,35.5,37.8z M51.5,55.2c-0.1,0-0.2,0-0.3,0c-0.4-0.1-0.8-0.3-1.1-0.5
		c0.6-0.1,1.2-0.2,1.8-0.3C51.9,54.4,51.7,54.7,51.5,55.2z M48.9,53.2c-0.5-1.3,0.3-2.9,2.5-3.1c-0.4,0.9,0.3,2.6,0.7,3.5
		C52.1,53.6,50,52.9,48.9,53.2z M53,55.2c-0.1-0.2-0.2-0.4-0.2-0.7c0,0,0.8,0.3,1.7,0.3C54,55.1,53.5,55.2,53,55.2z M56,53.4
		c-0.3-0.9-2.4,0.2-3.1,0.2c0,0,0.9-2.1,0.7-3.4C55.9,50.9,56.5,52.3,56,53.4z M56.2,51.1c-0.1-0.1-0.1-0.1-0.2-0.2
		c-1.4-2.8-6.6-2.7-7.5,0c0-2.1-0.1-3.8-0.2-5.1l1.1-0.1l2.9,2.8l2.6-2.6l1.3,0.1C56.2,48.4,56.2,50.4,56.2,51.1z M56.3,45l-1.4,0.1
		l-2.4,2.3l-2.9-2.5h-1.3c0-0.4-0.1-0.7-0.1-1l1.3-0.1l2.9,2.8l2.6-2.6l1.4,0.1C56.3,44.5,56.3,44.7,56.3,45z M56.4,43.2l-1.5,0.1
		l-2.4,2.3l-2.9-2.5H48c-0.1-0.7-0.3-1.2-0.4-1.5c1,0.7,2.9,1.4,4.7,1.4c1.7,0,3.3-0.7,4.1-1.3C56.4,42.2,56.4,42.7,56.4,43.2z
		 M56.5,41.3C56.5,41.3,56.5,41.3,56.5,41.3c-2.8,1.8-7,1.1-9-0.1c0-0.1,0-0.1,0-0.1c-2.2-1.9-2.7-10.8-0.5-15.8
		c1.7-2.8,3.2-4.7,4.4-4.7c1.2,0,3.5,2.9,4.6,4.3c0,0,0,0,0,0C58,27.2,58.6,37.6,56.5,41.3z M68.5,40.1c-0.2-0.5-0.3-1-0.3-1.4
		c0.4,0.7,1,1.3,1,1.3C69,40,68.8,40.1,68.5,40.1z M69.4,40.7c0.1-0.1,0.1-0.1,0.1-0.1c0,0,0,0.1,0,0.1
		C69.5,40.7,69.4,40.7,69.4,40.7z M70.4,40.4c-0.1-0.1-0.2-0.2-0.2-0.2c0.1,0,0.2-0.1,0.3-0.1C70.4,40.2,70.4,40.3,70.4,40.4z
		 M69.8,39.7c0.1-0.5,0.1-1.1,0-1.7c0.2-0.1,0.4-0.1,0.7-0.2c0.1,0.3,0.2,0.8,0.2,1.3C70.1,39.4,69.8,39.7,69.8,39.7z M69.6,37.3
		c-0.2-0.6-0.6-0.9-1.4-0.7c-0.6,0.2-0.7,0.6-0.5,1.1c-3,0.7-5.9,1.7-10,2.8c0.9-2.5,1.1-6.5,0.7-9.9c3-0.8,21.2-3.1,22-2.7
		c1.3,0.6-1.9,6.9-2.4,7.2C77.7,35.4,74.8,36,69.6,37.3z"/>
	<circle cx="62.4" cy="34.3" r="1.3"/>
	<path d="M62.8,31.6l-0.2-1.2l-0.2,1.1c0,0,0,0-0.1,0c-1.4,0-2.5,1-2.6,2.3l-1,0.4l0.9,0c0,1.4,1,2.5,2.4,2.6l0.2,1l0.3-1
		c1.4-0.1,2.5-1.2,2.5-2.6l1.2-0.4l-1.2-0.1C64.8,32.7,64,31.8,62.8,31.6z M62.4,36.5c-1.2,0-2.2-1-2.2-2.2s1-2.2,2.2-2.2
		c1.2,0,2.2,1,2.2,2.2S63.7,36.5,62.4,36.5z"/>
	<path d="M24.2,25.5c0.9-2.9,1.2-14.9,1.3-19.6c-0.4,7.3-3.1,19.6-3.1,19.6C23.4,25.5,24.2,25.5,24.2,25.5z"/>
	<path d="M25.5,5.9c0-0.7,0.1-1.3,0.1-1.9C25.5,4.1,25.5,4.8,25.5,5.9z"/>
	<path d="M32.5,26.5c0.6-3.5,0.8-18.4,0.9-24.2c-0.3,9-2.1,24.2-2.1,24.2C31.9,26.5,32.5,26.5,32.5,26.5z"/>
	<path d="M33.4,2.3c0-0.8,0-1.6,0-2.3C33.4,0.2,33.4,1,33.4,2.3z"/>
	<path d="M77.3,5.9c0-1,0-1.7-0.1-1.9C77.3,4.6,77.3,5.2,77.3,5.9z"/>
	<path d="M80.4,25.5c0,0-2.6-12.4-3.1-19.6c0.1,4.7,0.4,16.8,1.3,19.6C78.6,25.5,79.5,25.5,80.4,25.5z"/>
	<path d="M69.4,2.3c0-1.3,0-2.1,0-2.3C69.4,0.7,69.4,1.5,69.4,2.3z"/>
	<path d="M71.5,26.5c0,0-1.8-15.2-2.1-24.2c0.1,5.8,0.3,20.7,0.9,24.2C70.3,26.5,70.9,26.5,71.5,26.5z"/>
	<circle cx="49.8" cy="93.6" r="0.4"/>
	<circle cx="48.5" cy="92" r="0.4"/>
	<circle cx="48.1" cy="90" r="0.4"/>
	<circle cx="50.2" cy="88" r="0.4"/>
	<circle cx="49" cy="85.6" r="0.4"/>
	<path d="M59,71c-4.6,0-8.4,0.8-8.4,1.8c0,0.1,0,0.1,0,0.2c0.2,0.7,0.3,1.5,0.5,2.5c-0.4,0-0.7,0-1.1-0.1c0,0,0,0,0,0
		c0.4-1.9,0.7-3.7,1.1-5c0-0.1,0.1-0.1,0.1-0.2c0-1-3.8-1.8-8.4-1.8c-4.6,0-8.4,0.8-8.4,1.8c0,0.1,0,0.1,0,0.2
		c1.1,4.8,3.1,20.6,3.1,20.6c0.7,0.7,2.2,1.8,4.9,2c0.4,2.9,0.7,5,0.7,5c0.7,0.7,2.5,2,5.6,2c2.7,0,3.9-1.2,4.5-1.8
		c0.1-1.1,0.3-2.7,0.6-4.6c0.7,0.7,2.5,2,5.6,2c2.7,0,3.9-1.2,4.5-1.8C64.4,89.4,66,78,67.3,73c0-0.1,0.1-0.1,0.1-0.2
		C67.4,71.8,63.6,71,59,71z M55.9,77.2c0,0.9-3.2,1.6-7.2,1.6c-4,0-7.2-0.7-7.2-1.6c0-0.9,3.2-1.6,7.2-1.6
		C52.7,75.6,55.9,76.3,55.9,77.2z M48.3,81.8c-3.5,0-6.4,0.5-6.7,1.2c-0.3-2.1-0.6-3.9-0.7-4.8c1.4,0.7,4.2,1.3,7.4,1.3
		c3,0,5.6-0.5,7.1-1.2c-0.3,1-0.5,2.6-0.8,4.3C53.6,82.1,51.2,81.8,48.3,81.8z M54.4,83.1c0,0.6-2.6,1.2-5.8,1.2
		c-3.2,0-5.8-0.5-5.8-1.2s2.6-1.2,5.8-1.2C51.8,82,54.4,82.5,54.4,83.1z M37.3,76.1c0-0.6,2.6-1.2,5.8-1.2c1.9,0,3.5,0.2,4.6,0.4h0
		c-4.2,0.1-7.5,0.8-7.7,1.7c0,0,0,0,0,0C38.3,76.9,37.3,76.5,37.3,76.1z M43.2,68.6c4,0,7.2,0.7,7.2,1.6s-3.2,1.6-7.2,1.6
		c-4,0-7.2-0.7-7.2-1.6S39.2,68.6,43.2,68.6z M35.3,71.2c1.4,0.7,4.2,1.3,7.4,1.3c3,0,5.6-0.5,7.1-1.2c-0.2,1-0.5,2.4-0.8,4.1
		c-0.2,0-0.4,0-0.6,0c-1.2-0.4-3.3-0.6-5.7-0.6c-3.5,0-6.4,0.5-6.7,1.2C35.7,73.8,35.4,72.1,35.3,71.2z M36.1,76.4
		c0.4,0.5,1.9,1,3.9,1.3c0.5,2.4,1.2,6.9,1.8,11.1c-1.7-0.2-3-0.7-4-1.3C37.3,84.2,36.6,79.8,36.1,76.4z M38.2,90.6
		c-0.1-0.6-0.2-1.3-0.3-2.1c1,0.6,2.5,1,4,1c0.1,0.9,0.2,1.7,0.4,2.5C39.9,91.9,38.2,91,38.2,90.6z M52.6,97.8
		c-1.1,1.1-1.5,1.3-3.9,1.3c-2.9,0-4.9-1.1-5-1.5c-0.1-0.6-0.2-1.3-0.3-2.1c2.2,1.5,7.2,1.2,8.8-0.4c-4.1,1.2-7.1,0.4-9-0.8
		c-0.5-3.2-1.1-7.6-1.6-11.1c0.5,0.7,3.3,1.5,6.7,1.5c2.7,0,5-0.5,6.1-1.1C53.5,89.9,52.6,97.8,52.6,97.8z M63.3,93.4
		c-1.1,1.1-1.5,1.3-3.9,1.3c-2.9,0-4.9-1.1-5-1.5c-0.1-0.6-0.2-1.3-0.3-2.1c2.2,1.5,7.2,1.2,8.8-0.4c-3.9,1.2-6.8,0.5-8.7-0.6
		c0.5-3.4,1.1-7.1,1.7-10c0.9,0.1,1.9,0.2,3,0.2c2.7,0,5-0.5,6.1-1.1C64.2,85.5,63.3,93.4,63.3,93.4z M59.3,79.9
		c-1.2,0-2.3-0.1-3.2-0.2c0.2-0.7,0.3-1.4,0.5-2c0.8-0.1,1.7-0.1,2.7-0.1c3.2,0,5.8,0.5,5.8,1.2C65.1,79.3,62.5,79.9,59.3,79.9z
		 M65.3,78.2c-1-0.5-3.4-0.9-6.3-0.9c-0.8,0-1.6,0-2.3,0.1c0-0.1,0.1-0.1,0.1-0.2c0-0.7-2-1.4-4.9-1.7c-0.1-0.8-0.2-1.4-0.3-1.8
		c1.4,0.7,4.2,1.3,7.4,1.3c3,0,5.6-0.5,7.1-1.2C65.8,75,65.6,76.5,65.3,78.2z M59.4,74.4c-4,0-7.2-0.7-7.2-1.6s3.2-1.6,7.2-1.6
		s7.2,0.7,7.2,1.6S63.4,74.4,59.4,74.4z"/>
	<circle cx="56.6" cy="89.2" r="0.4"/>
	<circle cx="57.4" cy="87.6" r="0.4"/>
	<circle cx="56.6" cy="85.2" r="0.4"/>
	<circle cx="58.2" cy="83.5" r="0.4"/>
	<circle cx="56.6" cy="81.1" r="0.4"/>
</g>
</svg>
