<?xml version="1.0" encoding="utf-8"?>
<!-- Generator: Adobe Illustrator 19.2.1, SVG Export Plug-In . SVG Version: 6.00 Build 0)  -->
<svg version="1.2" baseProfile="tiny" id="Layer_1" xmlns="http://www.w3.org/2000/svg" xmlns:xlink="http://www.w3.org/1999/xlink"
	 x="0px" y="0px" viewBox="0 0 100 100" xml:space="preserve">
<g>
	<path d="M71.3,68.6c-5.9-0.1-13.6-3.8-14.9-3.8c-1.3,0-4.2,2.6-6.2,2.6s-5.1-2.2-6.3-2c-1.1,0.2-6.8,4.1-12.9,4.2
		c-0.2-0.1-0.8-0.5-2.2-1.1c3.6,4.8,5.9,9.3,6.5,10.4c-2.4,0.7-4.1,1.5-4.6,2.1c2.2-1.1,5.1-1.4,8.2-1.8c1,0.2,2.1,0.3,3.6,0.3
		c-0.6,0.9-1.4,2.4-1.3,3.5c1-1.7,2.4-2.8,4-3.5c1.3,0,2.8,0,4.5,0c0.4,0,0.8,0,1.2,0c0.8,1,2.1,2.5,3.1,2.6c0,0-0.7-1.3-0.9-2.7
		c0.6,0,1.2,0,1.7,0c1.7,0.9,4.1,2.4,5.6,3.7c0,0-0.6-2-2.8-3.8c0.8-0.1,1.6-0.2,2.3-0.3c2.2,0.5,5.1,1.1,8.2,2
		c-0.9-0.6-2-1.1-3-1.6c0.5-3.1,4.9-7.3,7.7-11.6L71.3,68.6z M35.1,72.6c0.7,0.3,2.4,0.5,4.7,0.6c0,0.8,0.1,3,0.4,4.4
		C36.5,77.2,35.7,76,35.1,72.6z M45.8,77.9c-2,0-3.6-0.1-4.8-0.2c-0.2-1.1-0.8-3.6-1-4.5c1.7,0.1,3.7,0.2,5.8,0.2V77.9z M50.4,77.9
		c-0.3,0-0.5,0-0.7,0c-1.3,0-2.4,0-3.5,0l-0.4-4.5c1.5,0,3,0,4.6,0V77.9z M55.7,77.8c-1.4,0.1-3,0.1-4.8,0.1l-0.4-4.5
		c1.8,0,3.6-0.1,5.3-0.1L55.7,77.8z M60,77.4c-1.1,0.2-2.4,0.3-3.9,0.4l-0.3-4.5c1.6-0.1,3.2-0.2,4.6-0.3L60,77.4z M60.8,77.2
		L60.4,73c2.1-0.2,3.9-0.4,5.3-0.6C65.3,75.2,64.1,76.6,60.8,77.2z M69.5,69.7c-0.7,0.3-1.3,0.7-2,0.9c0,0,0,0,0,0
		c-8.6,2.2-30.5,2.2-34.1,0.4c-0.8-0.5-1.7-0.8-2.1-1.1c7,0.2,9.8-3.1,13-3.1c3.2,0,4.8,1.5,5.8,1.5c1.1,0,4.3-2.9,6.2-2.1
		c8.1,3.5,12.9,3.3,13.4,3.2L69.5,69.7z"/>
	<path d="M25.9,65.7c-0.9,0.8,0.2,3.6,0.1,5.5c0.1-0.6,0-3.8,0.7-4.9s2.9-0.8,4.3-1.2C30.9,65,26.8,64.8,25.9,65.7z"/>
	<path d="M71.9,65c1.4,0.4,3.6,0.1,4.3,1.2c0.7,1.1,0.6,4.3,0.7,4.9c-0.1-1.8,1-4.6,0.1-5.5S71.9,65,71.9,65z"/>
	<path d="M60.9,43.9c5.1-2.4,9.8-7,19.5,4.6C75.3,39.1,68.1,32.8,60.9,43.9z"/>
	<path d="M41.9,43.9c-6.2-9.6-12.5-6.2-17.3,1.1c-1.4,0.5-2.4,1.4-3.7,2.9c-1.6,1.9-1.3,5.3,1,5.3s2-4,1.9-4.9
		c-0.1-0.4-0.1-0.8,0.1-1.4C32.6,37.4,37.1,41.6,41.9,43.9z M23.2,48.6c0.1,0.7,0.3,3.7-1.5,3.7c-1.8,0-1-2.6-0.2-3.8
		c1.3-2,2.4-3.1,3.5-3.1C22.9,46.4,23.1,47.9,23.2,48.6z"/>
	<path d="M21.8,48.6c-0.1,0.2-0.9,2.2-0.7,2.8c0.1-0.6,0.7-2.4,1.1-2.7C22.2,48.7,21.8,48.6,21.8,48.6z"/>
	<path d="M49.9,1C22.1,1-0.5,23.2-0.5,50.6c0,27.4,22.6,49.6,50.4,49.6s50.4-22.2,50.4-49.6C100.2,23.2,77.7,1,49.9,1z M50.2,97.7
		C24.1,97.7,3,76.9,3,51.2C3,25.5,24.1,4.7,50.2,4.7c26.1,0,47.2,20.8,47.2,46.5C97.4,76.9,76.3,97.7,50.2,97.7z"/>
</g>
</svg>
