<?xml version="1.0" encoding="utf-8"?>
<!-- Generator: Adobe Illustrator 19.2.1, SVG Export Plug-In . SVG Version: 6.00 Build 0)  -->
<svg version="1.2" baseProfile="tiny" id="Layer_1" xmlns="http://www.w3.org/2000/svg" xmlns:xlink="http://www.w3.org/1999/xlink"
	 x="0px" y="0px" viewBox="0 0 100 100" xml:space="preserve">
<g>
	<path d="M0.4,37.3C20,31.9,37.6,49,43.6,54.5c0,0,1.5-0.1,1.7-1.2C18.3,27.9,7.7,35.4,0.4,37.3z"/>
	<path d="M96.6,30.6c-6.4-0.5-16.4-5.1-34.9,20.4c0.4,0.9,1.6,0.7,1.6,0.7C67.4,46.3,79.4,29.2,96.6,30.6z"/>
	<path d="M4,60.7c-0.9-1.9-1.5-3.9-1.8-7.2c-0.3,2.7,0.1,5.6,1,7.9c-0.1,0.1-0.1,0.1-0.2,0.2c-1-2.1-1.8-4.2-2.1-7.9
		C0.3,58.2,2.1,63.6,4,65c6.3,8.3,33.9,2.9,40.9-1.6C27,53.5,12.3,53.9,4,60.7z M37.5,61.1c1.2,0.6,2.4,1.3,3.8,2
		c-1,0.7-2.4,1.3-4,1.9C37.4,63.7,37.5,61.9,37.5,61.1z M27.8,60.4c0-0.6,0.5-1.1,1.1-1.1c0.6,0,1.1,0.5,1.1,1.1
		c0,0.2-0.1,0.4-0.2,0.5c0.8,0.3,1.4,1.1,1.4,2c0,1.2-1,2.2-2.2,2.2s-2.2-1-2.2-2.2c0-0.8,0.5-1.6,1.2-1.9
		C27.9,60.8,27.8,60.6,27.8,60.4z M27.3,57.1c-1.5,2.4-3.1,7.3,0.2,10.1c-6,0.5-11.6-0.8-12.1-6.1C19.1,57.5,22.3,56.1,27.3,57.1z"
		/>
	<path d="M99.3,43.5c0.4,3.1,0.2,5-0.3,6.9c-0.1,0-0.1-0.1-0.2-0.1c0.3-2,0.1-4.6-0.6-6.7c0.4,2.7,0.2,4.6-0.1,6.3
		c-8.1-4.1-20.4-1.8-33.5,9.8c6.7,2.5,30.5,1.8,34.2-6.2C100.1,51.9,100.6,47.1,99.3,43.5z M67.5,58.7c4.5-4,7.9-6.4,10.7-7.6
		c-0.4,0.2-0.7,0.4-0.8,0.5c-0.8,2.2-2,6.7,1.2,7.8c0.6,0.1,1.2,0.1,1.8,0.1C75.8,60.3,70.4,59.8,67.5,58.7z M79.7,57.5
		c-1.3,0-2.3-1-2.3-2.3c0-1.1,0.8-2,1.9-2.2c-0.3-0.1-0.4-0.4-0.4-0.7c0-0.5,0.4-0.8,0.8-0.8c0.5,0,0.8,0.4,0.8,0.8
		c0,0.3-0.2,0.5-0.5,0.7c1.1,0.2,1.9,1.1,1.9,2.2C82,56.5,81,57.5,79.7,57.5z M85.5,57.9c0.8-2,1.3-4.6,1.1-6.6
		c0.7,0.3,1.3,0.7,2,1.1C88.9,54.9,87.6,56.7,85.5,57.9z"/>
</g>
</svg>
