<?xml version="1.0" encoding="utf-8"?>
<!-- Generator: Adobe Illustrator 19.2.1, SVG Export Plug-In . SVG Version: 6.00 Build 0)  -->
<svg version="1.2" baseProfile="tiny" id="Layer_1" xmlns="http://www.w3.org/2000/svg" xmlns:xlink="http://www.w3.org/1999/xlink"
	 x="0px" y="0px" viewBox="0 0 100 100" xml:space="preserve">
<g>
	<path d="M13.7,36.7C13.7,36.7,13.7,36.7,13.7,36.7L13.7,36.7c-0.1-7.9-2.4-14.8-5.4-15.3C5.2,20.8-2,27.2,2.3,43
		C6,39.7,13.7,36.7,13.7,36.7z M7.5,23.3c1.8,0.3,3.2,3.2,4,7.1c0,0,0,0,0,0c-4.9-0.3-4.6,4.7-4.1,7.5c-1.7,0.9-3.5,1.9-4.7,3
		C-0.9,28,4.9,22.8,7.5,23.3z"/>
	<path d="M92,21.4c-3.2,0.5-5.9,7.2-6.3,15.2c0,0,7.7,3.2,11.4,6.6C102.2,27.5,95.1,20.9,92,21.4z M92.2,37.9
		c0.7-2.8,1.2-7.8-3.9-7.7c0,0,0,0,0,0c0.9-3.9,2.5-6.8,4.4-7c2.6-0.4,8.4,5,4.2,17.8C95.7,40,93.9,38.9,92.2,37.9z"/>
	<path d="M37.5,70.6c0.5,4.7,3.6,7,3.6,7c-1.5-2.4-2.5-7.2-2.5-7.2C38.4,70.5,37.4,70.4,37.5,70.6z"/>
	<path d="M43.9,81.8c0.4,2,3.6,8.6,3.1,12.9c1.1-5.6-1.5-11.3-1.9-12.1C44.7,82.6,43.9,81.8,43.9,81.8z"/>
	<path d="M13.3,82.4c-1.4,0.1-2.9,1.8-3.1,3.4c0.6-1.1,2-2.6,3.6-3C13.2,82.7,13.3,82.4,13.3,82.4z"/>
	<path d="M64.9,65.2c0.1-0.6,0.2-1.1,0.3-1.5c4.1-4.4,6.6-10.5,6.6-17.3c0-2.9-0.4-5.7-1.3-8.3l-0.6-3c1.2-0.2,2-0.3,2-0.3
		c1.8-7.7,1.1-15-1.8-16.3c-0.9-0.4-2.4-0.3-4,0.7c-2.8-5.2-9.1-8.9-16.4-8.9c-7.3,0-13.6,3.6-16.4,8.8c-1.5-0.8-2.9-0.9-3.8-0.5
		c-2.9,1.3-3.6,8.6-1.8,16.3c0,0,0.7,0.1,1.7,0.2l-0.6,2.8c-0.9,2.6-1.3,5.5-1.3,8.4c0,6.7,2.3,12.7,6.3,17.1c0,0.7,0,1.4,0,2.3
		C22.3,69.3,7.5,68.9,0,64.3c1.7,9.7,6.1,15.1,11.3,18c-2.9,1.7-3.3,5-2.8,9.2C9,95,6.8,100,6.8,100c0.1-0.1,2.4-3.8,2.2-8.9
		c-0.2-5.6,0.9-7.6,2.5-8.6c0.4-0.2,0.9-0.4,1.3-0.6c0.1,0,0.2,0,0.3-0.1c3.2-0.8,10.6,0.8,17.4,0.9c2.4,0.1,6.8-0.5,6.8-0.5
		c-0.2,0.1-0.4,0.2-0.6,0.3c-1.7,0.5-3.6,0.9-5.9,1.2c-2.1,0.3-4.6,0.4-7.6,0.4c-1.4,0-2.8-0.1-4.4-0.2c-2-0.7-2.5-0.2-3.1,0.1
		c-0.8,0.5-5.1,4.3-4.6,6.3c0.9,3.7-2.8,8.3-2.7,8.6c1.4-2.4,3.9-5,3.3-8.8c-0.3-1.7,3-4.9,4.9-5.8c7.6,1.9,15.3,0.1,17.3-0.5
		c1.3-0.4,3.9-0.5,6.7-1.7c0.6,3,4,11.2,3.8,17.7c0,0,1-5-2.7-18.2c-0.1-0.4-0.1-0.7-0.1-0.9c0.6-0.3,1.1-0.7,1.3-0.9
		c0,0-2.6,0.7-4.2,1.6c-1.9-2.1-2.8-5.6-3.3-9c-0.3-2.4-0.4-4.7-0.4-6.4c0-0.3,0-0.5,0-0.8c0-0.1,0-0.3,0-0.4
		c15.6,9.9,28.9,0,28.9,0c0,0-0.1,0.6-0.2,0.8c-0.4,1.7-0.9,4.2-1.6,6.6c-1,3.4-2.2,6.7-3.4,8.1c-1.7-0.8-3.5-1.4-3.5-1.4
		c0.4,0.4,0.8,0.8,1.3,1.1c0,0.1-0.1,0.2-0.2,0.3c-3.8,7.1-2.8,17.4-2.7,17.6c-0.7-7.9,2.5-14.7,3.7-16.9c3.4,2.2,7.1,2.3,8.7,2.8
		C70.1,85,95.5,91,100,64.3C92.2,69.1,76.5,69.3,64.9,65.2z M68.8,20.1c1.7,0.8,2.5,4,2.3,8c0,0,0,0,0,0c-1.1-0.4-1.9-0.4-2.7-0.1
		l-1-4.6l0,0c-0.2-1.1-0.5-2.2-0.9-3.2C67.4,19.9,68.2,19.9,68.8,20.1z M33.7,20.5c2.1-5.5,8.4-9.2,15.9-9.2
		c9.2,0,16.6,5.5,16.6,13.1c0,1.6-0.3,3.3-1.1,4.9c-2.4,5.2-8.4,8.9-15.5,8.9c-3.7,0-7.1-1-9.9-2.7C34.2,31.3,32,25.9,33.7,20.5z
		 M28.1,28.8c-0.3-4.6-0.1-10.4,4.4-8.6c-0.7,3.6-2.1,8.1-1.9,8.1C29.8,28.2,28.1,28.8,28.1,28.8z M29.3,45.2c0-0.9,0-1.7,0.1-2.5
		L32,28.4c0,0,0,0,0.1,0c0.4,1.6,1.1,3,2.1,4.4c0.4,0.6,1.1,1.4,1.7,2c3.3,3.3,8.2,5.3,13.8,5.3c7.5,0,13.9-3.8,16.6-9.2
		c0.1-0.1,0.1-0.2,0.2-0.5c0.3-0.7,0.6-1.5,0.8-2.2l0.8,4.5c0.2,1.2,0.4,2,0.7,3.7l1.1,6c0.1,0.9,0.1,1.9,0.1,2.8
		c0,0.9-0.1,1.9-0.2,2.8c-1.3,4.7-4.8,11.2-10.6,14.7c-3.1,1.9-11.9,4.2-19,0.3c-6.4-3.4-9.6-10.4-10.8-17.7
		C29.3,45.2,29.3,45.2,29.3,45.2z M1.1,65.9c8.5,2.3,14,3.3,24.3,2.1c3-0.3,5.8-0.8,8.4-1.5c0,0.5,0,1.1,0.1,1.7L32,68.3l0,0.9
		c0,0-1.7,0.3-2.6,0.4l-0.1-0.6l-2.5,0.2l0,0.9c0,0-0.4,0.1-0.9,0.1c0-0.2-0.1-0.5-0.2-0.7c0,0,0,0.3,0,0.7
		c-0.5,0.1-1.1,0.2-1.5,0.2l0-0.4l-2.4-0.3l-0.1,0.8l-1.2,0.1l-0.1-0.4l0,0.4l-0.4,0l0-0.5l-1.7-0.2l0,0.7l-0.5,0
		c0-0.2-0.1-0.4-0.1-0.5c0,0,0,0.2,0,0.6l-0.6,0l0.1-0.4l-2-0.7l-0.1,0.6l-2.6-0.3l0-0.5l-2.1-0.7l-0.1,0.6l-2.6-0.4l0-0.5l-2.4-0.8
		L5.3,69l-3.2-0.8C1.8,67.5,1.5,66.7,1.1,65.9z M34,69.9L32.5,70l-0.2-1.4l1.4,0L34,69.9z M29.4,71.2h-2.2l-0.1-1.5l1.9-0.3
		L29.4,71.2z M24.3,72.5l0-1.1l1.5-0.3c0,1.2,0.1,2.8,0.1,3.6c0,0-2.2,0.1-4.7,0.1l-0.5-3.3c0.3,0,0.7-0.1,1-0.1l-0.1,0.6L24.3,72.5
		z M24.1,71.4l0,0.8l-2-0.5l0.1-1.5l1.9,0.3l0,0.2c0,0,0,0,0,0L24.1,71.4L24.1,71.4z M16.9,72.3l0.2-0.6l0.7,0
		c-0.1,1.4-0.5,3.5-1.3,3.5c-2.2,0.2-1.7-1-2.5-4c0.5,0.1,0.9,0.1,1.2,0.2l0,0.4L16.9,72.3z M15.3,71.6l0.1-1.3l1.5,0.6l-0.2,1.2
		L15.3,71.6z M18,71.6l0.5,0l0,0.8l1.7,0l0.1-0.8c0,0,0.2,0,0.4,0l0.1,3.2c-1.1,0-2.2-0.1-3.2-0.2C17.5,74.5,17.9,72.8,18,71.6z
		 M18.7,70.7l1.4,0.1L20,72l-1.3,0.1L18.7,70.7z M12.4,70.1l-0.2,1.3l-1.6-0.2l0-1.6L12.4,70.1z M7.5,69.2l-0.2,1.3l-1.8-0.3l0-1.6
		L7.5,69.2z M9.5,74c-1.4,0.3-4-0.5-5.3-0.6c0,0-0.7-1.6-1.8-4.3l2.8,0.6l-0.1,0.7l2.4,0.5l0.2-0.8c0,0,0.8,0.1,1.7,0.3
		C9.5,71.2,9.6,73.6,9.5,74z M9.5,70.4c0.3,0.1,0.6,0.1,0.9,0.1l-0.1,0.8l2.1,0.5l0.2-0.8c0,0,0.6,0.1,1.3,0.2
		c0.2,1,0.5,3.1,0.5,3.3c0,0-1.2-0.1-4.1-0.5C10.2,74.1,9.8,71.5,9.5,70.4z M12.8,81.7c-1.1-0.5-1.8-0.9-2-1.1
		c5.6-3.5,8.6-3.1,12.4,0c-0.8-1.2-2.1-2.1-2.1-2.1c2.3-1.3,7-1.3,9.3,3.8C24,82,15.8,81,12.8,81.7z M31.7,73.5
		c-0.1-0.6-0.3-1.2-0.5-1.6l0.2,1.7c-1.8,0.4-3.8,0.9-5.3,1c0.1-0.7,0.1-2.1-0.1-3.5l0.8-0.2l0.1,0.5l2.6,0l-0.1-1.1l1.1-0.2l0,0
		l1.5-0.2l0.2,0.7l1.8-0.3l0.5,2.6C33.4,73.1,31.7,73.5,31.7,73.5z M61.1,63.7c-6.1,4.5-14.5,5.2-22.8,0.5c-5-2.9-7.7-8.8-8.7-15.1
		c1.5,7.1,5.2,12.1,9.8,14.5c8.6,4.5,16.6,1.9,20.6-0.5c4.2-2.5,7.5-6.8,9.3-11.7C67.9,56.5,65,60.8,61.1,63.7z M63.3,72.1
		c0,0,0-0.1,0-0.1c0.3-1,0.5-1.9,0.7-2.8l1.4,0.3l-0.1,1l2.6,0l0.1-0.5l1,0.2l-0.9,3.3C65.5,72.8,63.3,72.1,63.3,72.1z M65.7,70
		l0.3-1.6l1.8,0.3l-0.1,1.5L65.7,70z M69.1,70.1l1.5,0.3l-0.1,1.1l2.6,0l0.1-0.5l0.8,0.2c-0.2,1.4-0.2,2.9-0.1,3.5
		c-1.5-0.1-3.5-0.6-5.3-1L69.1,70.1z M70.7,71.2l0.5-1.8l1.8,0.3l-0.1,1.5H70.7z M69.1,83.8c2-6.6,7.3-6.8,9.8-5.3
		c0,0-1.2,0.9-2,2.1c3.7-3.1,6.7-3.5,12.3,0C88.1,81.7,78.8,85.6,69.1,83.8z M78.4,71.9l-0.1-0.6c0.3,0,0.7,0.1,1,0.1l-0.5,3.3
		c-2.5,0-4.7-0.1-4.7-0.1c0-0.8,0.1-2.4,0.1-3.6l1.5,0.3l0,1.1L78.4,71.9z M76,70.7l0-0.2l1.9-0.3l0.1,1.5l-2,0.5l0-0.8l0,0L76,70.7
		C76,70.7,76,70.7,76,70.7z M81.6,72.3l0-0.8l0.5,0c0.1,1.2,0.5,2.9,0.5,2.9c-1,0.1-2.1,0.2-3.2,0.2l0.1-3.2c0.2,0,0.4,0,0.4,0
		l0.1,0.8L81.6,72.3z M80,70.8l1.4-0.1l0,1.4L80.1,72L80,70.8z M83.2,72.3l1.8-0.5l0-0.4c0.3,0,0.8-0.1,1.2-0.2
		c-0.9,2.9-0.3,4.2-2.5,4c-0.8,0-1.2-2.2-1.3-3.5l0.7,0L83.2,72.3z M83.1,70.9l1.5-0.6l0.1,1.3l-1.4,0.4L83.1,70.9z M85.7,74.5
		c0.1-0.3,0.4-2.3,0.5-3.3c0.7-0.1,1.3-0.2,1.3-0.2l0.2,0.8l2.1-0.5l-0.1-0.8c0.2,0,0.6-0.1,0.9-0.1c-0.3,1.1-0.7,3.7-0.7,3.7
		C86.9,74.4,85.7,74.5,85.7,74.5z M87.6,70.1l1.8-0.6l0,1.6l-1.6,0.2L87.6,70.1z M95.8,73.4c-1.2,0.2-3.9,0.9-5.3,0.6
		c-0.1-0.4,0.1-2.8,0.1-3.6c0.8-0.1,1.7-0.3,1.7-0.3l0.2,0.8l2.4-0.5l-0.1-0.7l2.8-0.6C96.4,71.8,95.8,73.4,95.8,73.4z M92.5,69.2
		l2-0.6l0,1.6l-1.8,0.3L92.5,69.2z M94.7,69l-0.1-0.7l-2.4,0.8l0,0.5l-2.6,0.4l-0.1-0.6L87.4,70l0,0.5l-2.6,0.3l-0.1-0.6l-2,0.7
		l0.1,0.4l-0.6,0c0-0.3,0-0.6,0-0.6c-0.1,0.1-0.1,0.3-0.1,0.5l-0.5,0l0-0.7l-1.7,0.2l0,0.5l-0.4,0l0-0.4l-0.1,0.4l-1.1-0.1l-0.1-0.8
		l-2.3,0.3l0,0.4c-0.4-0.1-1-0.2-1.5-0.2c0-0.4,0-0.7,0-0.7c-0.1,0.2-0.1,0.5-0.2,0.7c-0.5-0.1-0.9-0.1-0.9-0.1l0-0.9l-2.5-0.2
		l-0.1,0.6c-0.9-0.2-2.6-0.4-2.6-0.4l0-0.9l-2.5-0.2l-0.1,0.7l-1.3-0.4c0.2-0.9,0.4-1.8,0.6-2.5c3,1,6.2,1.6,9.9,2
		c10.3,1.1,15.8,0.1,24.2-2.1c-0.4,0.9-0.7,1.7-1,2.4L94.7,69z"/>
</g>
</svg>
