<?xml version="1.0" encoding="utf-8"?>
<!-- Generator: Adobe Illustrator 19.2.1, SVG Export Plug-In . SVG Version: 6.00 Build 0)  -->
<svg version="1.2" baseProfile="tiny" id="Layer_1" xmlns="http://www.w3.org/2000/svg" xmlns:xlink="http://www.w3.org/1999/xlink"
	 x="0px" y="0px" viewBox="0 0 100 100" xml:space="preserve">
<g>
	<path d="M81.1,77.5c3.8-2.6,7.2-5.8,10.1-9.4c15.1-19.4,9.1-45.7-13.7-58.7C54.8-3.7,24,1.6,8.7,21C-6.6,40.4-0.4,66.6,22.4,79.6
		c2.3,1.2,4.6,2.4,6.8,3.3c1.3,0.6,2.3,0.8,4.2,1.5c8,2.4,16.4,3,24.5,1.9c3.8,5.6,23.4,9.3,42,3.7C92.8,90.8,84.5,86.2,81.1,77.5z
		 M60.6,85.9c-0.3-0.3-0.6-0.6-0.9-0.8c-0.3-0.3-0.5-0.6-0.7-0.9c-11.2,1.8-23.3,0-33.5-5.8C4.7,66.6-0.9,42.6,12.9,24.9
		s42-22.4,62.8-10.7S102.1,50,88.3,67.7c-2.9,3.7-6.5,6.9-10.4,9.4c0.1,0.3,0.2,0.5,0.2,0.8c0.1,0.4,0.3,0.9,0.4,1.3
		c2.8,7.4,8.1,11.4,14.7,11.2C79,92.7,66,90.2,60.6,85.9z"/>
	<path d="M35.3,36.1c0-0.8-0.1-1.5-0.4-2c-0.2-0.4-0.6-0.7-1.2-1.1c-0.6-0.4-1.2-0.7-1.7-1.1c-0.5-0.4-0.8-1-0.8-1.9
		c0-0.5,0.1-1,0.3-1.4c0.2-0.4,0.4-0.6,0.8-0.6c0.1,0,0.1,0.2,0.1,0.6c0,0.2,0,0.6-0.1,1.1s-0.1,0.8-0.1,1c0,0.2,0,0.3,0,0.3
		c0.2,0.2,0.5,0.4,1.1,0.6c0.5,0.2,0.9,0.2,1.1,0.2c0.3,0,0.5-0.3,0.5-0.7c0-0.1,0-0.2-0.1-0.3c-0.1-0.2-0.1-0.3-0.1-0.3
		c0-0.1,0-0.3,0-0.6c0-0.3,0-0.5,0-0.7c0-0.8-0.1-1.4-0.4-1.8c-0.2-0.2-0.4-0.4-0.7-0.5c-0.3-0.1-0.6-0.2-0.9-0.3
		c-1.1-0.5-1.8-0.7-2-0.6c-0.5,0.1-1,0.6-1.5,1.3c-0.5,0.7-0.7,1.5-0.8,2.2c-0.1,0.9,0.2,1.6,0.8,2.3c0.5,0.6,1.3,1.2,2.5,1.8
		c0.5,0.3,0.8,0.8,0.8,1.7c0,0.4-0.1,0.7-0.2,1c-0.1,0.3-0.3,0.5-0.5,0.5c0,0-0.1,0-0.1,0c-0.2-0.1-0.3-0.4-0.4-1
		c-0.1-0.6-0.2-1-0.2-1c-0.1-0.1-0.3-0.1-0.8-0.2c-0.5-0.1-0.9-0.1-1.2-0.1c-0.2,0-0.3,0-0.3,0c-0.1,0-0.2,0.1-0.3,0.3
		c-0.1,0.1-0.1,0.3-0.1,0.4c0.1,0.2,0.2,0.3,0.3,0.4c0.1,0.2,0.3,0.5,0.5,1.2c0.2,0.5,0.4,0.9,0.6,1.1c0.2,0.2,0.4,0.3,0.6,0.3
		s0.5,0.1,0.7,0.2c0,0,0.3,0.1,0.7,0.2c0.2,0.1,0.5,0.1,0.7,0.1c0.8,0,1.5-0.3,2-0.7S35.3,36.8,35.3,36.1z"/>
	<path d="M37.3,38.3c0.5,0.1,0.9,0.2,1.3,0.2c0.1,0,0.2,0,0.2,0c0.3-0.1,0.4-0.3,0.4-0.7c0-0.1-0.1-0.2-0.2-0.3s-0.2-0.3-0.2-0.4
		v-5.9c0-0.1,0.1-0.3,0.2-0.5c0.1-0.2,0.2-0.4,0.2-0.4c0-0.1,0-0.1,0-0.1c-0.1-0.1-0.4-0.3-0.9-0.5s-0.9-0.3-1.2-0.3
		c-0.4,0-0.5,0.1-0.5,0.2s0.1,0.4,0.2,0.7v6.1c0,0.4,0,0.7-0.1,0.8c-0.1,0.2-0.2,0.4-0.1,0.5C36.4,38,36.7,38.2,37.3,38.3z"/>
	<path d="M37.6,29.1c0.7,0.2,1.2,0.4,1.3,0.3c0.1,0,0.2-0.2,0.3-0.6c0.1-0.3,0.1-0.6,0.1-0.8c0-0.1,0-0.1,0-0.1
		c-0.1-0.2-0.4-0.4-1-0.6c-0.6-0.2-0.9-0.3-1.2-0.3c-0.2,0-0.4,0.2-0.5,0.6c-0.1,0.3-0.2,0.6-0.2,0.8c0,0.1,0,0.2,0,0.2
		C36.4,28.6,36.8,28.8,37.6,29.1z"/>
	<path d="M42.6,38.5c0.1,0,0.1,0,0.2,0c0.3-0.1,0.5-0.4,0.5-0.8c0-0.2-0.1-0.3-0.2-0.5v-2.7c0-0.5,0.3-1.2,0.8-2.2
		c0.5-0.9,0.9-1.4,1-1.3c0.1,0,0.1,2,0.1,5.8c0,0.1-0.1,0.3-0.2,0.6c-0.1,0.3-0.2,0.4-0.2,0.5c0,0.1,0,0.1,0.1,0.1
		c0.1,0.1,0.4,0.2,0.8,0.3c0.5,0.1,0.8,0.2,1.2,0.2c0.2,0,0.3,0,0.4,0c0.3-0.1,0.4-0.3,0.4-0.6c0-0.1,0-0.3-0.1-0.5v-2.9
		c0-0.7,0.3-1.4,0.8-2.3c0.5-0.8,0.8-1.2,0.9-1.2c0.1,0,0.1,2,0.1,5.8c0,0.1-0.1,0.3-0.2,0.5c-0.1,0.2-0.2,0.4-0.2,0.5
		c0,0.1,0,0.1,0.1,0.2c0.1,0.1,0.4,0.2,0.8,0.3c0.5,0.1,0.8,0.2,1.2,0.2c0.2,0,0.3,0,0.4,0c0.2-0.1,0.3-0.3,0.3-0.6
		c0-0.2,0-0.4-0.1-0.6c0-4-0.1-6.3-0.4-6.9c-0.1-0.2-0.4-0.4-0.9-0.6c-0.5-0.2-1-0.3-1.3-0.3c-0.3,0-0.6,0.2-0.9,0.7
		c-0.1,0.1-0.3,0.5-0.7,1.3c-0.1-0.6-0.2-0.9-0.3-1c-0.1-0.2-0.4-0.4-0.9-0.6c-0.5-0.2-1-0.4-1.3-0.4c-0.3,0-0.6,0.2-1,0.7
		c-0.3,0.4-0.5,0.8-0.6,1.3c0-0.1-0.1-0.2-0.1-0.3c0,0,0.1-0.2,0.2-0.6c0.1-0.2,0.1-0.4,0-0.5c-0.1-0.2-0.4-0.3-1-0.5
		c-0.6-0.1-0.9-0.2-1.1-0.2c-0.2,0.1-0.4,0.2-0.5,0.4c0,0.1,0,0.2,0.1,0.3c0.1,0.1,0.1,0.2,0.1,0.3v6.8c0,0-0.1,0.1-0.2,0.3
		c-0.1,0.1-0.2,0.3-0.2,0.3c0,0.1,0,0.2,0.1,0.3c0.1,0.1,0.3,0.2,0.8,0.3S42.3,38.5,42.6,38.5z"/>
	<path d="M58.6,37.2c0.4-1,0.7-2.1,0.7-3.4c0-1-0.1-1.8-0.4-2.5c-0.3-0.8-0.7-1.3-1.2-1.5c-0.6-0.1-1.1-0.2-1.4-0.2
		c-0.6-0.1-1-0.2-1.2-0.2c-0.2,0-0.3,0-0.4,0.1c-0.6,0.4-1.1,1-1.5,1.9c-0.3,0.8-0.5,1.7-0.5,2.7c0,1,0.2,1.9,0.5,2.6
		c0.3,0.8,0.8,1.3,1.3,1.4c0.3,0.1,0.7,0.2,1.1,0.2c0.5,0.1,1,0.2,1.2,0.2C57.5,38.7,58.1,38.3,58.6,37.2z M56.6,36.1
		c-0.2,0.8-0.5,1.1-0.8,1c-0.2-0.1-0.5-0.5-0.6-1.2c-0.2-0.7-0.2-1.4-0.2-2.1c0-0.6,0.1-1.2,0.3-1.8c0.2-0.6,0.5-1,0.7-1
		c0.4,0,0.6,0.4,0.8,1.1c0.1,0.5,0.2,1,0.2,1.5C57,34.6,56.9,35.4,56.6,36.1z"/>
	<path d="M66.6,30.4c-0.1-0.2-0.4-0.4-0.9-0.6c-0.5-0.2-1-0.3-1.3-0.3c-0.3,0-0.6,0.2-1,0.7c-0.3,0.4-0.5,0.8-0.6,1.3
		c0-0.1-0.1-0.2-0.1-0.3c0,0,0.1-0.2,0.2-0.6c0.1-0.2,0.1-0.4,0-0.5c-0.1-0.2-0.4-0.3-1-0.5c-0.6-0.1-0.9-0.2-1.1-0.2
		c-0.2,0.1-0.4,0.2-0.5,0.4c0,0.1,0,0.2,0.1,0.3c0.1,0.1,0.1,0.2,0.1,0.3v6.8c0,0-0.1,0.1-0.2,0.3c-0.1,0.1-0.2,0.3-0.2,0.3
		c0,0.1,0,0.2,0.1,0.3c0.1,0.1,0.3,0.2,0.8,0.3s0.9,0.2,1.2,0.2c0.1,0,0.1,0,0.2,0c0.3-0.1,0.5-0.4,0.5-0.8c0-0.2-0.1-0.3-0.2-0.5
		v-2.7c0-0.5,0.3-1.2,0.8-2.2c0.5-0.9,0.9-1.4,1-1.3c0.1,0,0.1,2,0.1,5.8c0,0.1-0.1,0.3-0.2,0.5c-0.1,0.2-0.2,0.4-0.2,0.5
		c0,0.1,0,0.1,0.1,0.2c0.1,0.1,0.4,0.2,0.8,0.3c0.5,0.1,0.8,0.2,1.2,0.2c0.2,0,0.3,0,0.4,0c0.2-0.1,0.3-0.3,0.3-0.6
		c0-0.2,0-0.4-0.1-0.6C67,33.3,66.9,31,66.6,30.4z"/>
	<path d="M38.4,50.5c-0.6-0.4-1.2-0.7-1.7-1.1c-0.5-0.4-0.8-1-0.8-1.9c0-0.5,0.1-1,0.3-1.4c0.2-0.4,0.4-0.6,0.8-0.6
		c0.1,0,0.1,0.2,0.1,0.6c0,0.2,0,0.6-0.1,1.1s-0.1,0.8-0.1,1c0,0.2,0,0.3,0,0.3c0.2,0.2,0.5,0.4,1.1,0.6c0.5,0.2,0.9,0.2,1.1,0.2
		c0.3,0,0.5-0.3,0.5-0.7c0-0.1,0-0.2-0.1-0.3c-0.1-0.2-0.1-0.3-0.1-0.3c0-0.1,0-0.3,0-0.6c0-0.3,0-0.5,0-0.7c0-0.8-0.1-1.4-0.4-1.8
		c-0.2-0.2-0.4-0.4-0.7-0.5c-0.3-0.1-0.6-0.2-0.9-0.3c-1.1-0.5-1.8-0.7-2-0.6c-0.5,0.1-1,0.6-1.5,1.3c-0.5,0.7-0.7,1.5-0.8,2.2
		c-0.1,0.9,0.2,1.6,0.8,2.3c0.5,0.6,1.3,1.2,2.5,1.8c0.5,0.3,0.8,0.8,0.8,1.7c0,0.4-0.1,0.7-0.2,1c-0.1,0.3-0.3,0.5-0.5,0.5
		c0,0-0.1,0-0.1,0c-0.2-0.1-0.3-0.4-0.4-1c-0.1-0.6-0.2-1-0.2-1c-0.1-0.1-0.3-0.1-0.8-0.2c-0.5-0.1-0.9-0.1-1.2-0.1
		c-0.2,0-0.3,0-0.3,0c-0.1,0-0.2,0.1-0.3,0.3c-0.1,0.1-0.1,0.3-0.1,0.4c0.1,0.2,0.2,0.3,0.3,0.4c0.1,0.2,0.3,0.5,0.5,1.2
		c0.2,0.5,0.4,0.9,0.6,1.1c0.2,0.2,0.4,0.3,0.6,0.3s0.5,0.1,0.7,0.2c0,0,0.3,0.1,0.7,0.2c0.2,0.1,0.5,0.1,0.7,0.1
		c0.8,0,1.5-0.3,2-0.7s0.7-1.1,0.7-1.8c0-0.8-0.1-1.5-0.4-2C39.3,51.3,38.9,50.9,38.4,50.5z"/>
	<path d="M47.8,55.7c0.1-0.1,0.2-0.2,0.2-0.3c0-0.1,0-0.3-0.1-0.5v-5.5c0-0.3-0.2-0.5-0.5-0.8c-0.3-0.2-0.5-0.4-0.8-0.6
		c-0.3-0.2-0.5-0.4-0.8-0.7c-0.3-0.2-0.5-0.4-0.8-0.3c-0.5,0-1.2,0.2-1.9,0.6c-0.4,0.2-0.7,0.4-1.1,0.6c-0.4,0.1-0.6,0.2-0.6,0.2
		c-0.2,0.1-0.3,0.3-0.2,0.6c0,0.1,0.2,0.3,0.6,0.6c0.3,0.3,0.6,0.5,0.7,0.5c0.1,0,0.3,0,0.5-0.1c0.2-0.1,0.3-0.2,0.4-0.3
		c0.2-0.2,0.6-0.4,1.2-0.7c0.6-0.3,0.9-0.4,1-0.3c0.2,0.1,0.2,0.3,0.2,0.6c-1.3,0.6-2.3,1.2-3,1.8c-1,0.8-1.5,1.6-1.7,2.4
		c0,0.1,0,0.2,0,0.2c0,0.2,0.1,0.5,0.3,0.8c0,0,0.3,0.3,0.8,0.9c0.3,0.3,0.5,0.5,0.6,0.6c0.2,0.2,0.5,0.3,0.7,0.3
		c0.4,0,0.8-0.1,1.1-0.4c0.2-0.2,0.4-0.5,0.6-0.9c0.2-0.4,0.4-0.6,0.5-0.7c0,0.3,0,0.4,0,0.5c0,0,0,0.1-0.1,0.1c0,0,0,0.1-0.1,0.2
		c0,0.1-0.1,0.1-0.1,0.2c0,0,0,0.1,0,0.1c0.1,0.3,0.8,0.5,2,0.7C47.6,55.8,47.7,55.8,47.8,55.7z M44.3,53.2
		c-0.7,0.9-1.2,1.3-1.4,1.3c-0.1,0-0.1,0-0.1-0.1c0-0.2,0.1-0.4,0.3-0.7s0.4-0.6,0.6-0.8c0.3-0.3,0.5-0.6,0.8-0.9
		c0.3-0.4,0.7-0.7,1.2-0.8C45.4,51.6,45,52.3,44.3,53.2z"/>
	<path d="M55.7,47.3c-0.4-0.2-0.7-0.2-1.1-0.2c-0.1,0-0.2,0-0.3,0c-0.1,0-0.2,0.2-0.3,0.4c-0.1,0.2-0.1,0.4-0.2,0.6l-1.4,3.6
		l-1.3-3.5C51.1,48,51,47.8,51,47.6c-0.1-0.2-0.2-0.4-0.3-0.5c0,0-0.1,0-0.2,0c-0.3,0-0.7,0.1-1.2,0.4s-0.8,0.5-0.8,0.6
		c0,0.3,0.1,0.5,0.2,0.6c0.2,0.2,0.2,0.3,0.3,0.3l2.4,5.8l-0.5,1.6c0,0.1-0.1,0.2-0.2,0.4c-0.1,0.2-0.2,0.4-0.2,0.5
		c0,0.2,0.1,0.3,0.2,0.4s0.4,0.3,0.8,0.4c0.4,0.1,0.7,0.2,1,0.2c0.1,0,0.1,0,0.2,0c0.2,0,0.3-0.2,0.3-0.5c0-0.2,0-0.4,0.1-0.6
		l2.9-8.3c0-0.1,0.1-0.2,0.3-0.5c0.1-0.2,0.2-0.3,0.2-0.5c0-0.1,0-0.1,0-0.2C56.3,47.6,56,47.5,55.7,47.3z"/>
	<path d="M61.1,51.9c-0.5-0.3-0.9-0.5-1.4-0.8c-0.2-0.1-0.3-0.5-0.3-1c0-0.4,0.1-0.8,0.2-1.2c0.1-0.4,0.3-0.6,0.4-0.6
		c0.1,0,0.2,0.3,0.2,1c0,0.7,0.1,1.1,0.1,1.1c0.1,0.2,0.4,0.3,0.8,0.5c0.4,0.1,0.7,0.2,0.8,0.2c0.3,0,0.4-0.2,0.4-0.5
		c0-0.1,0-0.3-0.1-0.6c0-0.4,0-0.7,0-1.1c0-0.5-0.1-0.8-0.3-1.1c-0.1-0.1-0.3-0.2-0.6-0.3c-0.4-0.1-0.7-0.1-0.8-0.2
		c-1-0.4-1.5-0.6-1.7-0.6c-0.4,0.1-0.7,0.4-1,0.9c-0.3,0.5-0.4,1-0.4,1.6c0,0.8,0.2,1.5,0.5,1.9c0.3,0.3,0.9,0.7,1.8,1.2
		c0.4,0.2,0.6,0.7,0.6,1.4c0,0.6-0.1,0.9-0.3,0.9c-0.1,0-0.2-0.2-0.3-0.7c-0.1-0.5-0.1-0.8-0.2-0.8c0,0-0.3-0.1-0.7-0.2
		c-0.4-0.1-0.8-0.1-1.1-0.1c-0.1,0-0.2,0-0.3,0c-0.2,0.1-0.3,0.2-0.3,0.3c0,0.1,0.1,0.2,0.2,0.5c0.2,0.3,0.3,0.6,0.5,0.8
		c0.2,0.3,0.4,0.6,0.6,0.8c0.1,0.1,0.3,0.2,0.5,0.2s0.4,0.1,0.5,0.1c0,0,0.2,0.1,0.5,0.1c0.2,0,0.4,0.1,0.5,0.1
		c0.6,0,1.1-0.2,1.5-0.5s0.5-0.7,0.5-1.3c0-0.6-0.1-1.1-0.4-1.5C61.9,52.4,61.6,52.2,61.1,51.9z"/>
	<path d="M44.8,71.1C44.1,71,43.8,71,43.9,71c-0.2,0-0.3,0-0.3,0.1c-0.1,0.2-0.3,0.5-0.4,0.9c-0.2,0.5-0.3,0.7-0.2,0.8
		c0.1,0.1,0.3,0.3,0.8,0.5c0.5,0.2,0.8,0.3,1,0.3c0.1,0,0.2-0.2,0.2-0.5c0-0.1,0-0.3,0-0.3c0-0.2,0.1-0.4,0.2-0.7
		c0.1-0.3,0.2-0.4,0.2-0.6C45.4,71.3,45.2,71.2,44.8,71.1z"/>
	<path d="M48.3,71.1C47.7,71,47.4,71,47.5,71c-0.2,0-0.3,0-0.3,0.1c-0.1,0.2-0.3,0.5-0.4,0.9c-0.2,0.5-0.3,0.7-0.2,0.8
		c0.1,0.1,0.3,0.3,0.8,0.5c0.5,0.2,0.8,0.3,1,0.3c0.1,0,0.2-0.2,0.2-0.5c0-0.1,0-0.3,0-0.3c0-0.2,0.1-0.4,0.2-0.7
		c0.1-0.3,0.2-0.4,0.2-0.6C48.9,71.3,48.7,71.2,48.3,71.1z"/>
	<path d="M51.9,71.1C51.3,71,51,71,51,71c-0.2,0-0.3,0-0.3,0.1c-0.1,0.2-0.3,0.5-0.4,0.9c-0.2,0.5-0.3,0.7-0.2,0.8
		c0.1,0.1,0.3,0.3,0.8,0.5c0.5,0.2,0.8,0.3,1,0.3c0.1,0,0.2-0.2,0.2-0.5c0-0.1,0-0.3,0-0.3c0-0.2,0.1-0.4,0.2-0.7
		c0.1-0.3,0.2-0.4,0.2-0.6C52.5,71.3,52.3,71.2,51.9,71.1z"/>
</g>
</svg>
