<?xml version="1.0" encoding="utf-8"?>
<!-- Generator: Adobe Illustrator 19.2.1, SVG Export Plug-In . SVG Version: 6.00 Build 0)  -->
<svg version="1.2" baseProfile="tiny" id="Layer_1" xmlns="http://www.w3.org/2000/svg" xmlns:xlink="http://www.w3.org/1999/xlink"
	 x="0px" y="0px" viewBox="0 0 100 100" xml:space="preserve">
<g>
	<circle cx="47.2" cy="73.4" r="1"/>
	<circle cx="43.6" cy="69" r="1"/>
	<circle cx="42.6" cy="63.4" r="1"/>
	<circle cx="48.3" cy="57.9" r="1"/>
	<circle cx="45.1" cy="51.4" r="1"/>
	<path d="M74,34.3c-12.2,0-22.2,2.2-22.2,4.8c0,0.2,0,0.3,0.1,0.5c0.1,0.6,0.3,1.2,0.4,1.9c-2.7-0.3-5.9-0.5-9.3-0.5
		c-9.5,0-17.3,1.5-18.3,3.3c-0.9-5.9-1.6-10.7-2-13.1c3.9,2,11.5,3.7,20.3,3.7c8.1,0,15.3-1.4,19.3-3.2c-0.2,1-0.5,2.1-0.7,3.4
		c0.9-0.1,1.9-0.3,2.9-0.4c0.4-1.8,0.8-3.4,1.2-4.8c2.2-0.2,4.7-0.4,7.4-0.4c8.7,0,15.8,1.4,15.8,3.2c0,0.8-1.5,1.5-3.9,2.1
		c0.8,0.1,1.6,0.2,2.3,0.3c0.6-0.2,1.1-0.4,1.5-0.7c0,0.3-0.1,0.6-0.1,0.9c0.8,0.2,1.6,0.3,2.4,0.5c1.3-7.3,2.6-14,3.9-18.7
		c0.1-0.2,0.2-0.4,0.2-0.6c0-2.8-10.3-5-23-5s-23,2.2-23,5c0,0.2,0,0.4,0.1,0.5c0.4,1.8,0.9,4.1,1.4,6.8c-1-0.1-2-0.1-3-0.2
		c0,0,0,0,0,0c1-5.3,2-10.1,3-13.6c0.1-0.2,0.2-0.4,0.2-0.6c0-2.8-10.3-5-23-5S5,6.7,5,9.5C5,9.7,5,9.8,5.1,10
		c3.1,13.2,8.5,56.1,8.5,56.1c1.8,1.8,6,4.9,13.3,5.5c1.1,7.9,1.8,13.7,1.8,13.7c2,2,6.8,5.5,15.4,5.5c7.3,0,10.5-3.3,12.3-5
		c0.3-2.6,0.7-6.2,1.3-10.3c1.4,10.2,2.5,18.3,2.5,18.3c1.9,1.9,6.6,5.3,14.9,5.3c7,0,10.2-3.1,11.8-4.8c1.2-11.4,5.6-41.5,9.1-54.6
		c0.1-0.2,0.2-0.4,0.2-0.6C96.2,36.4,86.2,34.3,74,34.3z M44,41.5c3.1,0,6,0.2,8.5,0.5c0.3,1.5,0.6,3.3,1,5.2
		c-2.6,0.4-5.9,0.6-9.5,0.6c-8.7,0-15.8-1.4-15.8-3.2C28.1,43,35.2,41.5,44,41.5z M13,25.6c0-1.8,7.1-3.2,15.8-3.2
		c5.1,0,9.5,0.5,12.4,1.2c0,0,0,0,0,0c-11.3,0.2-20.4,2.2-21.1,4.6c0,0,0,0,0,0C15.9,27.7,13,26.7,13,25.6z M73.4,12.2
		c10.9,0,19.7,1.9,19.7,4.3c0,2.4-8.8,4.3-19.7,4.3c-10.9,0-19.7-1.9-19.7-4.3C53.6,14.2,62.5,12.2,73.4,12.2z M72.3,22.8
		c8.1,0,15.3-1.4,19.3-3.2c-0.7,2.9-1.4,7-2.2,11.7c-2.7-1.4-9.3-2.4-17.2-2.4c-2.2,0-4.4,0.1-6.4,0.2C66,29,66,28.8,66,28.6
		c0-2-5.5-3.7-13.3-4.5c-0.3-2.1-0.6-3.8-0.8-4.9C55.8,21.1,63.4,22.8,72.3,22.8z M63.9,28.6c0,2.4-8.8,4.3-19.7,4.3
		S24.4,31,24.4,28.6c0-2.4,8.8-4.3,19.7-4.3S63.9,26.2,63.9,28.6z M29.1,5.2c10.9,0,19.7,1.9,19.7,4.3c0,2.4-8.8,4.3-19.7,4.3
		c-10.9,0-19.7-1.9-19.7-4.3C9.3,7.1,18.2,5.2,29.1,5.2z M7.7,12.1c3.9,2,11.5,3.7,20.3,3.7c8.1,0,15.3-1.4,19.3-3.2
		c-0.7,2.7-1.4,6.6-2.1,11.1c-0.6,0-1.1,0-1.7,0c-3.3-1-9-1.7-15.6-1.7c-9.5,0-17.3,1.5-18.3,3.3C8.8,19.3,8,14.5,7.7,12.1z
		 M9.8,26.2c1,1.3,5.1,2.8,10.5,3.5c1.4,6.4,3.3,18.8,5,30.3c-4.5-0.4-8.2-1.9-11-3.6C13,47.6,11.3,35.7,9.8,26.2z M15.5,65.2
		c-0.2-1.5-0.5-3.4-0.8-5.6c2.6,1.8,6.7,2.6,10.9,2.6c0.3,2.4,0.7,4.7,1,6.9C20.1,68.6,15.7,66.2,15.5,65.2z M54.8,84.9
		c-3,3-4.2,3.5-10.6,3.5c-7.8,0-13.4-3-13.6-4.1c-0.2-1.5-0.5-3.4-0.8-5.6c6,4,19.7,3.2,24.1-1c-11.2,3.4-19.3,1.1-24.5-2.1
		c-1.3-8.8-3-20.7-4.5-30.2c1.5,1.9,9,4,18.1,4c3.9,0,7.6-0.4,10.6-1c1,5.9,2.1,13.1,3.1,20.1C55.6,77.7,54.8,84.9,54.8,84.9z
		 M85.3,93.4c-2.9,2.9-4,3.4-10.2,3.4c-7.6,0-12.9-2.9-13.1-3.9c-0.2-1.5-0.4-3.3-0.7-5.4c5.8,3.9,19,3.1,23.3-1
		c-10.8,3.3-18.7,1.1-23.7-2c-1.2-8.5-2.9-20-4.3-29.2c1.4,1.8,8.7,3.9,17.5,3.9c7.1,0,13.3-1.3,16.1-2.8
		C87.6,72.4,85.3,93.4,85.3,93.4z M74.8,57.7c-8.4,0-15.3-1.4-15.3-3.1c0-1.7,6.8-3.1,15.3-3.1s15.3,1.4,15.3,3.1
		C90.1,56.3,83.3,57.7,74.8,57.7z M90.6,53.4c-2.6-1.3-9-2.3-16.6-2.3c-9.2,0-16.7,1.4-17.7,3.2c-0.9-5.7-1.6-10.3-1.9-12.7
		c3.7,1.9,11.1,3.5,19.6,3.5c7.8,0,14.7-1.4,18.7-3.1C92,44.8,91.3,48.8,90.6,53.4z M75.1,43.2c-10.5,0-19.1-1.8-19.1-4.1
		c0-2.3,8.5-4.1,19.1-4.1s19,1.8,19,4.1C94.1,41.4,85.6,43.2,75.1,43.2z"/>
	<circle cx="67.7" cy="82.4" r="1"/>
	<circle cx="69.9" cy="78.1" r="1"/>
	<circle cx="67.7" cy="71.7" r="1"/>
	<circle cx="72" cy="67.4" r="1"/>
	<circle cx="67.7" cy="61" r="1"/>
</g>
</svg>
