<?xml version="1.0" encoding="utf-8"?>
<!-- Generator: Adobe Illustrator 19.2.1, SVG Export Plug-In . SVG Version: 6.00 Build 0)  -->
<svg version="1.2" baseProfile="tiny" id="Layer_1" xmlns="http://www.w3.org/2000/svg" xmlns:xlink="http://www.w3.org/1999/xlink"
	 x="0px" y="0px" viewBox="0 0 100 100" xml:space="preserve">
<g>
	<path d="M43.1,80.2c-0.3-3.3-1.2-6.8-2.3-10.2c3.5,1.1,6.9,2,10.3,2.3c6.7,0.7,11.9-0.9,15.9-4.9c4-4,5.6-9.2,4.9-15.9
		c-0.3-3.3-1.2-6.8-2.3-10.3c3.5,1.1,6.9,1.9,10.2,2.3c6.7,0.7,11.9-0.9,15.9-4.9l3.1-3.1c1-1,1-2.6,0-3.5l-1.3-1.3
		c-1-1-2.6-1-3.5,0l-1.3,1.3L68.2,7.1l1.3-1.3c1-1,1-2.6,0-3.5L68.2,1c-1-1-2.6-1-3.5,0l-3.1,3.1c-4,4-5.6,9.2-4.9,15.9
		c0.3,3.3,1.2,6.8,2.3,10.2c-3.5-1.1-6.9-2-10.3-2.3c-6.7-0.7-11.9,0.9-15.9,4.9c-4,4-5.6,9.2-4.9,15.9c0.3,3.3,1.2,6.8,2.3,10.3
		c-3.5-1.1-6.9-1.9-10.2-2.3c-6.7-0.7-11.9,0.9-15.9,4.9L0.7,65c-1,1-1,2.6,0,3.5L2,69.8c1,1,2.6,1,3.5,0l1.3-1.3l24.6,24.6
		l-1.3,1.3c-1,1-1,2.6,0,3.5l1.3,1.3c1,1,2.6,1,3.5,0l3.1-3.1C42.2,92.1,43.8,86.9,43.1,80.2z M64.7,11.3l24,24
		c-1.2,0.6-2.5,1-4.1,1.2L63.4,15.4C63.6,13.9,64,12.5,64.7,11.3z M64.3,24L76,35.7C73.1,35,70,34,67,33C66,30,65,26.9,64.3,24z
		 M61.6,38.4c1.1,3.2,2.1,6.3,2.8,9.4L52.3,35.6C55.3,36.3,58.5,37.3,61.6,38.4z M43.8,34.8l21.4,21.4c-0.2,1.5-0.6,2.8-1.3,4
		L39.8,36.1C40.9,35.4,42.3,35,43.8,34.8z M35.9,40L60,64.1c-1.1,0.6-2.4,1-3.8,1.3L34.6,43.8C34.8,42.4,35.2,41.1,35.9,40z
		 M35.3,52.2l12.6,12.6c-3.1-0.7-6.4-1.8-9.7-2.9C37,58.6,35.9,55.3,35.3,52.2z M32.8,67.2c1,3,2,6.1,2.7,9L23.8,64.5
		C26.7,65.2,29.7,66.2,32.8,67.2z M11.1,64.9c1.2-0.6,2.5-1,4.1-1.2l21.2,21.2c-0.2,1.5-0.6,2.9-1.2,4.1L11.1,64.9z"/>
</g>
</svg>
