<?xml version="1.0" encoding="utf-8"?>
<!-- Generator: Adobe Illustrator 19.2.1, SVG Export Plug-In . SVG Version: 6.00 Build 0)  -->
<svg version="1.2" baseProfile="tiny" id="Layer_1" xmlns="http://www.w3.org/2000/svg" xmlns:xlink="http://www.w3.org/1999/xlink"
	 x="0px" y="0px" viewBox="0 0 100 100" xml:space="preserve">
<g>
	<path d="M77.2,7.2C54.4-4.9,23.6,0,8.3,18S-0.8,60.4,22,72.6c0.5,0.2,0.9,0.4,1.4,0.7c0.1,9.7,0.4,19.3,0.9,20.3
		c0.9,1.7,10.1,4.5,13.3,4.5c3.1,0,6.6-0.7,10.5,0.3c1.7,0.2,2.2-0.8,12,1.7c-0.3-3.5,12.9-3.5,15-7c1.1-1.8,0.9-10.3,0.5-19.5
		c5.9-2.9,11.2-6.8,15.3-11.6C105.9,43.8,99.9,19.3,77.2,7.2z M87.9,61.5c-3.4,4.1-7.7,7.4-12.5,9.9c-0.4-7.4-1-13.5-1.2-12.7
		c0,0-0.1,6.3-0.2,13.5c0,0.7,0,1.4,0,2.1c-0.2,8.6-0.3,15.8-0.4,17.1c-0.2,2.5-7.8,4.7-12,4.8c0,0,0-11.2-0.4-17.9
		c0-0.7-0.1-1.3-0.1-1.8c0-0.4-0.1-0.8-0.1-1.1c0,0,0,0.4-0.1,1.1c0,0.5-0.1,1.1-0.1,1.9c-0.2,5-0.7,14.9-1.3,20.2
		c0,0-6.3-1.7-9.4-2.7c0,0,0.2-9-0.4-16.5c-0.1-0.7-0.1-1.3-0.2-1.9c-0.1-0.6-0.2-1.2-0.3-1.7c0,0,0,0.7-0.1,1.7
		c0,0.5,0,1.2-0.1,1.9c-0.2,4.8-0.4,13.2-0.4,17.3c0,0-5.9-0.2-9.9-0.5c0,0-0.6-7.5-1.7-18.2c-0.1-0.6-0.1-1.1-0.2-1.7
		c0,0.4,0,1,0,1.6c0.1,4.8,0.5,13.7,0.5,18.5c0,0-11.2-2-11.2-5.2c0-32.5-2.8-31.3-2.8-31.3s0,4.6,0.1,10.4
		C4,59.2-0.9,37.7,12.6,21.6c13.8-16.5,42-20.9,62.8-9.9S101.7,45,87.9,61.5z"/>
	<path d="M46.1,43.2c-1.8-7.4-7.3-1.7-18.5-9.7c-9.9-7.1-8.3,12.2-4.7,14.5c3.7,2.3,14,2.8,17.8,3.3C44.3,51.8,47.3,48,46.1,43.2z"
		/>
	<path d="M70.2,33.5c-7.8,5.5-16.7,2.3-18.5,9.7c-1.2,4.8,1.8,8.6,5.3,8.2c4.9-0.7,14.2-1,17.8-3.3C78.5,45.7,80.2,26.5,70.2,33.5z"
		/>
	<path d="M48.9,62.3c-0.3,1-1-3.7-1.3-7.2c-1,1.7-5.2,8.7-3,9c2.2,0.3,7,0.3,8.2,0c1.2-0.3-3.5-9-3.5-9
		C49.4,57.2,49.3,61.3,48.9,62.3z"/>
	<path d="M33.4,21.3L33.4,21.3L33.4,21.3l2.9-1.8l0.9-3.6l4.2-1.5l-0.1,2l-1.2,0L39.7,19l-1.4,0.4l1.7-0.1l0.5-2.4l0.7,0l-0.1,1.5
		l2.3,0.3L41.5,18l0.3-3.8c0,0,1.4-0.2,1.7-0.2c0,0,1.1,4.5,2.3,9.6L45,25l-2-0.1l2.2,0.4l0.7-1.2c0.7,3,1.5,6.1,2.1,8.6l-1.2,1
		l0.1,2.7l-1.7,0.9l2.2-0.3l-0.3-2.8l0.9-0.8c0.3,1.2,0.6,2.2,0.8,2.9c-0.1,1.2-0.3,3.4-0.3,3.4l-1.2,2.8l1.8-2.8l0.2-2.3
		c0-0.1,0.1-0.4,0.2-0.6l0.4,0.7l-0.1,1.4l0.5-1.8l-0.6-0.9c0.8-2.9,2.4-9.8,2.3-12c0.9,0.1,3.7,0.2,6.5-0.5l-0.2,1.6l-1.3,1.5
		l-0.5,5.2l-2.3-0.5l0-2.1l-0.3,2.5l2.8,0.5l0.7,1.9l-1.5,0l-0.5,1.5l0.8-1.2l1.8,0l-1-2.6l0.2-2.1l0.8,0.8l-0.2,1l1.2,0.9l-0.7-1
		l0.1-1.3L57.2,29l0.2-2.1l0.4,0.5v0.8l0.3-1.1l-0.5-0.5l1-1.2l1,0.5l0.4,1h1l1-1.1l-1.3,0.8h-0.5l-0.2-0.8l0.4-0.4l0.5,0.5l-0.5-1
		l-0.7,0.6L58.8,25l0.3-1.5c0.2-0.1,0.4-0.1,0.6-0.2H60l0.6,0.7h1.3l2.3,0.7l-2.3-1.1l-1.1,0.1l-0.5-0.5c2-0.7,3.8-2,4.4-4l1.8,1.2
		l0.1,0.9l0.2-1l-1.9-1.3l0-0.4c0-0.3,0.1-0.6,0.1-0.9c0-0.3,0-0.5-0.1-0.7l2,0.2l-2.1-0.6c-0.8-2.5-4.9-3.5-9.4-3.7l1.7-1.8H58
		l-0.9-0.4l-0.8,0.6L54.8,10l0.5-0.9L56,8.4l-0.9,0.4l-0.6,1.1l-2.1,0.8l-0.8-0.5l0.7,0.8l2.2-0.8l1.7,1.2l-1.3,1.3
		c-1.4,0-2.8,0-4.1,0l0.1-0.4l-1-0.6l0.7-2.7l-1,2.9l-0.9-0.1l-1-1.4l0.8,1.8l1.5-0.1l-0.3,0.5c-3.2,0.2-5.8,0.5-6.3,0.5
		c-0.4,0-3,0.9-5.2,1.7l-0.9-0.8l0.7-1.6l-2.6-2.4l2.1,2.6l-0.7,1.6l0.5,0.9c-1.1,0.4-2,0.7-2.3,0.8l-1.8-2.3l0.6,1l-0.9,0.2
		l-1.7-0.2l1.8,0.7l1.1-0.2l0.8,1.4l1.8-0.9l-1,3.3l-2.5,1.8l-0.9-0.8l1.6-1.4l-2.2,1.4l1,1.1l0,0l-1.9,1.4L33.4,21.3z"/>
	<polygon points="34.5,17.5 33.2,17.8 35,17.9 34.9,16.9 34.6,16.3 	"/>
</g>
</svg>
