<?xml version="1.0" encoding="utf-8"?>
<!-- Generator: Adobe Illustrator 19.2.1, SVG Export Plug-In . SVG Version: 6.00 Build 0)  -->
<svg version="1.2" baseProfile="tiny" id="Layer_1" xmlns="http://www.w3.org/2000/svg" xmlns:xlink="http://www.w3.org/1999/xlink"
	 x="0px" y="0px" viewBox="0 0 100 100" xml:space="preserve">
<g>
	<path d="M16.6,34.8c0.5,2.2-0.2,4.9-1.7,6.9C14.6,39.6,14.7,36.8,16.6,34.8z M82.9,25c-14.2-7.6-30.2,1.7-43.2,4.7
		c-7.1,1.6-12-2.5-17-2.6c-3.2,0.6-6.2,3.8-7,6.2c-3,2.6-2.6,6.8-2.1,9c-0.4,0.9-6.4,5.7-7.3,6C5.3,48.7,1,56.7,1,59.7
		c0,3,2.1,11.7,2.4,12.8c0.4,1.1,1.7,2.8,3.4,1.7c3.8,5.8,14.5,7.2,21.7,7.2s26.8-6.8,28.8-6.8s10.9,0,15.3-0.4s9-1.5,18.7-7.2
		c6.8-4.2,9.2-11.3,9.2-11.3c-3.4,4.4-3.4,5.1-12.2,10.3c-9,5.3-13.5,6.4-17.6,6.7c-4.1,0.4-12.4,0.4-14.4,0.4
		c-2,0-20.4,6.4-27.1,6.4c-6.2,0-16.6-1.1-20.9-5.6c2.6-0.7,4.9-0.5,6.2,1.3c1.3,1.9,11.7,6.8,22.9-0.6
		c11.2-7.3,26.8-11.5,33.2-11.8c6.4-0.3,14.3-2.5,18.2-4.5c0,0-8.4,3.7-17.7,3.8c-9.3,0.1-25.9,6.2-34.5,11.8
		c-8.6,5.6-18.9,3.5-20.7,0.6c-1.8-2.9-3.8-5.7-4.2-5.4c0,0-1,1.3-4.4,3.6c0,0,0,0,0,0c-1.6,1.1-2.7-0.9-3-2
		C3.9,69.6,2.3,62,2.3,59.2c0-1.4,1.2-3.9,2.6-6.1c0.4,0.6,1.2,1.9,2.3,3.5c4-2.1,5.4-0.7,6.6,0.9c0.8-0.5,7.4-5,8.5-5.7
		c1-0.7,2.7-0.4,4.4-0.1c1.7,0.3,2.8,3.2,3,4.8c0.2,1.6-1,5.2-2.8,7.3c0,0,4.3-3,3.9-7.2c-0.5-4.1-2.4-5.3-3.7-5.9
		c-1.2-0.7-4.3-0.2-5.2,0.3c-0.8,0.5-1.2,1.6-7.9,5.6c-2-2.4-4.6-1.9-6.2-0.8c0,0-1.7-1.5-2.4-3.4c1.3-2,2.6-3.7,3-3.9
		C9.1,48.1,14,44.3,15,43c4.7-4,7.5-6.5,10-8.8c2.1-1.7,3.2-1.9,4.6-2c-1.1-0.6-3.1,0.1-4.1,0.9c-3.7,3-6.8,5.6-8.7,7.1
		c0.8-2.1,0.9-4.8,0.4-6.1c0.7-2.3,3.5-5.3,6.6-5.9c4.3-0.1,8.4,2.7,14.1,2.3c2.8,0.2,3.8,0,9.3,1c0,0-4.2,2.8-5.3,5.6
		C51.7,25.8,64.6,29,67.4,29c-4.8-1-11.8-1.6-19.3,2.1c-2.6-0.7-5.3-0.9-7.4-0.9c6.2-1.1,11.2-3,15.4-4.4
		C60.3,24.5,71.1,21.2,82.9,25z"/>
	<path d="M22.3,53.2c-0.3,1.5-0.3,2.8,1.2,4c2.4-1.3,2.4-2.7,2.2-3.5C25.4,52.9,22.7,51.9,22.3,53.2z"/>
	<path d="M58.9,38.2c-5.9,0.2-8.7,5.5-8.1,9.6c0.6,4.1,4.2,5.6,7,5.6c2.7,0,6.2-3.6,6.2-8S62.1,38.1,58.9,38.2z M57.2,52.5
		c-2.3,0-5.5-1.2-6-4.8c-0.4-3.1,1.3-7,5.2-8c-1.1,3.2-1.6,9.6,0.4,11.8c3.7-4.2,3.2-7.2-0.3-11.9c0.5-0.1,1-0.2,1.6-0.2
		c2.7-0.1,4.4,2.3,4.4,6.1C62.6,49.4,59.6,52.5,57.2,52.5z"/>
</g>
</svg>
