<?xml version="1.0" encoding="utf-8"?>
<!-- Generator: Adobe Illustrator 19.2.1, SVG Export Plug-In . SVG Version: 6.00 Build 0)  -->
<svg version="1.2" baseProfile="tiny" id="Layer_1" xmlns="http://www.w3.org/2000/svg" xmlns:xlink="http://www.w3.org/1999/xlink"
	 x="0px" y="0px" viewBox="0 0 100 100" xml:space="preserve">
<g>
	<path d="M77.2,9C54.4-6.3,23.6-0.1,8.3,22.6C-7,45.4-0.8,76.2,22,91.4c2.3,1.5,4.6,2.8,6.8,3.9c1.3,0.7,2.3,1,4.2,1.8
		c20.8,7.5,44.9,0,57.8-19.2C105.9,55.2,99.9,24.3,77.2,9z M87.9,77.5c-13.8,20.8-42,26.4-62.8,12.5C4.3,76.2-1.3,48,12.6,27.2
		c13.8-20.8,42-26.4,62.8-12.5S101.7,56.6,87.9,77.5z"/>
	<path d="M40.4,58.2c0-6.4-3.1-11.5-7-11.5s-7,5.1-7,11.5c0,6.4,3.1,11.5,7,11.5S40.4,64.6,40.4,58.2z M28.4,59c0-5,2.4-9,5.5-9
		c3,0,5.5,4,5.5,9c0,1.6-0.3,3.1-0.7,4.4c-2.6-1.9-5.6-0.8-5.7,4.5C30.4,67.1,28.4,63.4,28.4,59z"/>
	<path d="M38.8,37.2c-11-8.1-15.4,0.6-15.8,11.8C26.2,35.1,31.1,36,38.8,37.2z"/>
	<path d="M67.8,46.8c-3.8,0-7,5.1-7,11.5c0,6.4,3.1,11.5,7,11.5s7-5.1,7-11.5C74.7,51.9,71.6,46.8,67.8,46.8z M68.2,67.9
		c-0.1-5.3-3.1-6.4-5.7-4.5c-0.4-1.3-0.7-2.8-0.7-4.4c0-5,2.4-9,5.5-9c3,0,5.5,4,5.5,9C72.7,63.4,70.8,67.1,68.2,67.9z"/>
	<path d="M62.4,37.2C70.1,36,75,35.1,78.1,49C77.7,37.9,73.4,29.1,62.4,37.2z"/>
	<path d="M64.7,82.2c0,0-0.1,0-0.2,0h-1.1v-1.4H61v1.4h-1.2v-1.4h-2.4v1.4h-1.2v-1.4h-2.4v1.4h-1.2v-1.4h-2.4v1.4h-1.2v-1.4h-2.4
		v1.4h-1.2v-1.4h-2.4v1.4h-1.2v-1.4h-2.4v1.4H38v-1.4h-2.4v3.6H38v-1.1h1.2v1.1h2.4v-1.1h1.2v1.1h2.4v-1.1h1.2v1.1h2.4v-1.1h1.2v1.1
		h2.4v-1.1h1.2v1.1h2.4v-1.1h1.2v1.1h2.4v-1.1H61v1.1h2.4v-1.1h0.5c0,0.1,0,0.2,0,0.2c0.6,1.8,4.4,4.6,5.4,4.6s1.9-2.8,1.3-3.6
		S68.2,82.9,64.7,82.2z M69.9,86.3c-0.6,0.7-0.7,0.9-2,0.3c0.7-0.7,1.3-1.8,1.6-2.2C70.2,84.9,70.5,85.7,69.9,86.3z"/>
</g>
</svg>
