<?xml version="1.0" encoding="utf-8"?>
<!-- Generator: Adobe Illustrator 19.2.1, SVG Export Plug-In . SVG Version: 6.00 Build 0)  -->
<svg version="1.2" baseProfile="tiny" id="Layer_1" xmlns="http://www.w3.org/2000/svg" xmlns:xlink="http://www.w3.org/1999/xlink"
	 x="0px" y="0px" viewBox="0 0 100 100" xml:space="preserve">
<g>
	<path d="M33.1,20.3c0.2,0.1,0.5,0.1,0.8,0.1c0.3,0.9,0.7,1.9,0.7,1.9c1.3,2.6,3.5,1.9,4.3,1.6c0.6-0.3,1.8-1.8,1.4-4.4
		c0.4-0.1,0.7-0.3,1.1-0.5c0,0-1-5.2-1.7-7.3c0,0-0.1,0-0.1-0.1c0.5-0.2,1.1-0.3,1.6-0.5C37,11.7,33,13.3,30,14.9c0,0,0,0,0.6,0.8
		c0,0,0.8-0.4,2-1.1C32.4,16.2,32.4,18.7,33.1,20.3z M38.2,23.8c-1.2,0.2-2,0.2-2.9-1.8c0,0-0.4-0.9-0.6-1.6c0.6,0,1.3,0,1.9-0.1
		c0.1,0.3,0.5,0.5,1,0.4c0.7-0.3,1-0.6,1-0.8c0.3-0.1,0.5-0.1,0.8-0.2C39.9,21.8,40,23.1,38.2,23.8z M39.2,11.8
		C39.1,11.8,39.1,11.8,39.2,11.8c0,0.1,1.3,5.2,1,6.7c-1.8,0.6-3.8,1.1-6.5,0.6c0,0-0.5-2.7-0.6-4.7C34.7,13.6,36.9,12.6,39.2,11.8z
		"/>
	<path d="M50.4,19c0.3,0.2,0.7,0.3,1,0.4c-0.4,2.6,0.9,4.1,1.5,4.4c0.3-0.2,1.6-1,4.3-1.6c0,0,0.4-1,0.7-1.8c0.3,0,0.6-0.1,0.8-0.1
		c0.9-2,0.5-4-0.1-5.2c0,1.8-0.6,4-0.6,4c-2.7,0.5-4.7-0.1-6.5-0.6c-0.2-1.4,0.6-5.6,0.6-5.6c0,0,0-0.1,0-0.1c3.2-0.4,6,1,9.5,2.9
		c-5.8-5.2-10.5-4.5-10.5-4.5c-0.6,0.8-0.6,0.8-0.6,0.8c0.3,0.2,0.7,0.4,1,0.5c-0.1,0-0.1,0-0.1,0C50.8,14.5,50.4,19,50.4,19z
		 M51.9,19.6c0.2,0.1,0.5,0.2,0.8,0.2c0,0.3,0.3,0.7,0.9,0.8c0.8-0.1,1.1-0.1,1.1-0.4c0.9,0.1,1.8,0.2,2.6,0.2
		c-0.2,0.7-0.6,1.6-0.6,1.6c-2.2,0.5-3.3,1.2-3.6,1.3C52.6,23.1,51.4,21.8,51.9,19.6z"/>
	<path d="M53.9,83.9c-4.8,4.2-7.2,10.1-7.1,16.1h41.7c0.1-5-1.6-10.1-5.2-14.1C75.7,77.2,62.5,76.3,53.9,83.9z"/>
	<path d="M40.4,84.6c-0.3-2.1-0.6-4.2-0.9-6.1c0.7,0.9,4.3,1.9,8.6,1.9c0.1,0,0.2,0,0.4,0c0.2,3.2,0.3,5.8,0.4,7.1
		c0.4-0.7,0.9-1.3,1.4-1.9c0-0.3,0-0.6,0-0.9c0.1,0.1,0.2,0.2,0.4,0.2c0.3,0,0.5-0.2,0.5-0.5s-0.2-0.5-0.5-0.5
		c-0.2,0-0.3,0.1-0.4,0.2c-0.1-1.1-0.1-2.5-0.2-3.9c2.7-0.2,4.9-0.7,6.1-1.3c-0.1,0.6-0.2,1.1-0.3,1.7c0.4-0.3,0.8-0.5,1.3-0.8
		c0.3-2,0.7-3.9,1.1-5.6c0.1,0,0.1,0,0.2,0c0.1,1.7,0.2,3.3,0.2,4.8c0.5-0.2,0.9-0.4,1.4-0.6c-0.1-1.3-0.1-2.6-0.2-4.1
		c0.7,0.1,1.4,0.1,2.2,0.1c2.8,0,5.3-0.4,6.9-1c0-0.2,0-0.3,0-0.5C67.4,73.7,65,74,62.3,74c-0.9,0-1.8,0-2.7-0.1
		c0-0.9-0.1-1.9-0.1-2.8c0.9-0.1,1.8-0.1,2.8-0.1c2.7,0,5,0.3,6.4,0.7c0-0.1,0-0.2,0-0.3c-1.6-0.4-4-0.7-6.8-0.7
		c-0.8,0-1.6,0-2.4,0.1c-0.1-1-0.1-2.1-0.2-3.1c0.8,0.1,1.7,0.1,2.6,0.1c2.8,0,5.4-0.4,7.3-0.9c0.1-0.2,0.1-0.5,0.2-0.7
		c-1.7,0.4-4.2,0.7-7,0.7c-1.1,0-2.2,0-3.1-0.1c-0.1-1.3-0.1-2.6-0.2-3.8c1-0.1,2.2-0.1,3.3-0.1c3.3,0,6.1,0.4,7.8,0.9
		c0-0.1,0.1-0.2,0.1-0.4c-0.3-0.1-0.6-0.1-0.9-0.2c0,0,0,0,0,0c0.5-3,1.1-5.7,1.6-7.7c0-0.1,0.1-0.2,0.1-0.3c0-1.1-3.2-2-7.6-2.3
		c-0.3-4.5-0.7-9.1-0.8-10.6c1.5-1.3,2.8-2.8,4-4.6c7.4-11.1,4.4-26.2-6.7-33.6s-26.1-4.4-33.5,6.7c-6.8,10.2-4.9,23.7,4.1,31.6
		c0,0.2,0,0.3,0,0.4c0,0-0.2,4-0.5,9.2c-5.3,0.2-9.4,1.2-9.4,2.4c0,0.1,0,0.2,0.1,0.3c1.3,5.5,3.4,21.4,4,25.9
		c0.3,0,0.6-0.1,0.9-0.1c-0.1-0.5-0.2-1.1-0.2-1.8c1.7,1.2,4.8,1.5,7.4,1.1c0.1,0.5,0.1,1,0.2,1.4c0.3,0.1,0.6,0.2,0.9,0.3
		c-0.6-3.8-1.2-8.3-1.8-11.9c0.5,0.6,2.4,1.3,5,1.7c0,0.1,0.1,0.3,0.1,0.4c-0.2,4.6-0.4,8.7-0.6,10.9c-7-3.4-15.6-2.5-21.7,2.9
		c-4.4,3.8-6.6,9.2-6.7,14.6H45c0-2.7,0.4-5.4,1.4-7.9c-0.8-1.7-1.8-3.3-3.1-4.8C42.4,86.3,41.4,85.4,40.4,84.6z M64.3,62.5
		c0-0.3,0-0.6-0.1-0.9c2.3,0.3,3.9,0.7,4,1.3C67,62.7,65.7,62.6,64.3,62.5z M68.4,62.3c-0.8-0.4-2.3-0.7-4.2-0.9
		c-0.1-0.9-0.1-2.1-0.2-3.4c2.3-0.3,4.2-0.8,5.5-1.3C69.1,58,68.8,60,68.4,62.3z M70.2,55.1c0,0.9-2.6,1.7-6.3,1.9
		c-0.1-1.2-0.2-2.6-0.3-3.9C67.4,53.4,70.2,54.2,70.2,55.1z M39.4,78c-0.4-2.8-0.8-5.1-0.9-6.2c1.8,0.9,5.4,1.7,9.6,1.7
		c0.1,1,0.1,2,0.2,2.9c0,0-0.1,0-0.1,0C43.6,76.4,39.9,77.1,39.4,78z M31.4,60.3c0,0-0.1,0-0.1,0c0-1,0.1-2,0.1-3c0.2,0,0.4,0,0.5,0
		c2.3,0,4.4-0.2,6.2-0.6c0,0.8-0.1,1.6-0.1,2.5C35.2,59.3,32.8,59.8,31.4,60.3z M38,59.6c-0.1,1.2-0.1,2.5-0.2,3.8
		c-3.4-0.3-5.7-1-5.7-1.9C32.1,60.6,34.5,59.9,38,59.6z M32.5,56.4c-0.3,0-0.7,0-1,0c0.1-1.4,0.1-2.8,0.2-4.1c0.3,0,0.5,0,0.8,0
		c2.2,0,4.2,0.2,5.9,0.4c0,1-0.1,2.1-0.2,3.3C36.6,56.2,34.6,56.4,32.5,56.4z M31.9,51.9c-0.1,0-0.2,0-0.3,0c0.2-4,0.3-7.2,0.4-8.5
		c0.4,0.3,0.8,0.6,1.2,0.9c1.1,0.7,2.2,1.3,3.3,1.9c0.6,0.3,1.1,0.5,2.1,0.9c0.1,0,0.3,0.1,0.4,0.1c-0.3,0.7-0.6,1.4-0.5,2
		c0,0-0.1,1.2-0.2,3.2C36.6,52.1,34.3,51.9,31.9,51.9z M47.8,68.5c0.1,1.3,0.1,2.7,0.2,4c-4.9-0.1-8.8-0.9-8.8-2
		C39.2,69.5,43,68.6,47.8,68.5z M39,69.2c0-0.5,0.1-1,0.1-1.6c0.7,0,1.5-0.1,2.3-0.1c2.4,0,4.5,0.2,5.9,0.6c0,0,0,0,0,0
		C43.8,68.2,40.8,68.6,39,69.2z M40.9,67.3c-0.6,0-1.3,0-1.9,0c0-1,0.1-2,0.1-3c0.6,0,1.1,0,1.7,0c2.5,0,4.8-0.3,6.6-0.7
		c0.1,1.4,0.1,2.8,0.2,4.3C46.1,67.6,43.7,67.3,40.9,67.3z M41.4,63.5c-0.8,0-1.5,0-2.2-0.1c0.1-1.4,0.1-2.7,0.2-4c0.6,0,1.3,0,2,0
		c2.2,0,4.3,0.2,5.9,0.5c0,1,0.1,2,0.2,3.1C45.8,63.3,43.7,63.5,41.4,63.5z M41.3,55.8c-0.2,0.9-0.4,2-0.7,3.3c-0.4,0-0.8,0-1.2,0
		c0-1,0.1-1.9,0.1-2.7C40.2,56.2,40.8,56,41.3,55.8z M39.6,55.7c0-1,0.1-1.9,0.1-2.7c1.4,0.4,2.3,0.8,2.3,1.3
		C42,54.8,41.1,55.3,39.6,55.7z M41.9,59.1c0.3-1.7,0.7-3.3,1-4.5c0-0.1,0.1-0.2,0.1-0.3c0-0.7-1.3-1.3-3.3-1.7
		c0.1-1.4,0.1-2.4,0.1-2.9c0,0,0-0.3,0.2-0.6c0.1-0.6,0.4-1,0.6-1.4c2,0.5,4.1,0.8,6.1,0.8c0,0.5,0,0.8,0,0.8
		c-0.2,0.9-0.2,3,0.1,4.3c0.1,0.3,0.2,0.6,0.2,0.6c0,0.8,0.1,2.8,0.2,5.4C45.8,59.3,43.9,59.1,41.9,59.1z M46.7,47.3
		c-1.9,0-3.7-0.3-5.5-0.8c0-0.1,0-0.1,0-0.2c0,0,2.5-3.5,5.1-8.2c0.2,0,0.3-0.1,0.3-0.1c0.1,0,0.3,0.2,0.5,0.4
		C46.7,42,46.7,45.3,46.7,47.3z M40.2,45.3c0,0-0.2,0.3-0.5,0.7c-1.7-0.6-3.4-1.4-4.9-2.4c-0.8-0.5-1.5-1.1-2.1-1.6
		c0.4-0.7,1.2-1.2,2.1-1.5c0,0,2.2-0.8,8-3.8c0.4,0.2,0.9,0.4,1.1,0.5c0.3,0.2,0.5,0.6,0.8,0.9C42.8,41.3,40.6,45.3,40.2,45.3z
		 M41,78.2c0-0.8,3.2-1.5,7.2-1.5c0.1,1,0.1,2.1,0.2,3C44.3,79.7,41,79,41,78.2z M54.3,46c-1.9,0.7-3.9,1.1-5.9,1.2
		c0-2.4,0.2-6.5,0.4-9.2c0.1-0.1,0.2-0.1,0.2-0.1c0.1,0,0.4,0.3,0.6,0.4C51.4,41.4,53.1,44.2,54.3,46z M50.9,37.2
		c0.1-0.2,0.2-0.4,0.3-0.5c0.1-0.1,0.4-0.2,0.6-0.3c5,2.5,7,3.2,7,3.2c1.3,0.4,2.3,1.2,2.5,2.4c0,0,0,0,0,0
		c-1.7,1.5-3.6,2.6-5.7,3.5C54.2,43.3,52,39.2,50.9,37.2z M48.6,53.6c0.1-1.6,0.1-4.4,0.1-4.4c-0.1,0-0.1-0.3-0.2-0.8
		c2.2-0.2,4.4-0.6,6.5-1.4c0.5,0.8,0.8,1.2,0.8,1.2c0.1,0.9,0.9,1.6,1.2,2.8c0.1,0.3,0.2,0.6,0.2,0.6c0,0.3,0,0.7,0,1.2
		C52.5,53.1,49,54,49,55.1c0,0.1,0,0.2,0.1,0.3c0.3,1.2,0.6,2.8,0.9,4.8c0,0,0,0,0,0c-0.3-0.1-0.7-0.2-1.1-0.3
		C48.7,56.1,48.6,53.6,48.6,53.6z M53.2,63.4C53.2,63.4,53.2,63.4,53.2,63.4c-0.2-0.1-0.3-0.3-0.3-0.4c0-0.6,1.9-1.2,4.7-1.4
		c0,0.4,0,0.7,0.1,1.1C55.9,62.8,54.4,63,53.2,63.4z M57.7,63.1c0.1,1.1,0.1,2.3,0.2,3.5c-2.8-0.3-4.8-1-4.8-1.8
		C53.1,64.1,54.9,63.4,57.7,63.1z M51.5,62.5c0.1-0.2,0.1-0.5,0.2-0.7c0-0.1,0.1-0.2,0.1-0.3c0-0.3-0.4-0.7-1-1c0,0,0.1,0,0.1,0
		c-0.3-1.8-0.5-3.3-0.6-4.1c1.5,0.7,4,1.4,7.1,1.7c0,1,0.1,2,0.1,3.2C54.6,61.4,52.3,61.9,51.5,62.5z M51.3,68.3c0.2,0,0.3,0,0.5,0
		c-0.5,0-0.9-0.1-1.4-0.1c0.2-0.9,0.4-1.8,0.5-2.7C51,66.4,51.1,67.3,51.3,68.3z M51.5,64.1c0-0.3-0.1-0.6-0.1-0.9
		c0,0.1,0,0.2-0.1,0.3c0-0.1,0-0.2,0.1-0.3c0,0,0,0,0,0c0,0,0,0,0,0c0.1,0.2,0.4,0.4,0.7,0.5c0,0,0,0,0,0
		C51.8,63.9,51.6,64,51.5,64.1z M51.1,55.1c0-0.9,2.5-1.6,6.1-1.9c0,1,0.1,2.3,0.2,3.9C53.7,56.8,51.1,56,51.1,55.1z M48.9,60.2
		c1.2,0.3,1.9,0.8,1.9,1.2c0,0.4-0.7,0.8-1.8,1.2C49,61.8,48.9,61,48.9,60.2z M49.1,63.3c0.4-0.1,0.7-0.2,1-0.4
		c-0.3,1.1-0.5,2.6-0.8,4.3C49.2,65.9,49.1,64.5,49.1,63.3z M49.9,79.7c0-1-0.1-1.9-0.2-3c3.5,0.1,6.3,0.7,6.3,1.5
		C56,78.9,53.4,79.5,49.9,79.7z M56.2,77.5c-1.1-0.6-3.5-1-6.5-1.1c0-1-0.1-2-0.2-3c3.2-0.1,6-0.8,7.7-1.5
		C56.9,73.3,56.6,75.3,56.2,77.5z M49.5,72.5c-0.1-1.3-0.1-2.7-0.2-4c4.8,0.1,8.6,1,8.6,2C57.9,71.6,54.3,72.4,49.5,72.5z
		 M52.6,68.4c-0.2-1-0.3-1.8-0.4-2.3c1.2,0.6,3.2,1.2,5.6,1.5c0,0.7,0.1,1.4,0.1,2C56.9,69,55,68.6,52.6,68.4z M58.2,73.7
		C58.2,73.7,58.2,73.7,58.2,73.7C58.2,73.7,58.2,73.7,58.2,73.7C58.2,73.7,58.2,73.7,58.2,73.7z M58.5,51.1c0.1-1.6-1.7-3.8-1.7-3.8
		c-0.1,0-0.3-0.3-0.6-0.8c1.9-0.8,3.7-1.9,5.3-3.1c0.1,2.1,0.3,5.8,0.6,9.4c-0.6,0-1.3,0-2,0c-0.5,0-1,0-1.5,0
		C58.5,51.7,58.5,51.1,58.5,51.1z M58.6,53.1c0.7,0,1.3,0,2,0c0.5,0,1,0,1.5,0c0.1,1.4,0.2,2.8,0.3,4.1c-0.6,0-1.2,0-1.8,0
		c-0.6,0-1.2,0-1.8,0C58.7,55.5,58.7,54.1,58.6,53.1z M58.9,58.1c0.4,0,0.8,0,1.3,0c0.8,0,1.6,0,2.4-0.1c0.1,1.3,0.2,2.3,0.2,3.1
		c-0.8-0.1-1.7-0.1-2.6-0.1c-0.4,0-0.7,0-1.1,0C59,60.1,58.9,59.1,58.9,58.1z M61.9,62.4c-1,0-1.9,0-2.8,0.1c0-0.4,0-0.7-0.1-1.1
		c0.5,0,1,0,1.5,0c0.8,0,1.5,0,2.2,0.1c0,0.5,0.1,0.8,0.1,1C62.5,62.4,62.2,62.4,61.9,62.4z M28.7,13C35.4,2.8,49.1,0.1,59.3,6.9
		c10.2,6.7,12.8,20.5,6.1,30.6c-0.8,1.2-1.7,2.3-2.7,3.3c-0.3-1-1.2-2.4-3-2.4c-0.3,0-0.6-0.1-0.6-0.1c-1.2-0.5-4.4-2.2-6.8-3.6
		c0-0.1-0.1-0.2-0.1-0.3c0-0.1,0-0.2,0-0.2l1.7-0.5l-1.5-0.1l1-1.5l-1.3,1.1L52.1,32c0,0-0.2,1.1-0.2,1.4c0,0-0.1,1.1-1,2
		c-0.9,0.8-1.7,1.1-2.6,1.1c-0.2-0.9-0.4-2.8-0.4-4c0,1.8,0.1,3.2,0.2,4c-0.2,0-0.3,0-0.5,0c-0.5,0-1.2,0-1.9-0.1
		c0.2-0.8,0.4-2.3,0.4-4.3c0,1.3-0.4,3.4-0.8,4.2c-0.5-0.1-1-0.2-1.5-0.4c-1.5-0.9-1.9-2.3-1.9-2.3l0-1l-0.3,0.9l-1.3-0.9l0.6,1
		l-1.9,0.4l2.3,0.2c0.1,0.4,0.1,0.7,0.1,1c-2.5,1.4-5.6,3.1-6.8,3.6c0,0-0.2,0.1-0.6,0.1c-1.3,0-2.1,0.7-2.6,1.5
		C24.1,33.4,22.8,21.8,28.7,13z M29.7,63.5c-2.9-0.2-4.9-0.8-4.9-1.4c0-0.7,2.1-1.2,5.1-1.4C29.7,61.6,29.7,62.6,29.7,63.5z
		 M30.2,52.3c-0.1,1.3-0.1,2.6-0.2,4c-4.1-0.2-7.1-1-7.1-2C23,53.3,26,52.5,30.2,52.3z M22.1,55.6c1.6,0.8,4.4,1.5,7.8,1.7
		c-0.1,1-0.1,2.1-0.2,3.1c-3.6,0.2-6.3,0.8-6.7,1.5C22.7,59.1,22.3,56.7,22.1,55.6z M32.9,78.8c-3.2,0.2-5.7-0.7-7.5-1.8
		c-0.6-4.3-1.5-10-2.2-14.6c0.6,0.8,3.1,1.6,6.4,1.8c-0.1,2.2-0.2,4.4-0.3,6.3c-0.1-0.2-0.2-0.4-0.5-0.4c-0.3,0-0.5,0.2-0.5,0.5
		c0,0.3,0.2,0.5,0.5,0.5c0.2,0,0.4-0.1,0.5-0.3c-0.1,1.9-0.2,3.5-0.2,4.7c-0.1,0-0.1-0.1-0.2-0.1c-0.3,0-0.5,0.2-0.5,0.5
		c0,0.3,0.2,0.5,0.5,0.5c0.1,0,0.1,0,0.2,0c0,0.4,0,0.7-0.1,1c0.5,0.6,1,0.8,1.5,0.2c0,0,0.3-5,0.6-11.3c0.1,0.6,0.2,1.2,0.3,1.8
		c0,0,0,0,0,0c0,0.2,0.1,0.4,0.1,0.6C31.9,71.9,32.4,75.5,32.9,78.8z M32.2,68.9c-0.4-2.8-0.8-5.1-1-6.2c1.3,0.7,3.7,1.3,6.5,1.6
		c-0.1,1.1-0.1,2.1-0.2,3.2C34.7,67.7,32.6,68.3,32.2,68.9z M37.2,70.4C37.2,70.4,37.2,70.4,37.2,70.4c-2-0.3-3.4-0.7-3.4-1.3
		c0-0.6,1.5-1,3.8-1.3c0,0.7-0.1,1.5-0.1,2.2C37.3,70.1,37.2,70.2,37.2,70.4z M38.5,77.9c0.3,1.9,0.6,4,0.9,6.1
		c-0.4-0.3-0.8-0.5-1.2-0.8C38.3,82.2,38.4,80.3,38.5,77.9z"/>
	<path d="M77.1,56.2c-6.3,5.6-8.5,14.1-6.2,21.7c5.1,0.5,10,2.8,13.7,7c2,2.3,3.5,5,4.3,7.8c3.8,0.4,7.6-0.3,11.2-2V53.1
		C92.7,49.5,83.6,50.5,77.1,56.2z"/>
	<path d="M82.5,43.9c0,2.6,0.5,5.1,1.4,7.4c5.2-2,11-1.9,16.1,0.4V23.3C90.1,24.9,82.5,33.5,82.5,43.9z"/>
	<path d="M13.8,84.7c1-0.9,2.1-1.7,3.2-2.4c0.9-5.9-0.7-12.2-4.9-17c-3.3-3.7-7.6-6-12.1-6.8v41.1c2.4-0.4,4.8-1.3,7-2.6
		C7.9,92.5,10.1,88.1,13.8,84.7z"/>
	<path d="M90.4,100c2.6,0,9.6,0,9.6,0c0-2,0-7.8,0-7.8c-3.5,1.2-7.7,2-10.5,2C89.8,95.2,90.4,97.9,90.4,100z"/>
	<path d="M4,99.9c0.8,0,2.2,0.1,3.3,0.1c0,0,0.2,0-0.2-1.2C7,98.8,5.1,99.6,4,99.9z"/>
	<path d="M4,99.9c-0.3,0-0.6,0-0.6,0.1C3.5,100,3.7,100,4,99.9z"/>
</g>
</svg>
