<?xml version="1.0" encoding="utf-8"?>
<!-- Generator: Adobe Illustrator 19.2.1, SVG Export Plug-In . SVG Version: 6.00 Build 0)  -->
<svg version="1.2" baseProfile="tiny" id="Layer_1" xmlns="http://www.w3.org/2000/svg" xmlns:xlink="http://www.w3.org/1999/xlink"
	 x="0px" y="0px" viewBox="0 0 100 100" xml:space="preserve">
<path d="M63.9,10.7c-4.7,0.2-10.2,9.5-14.2,9.5c-4,0-12-6.9-16.7-6.9c-4.7,0-23.8,25.8-33,39.8c3.7,5.6,29.4,43.3,57.5,36
	s30.4-17.8,42.4-41.8C99.9,47.2,68.6,10.5,63.9,10.7z M33.3,17.5c0,0,6.5,1.9,10.1,4.5c-2.3-1-5.6-1.5-8.9-1.6
	C31.6,21,24.1,27,9.5,48.8C11,43.4,30.5,16.4,33.3,17.5z M11.5,58.8c0.1,0.4,2.5,0.1,3.6,0.2c4.4,8.2,15.7,22.4,35.5,26.8
	C34,85.7,13.4,66,11.5,58.8z M54.8,53.6C51.9,57,51.8,67,51.9,73c-0.2-5.8-1.1-14.4-4.3-18.4C45,51.3,19,53.7,2.5,52.3
	c6.6-0.1,27.8,2,39.3-5.1c-0.7-0.9-1.3-2.4-1.3-3.3c0,0,0.7,1.7,2.6,4c1.9,1.7,3.8,2.6,6.9,3.8c2.6-0.7,6.7-1.9,9.1-5
	c1.8-2.8,4.6-14.5,4.6-14.5C63.7,35.6,62,43,60.5,45.9c7.8,7,34.8,2,34.8,2C79.6,51.9,58.5,49.4,54.8,53.6z"/>
</svg>
