<?xml version="1.0" encoding="utf-8"?>
<!-- Generator: Adobe Illustrator 19.2.1, SVG Export Plug-In . SVG Version: 6.00 Build 0)  -->
<svg version="1.2" baseProfile="tiny" id="Layer_1" xmlns="http://www.w3.org/2000/svg" xmlns:xlink="http://www.w3.org/1999/xlink"
	 x="0px" y="0px" viewBox="0 0 100 100" xml:space="preserve">
<g>
	<path d="M77.9,71.5c0.8-0.6,0.5-1.5,0.5-1.6C78.5,70.2,78.3,71.2,77.9,71.5z"/>
	<path d="M77.9,71.5c-0.1,0-0.1,0.1-0.2,0.1C77.8,71.6,77.9,71.6,77.9,71.5z"/>
	<path d="M91.7,34.8c-8.6-5.8-20.2-3.4-26,5.2c-4.3,6.5-4.1,14.6-0.1,20.7c-0.5,0.1-1.2,0.4-1.6,0.5c0-0.2,0-0.3,0-0.4
		c0,0-1.1,0.2-1.5,0.4c0,0-0.5-0.2-1-0.1c-0.6-1.5-2.4-2-3.1-1.8c0,0,0.8,0.2,1.2,0.8c-3.3-2-6,1.4-5.2,3.4c2-1.5,4.9-1.6,6.1-0.6
		c1.4-0.8,2.5,0.6,3.2,1.5c0,0,0.5,0,0.8,0c0,0,0-0.1-0.1-0.4c0.8,0.1,2.6,0.1,3.9,0c0.1,0.1,0.2,0.2,0.3,0.3
		c0.7,0.6,1.4,1.2,2.2,1.8c0.1,0.1,0.3,0.2,0.4,0.2c0.7,0.5,1.5,0.9,2.2,1.2c0.5,0.2,0.9,0.4,1.6,0.7c0.3,0.1,0.6,0.2,0.9,0.3
		c0.1,0.5,0.2,0.8,0.2,0.8c-0.3,0.2-0.3,1.1-0.3,1.2c-1.9-0.7-5-0.9-6.5-1c0.2-0.5,0.4-0.9,0.7-1.3c-1.4,0.1-3,0-4.2-0.2
		c-0.6-0.4-1.2-0.5-1.7-0.6c0.2-1.6-0.1-2.6-1.4-4c-0.7-0.8-1.5-0.7-1.8-0.3c1.3,0.7,1.3,1.2,1.3,1.2c-4.7-4-9.7-0.3-10.8,5.6
		c-1.1,5.9,9.1,5.3,10.8,4.2c0.8-2.3,1.8-5.1,1.8-5.1c0.1,1.4-1.3,4.7-1.2,5c0.1,0.4,1.5,0.6,1.8,0.5c0.2-0.1,1.1-3.5,1-5.2
		c0.6,1.1-0.3,5.4-0.3,5.4l2.7,1.3c0,0,0.1-0.7,0.2-1.8c6.7,1.9,10.3,1,10.9,0.8c0.7,0.1,1.4-0.3,1.2-0.9c1-1,1.8-2.3,1.7-3.5
		c0.4-0.2,1.4-0.8,2.1-1.7c5-0.8,9.8-3.5,12.8-8.1C102.6,52.3,100.3,40.6,91.7,34.8z M73.8,58.1c0.1-0.1,0.3-0.1,0.4-0.1
		c0.1,0,0.2,0,0.2,0.1c0.1,0.3,0.2,0.8,0.2,1.1c0,0,0,0.2,0,0.5c-0.1,0.2-0.4,0.4-0.7,0.6c0-0.1-0.2-0.8-0.2-0.9c0,0-0.1,0-0.1,0
		l0-0.2l-0.1,0.2c-0.1,0-0.2-0.1-0.3-0.1c0,0,0.1,0.1,0.3,0.2c0.1,0,0.1,0,0.2,0c0,0,0.2,0.8,0.2,0.9l0,0c-0.6,0.4-1.3,0.7-1.5,0.8
		c-0.3,0-0.6-0.9-0.7-1.1c0,0,0.1,0.7,0.3,1c0,0,0,0.2,0,0.3c0,0-1.2,0.8-1.4,0.8c0,0-0.2,0-0.4-0.1c0,0,0.1,0.2,0,0.3
		c0,0-0.8,0.4-1.3,0.6c-0.2-0.2-0.3-0.4-0.5-0.5C71,61.2,72,59,73.8,58.1z M64.4,63.7c-0.1-0.6-0.3-1.6-0.4-2.3
		c0.4-0.1,1.2-0.2,1.9-0.2c0.3,0.4,0.6,0.8,0.9,1.2l-1.7,0.5l2-0.2c0.2,0.2,0.4,0.5,0.6,0.7c0,0,0,0,0,0
		C66.9,63.5,65.2,63.7,64.4,63.7z M69.1,63c0.3-0.2,1-0.5,1.2-0.6c0,0,0.1,0,0.2,0c0.1,0.1,0.4,0.2,0.5,0.5
		c-0.1-0.3-0.3-0.5-0.4-0.6c0-0.1,0-0.1,0-0.2c0,0,1.2-0.6,1.5-0.8c0,0,0.1,0,0.3,0.1c0,0.2,0.2,0.7,0.4,0.9c-0.2-0.3-0.3-1-0.3-1.1
		c0,0,0.2-0.1,0.5-0.3c0.2-0.1,0.4-0.1,0.6-0.1c0,0,0.1-0.1,0.2-0.2c0.1,0,0.1,0,0.1,0c0,0,0.1-0.2,0.2-0.3c0.3-0.2,0.6-0.4,0.8-0.5
		c0.3,0.1,0.6,0.5,0.9,0.9c-0.1,0.5-0.2,0.9-0.5,1.1c-0.9,0.9-3.1,0.2-4.9,2.2c-0.4-0.4-0.6-0.6-1-0.9C69.2,63.1,69.1,63.1,69.1,63z
		 M95.7,60.7c-2.7,4-6.8,6.5-11.2,7.3c0.3-1,0.1-2.1-1.4-3.3c2.4,3-0.7,5.5-1.7,5.7c0.1,1.2-0.2,2.3-1.4,3.3
		c-0.3-0.3-0.8-0.5-0.8-0.5c0.2,0.2,0.5,0.4,0.6,0.7c0,0.6,0.1,0.9-0.8,0.9c-1.8,0.4-4.4,0.8-10.9-0.8c0.1-0.4,0.2-0.9,0.3-1.4
		c1.9,0.5,6.3,1.3,8.4,1.4c-4.2-0.5-7-1.6-8.2-2.1c0.2-0.7,0.4-1.4,0.6-2c2.5,0.2,7.2,0.9,8.2,1.9c-0.4-0.6-1.1-1.2-1.1-1.2
		c-0.2-0.4,0.1-1.2,0.9-1.2c-0.4-0.2-1.2-3.2-0.8-3.6c-0.5,0.2-0.6,0.8-0.6,1.4c-1.1-0.4-2.1-0.9-3.2-1.5c-1.3-0.8-1.9-1.4-2.4-1.7
		c1.7-1.5,3.9-1.1,5.1-1.9c0.6-0.4,0.7-1.7,0.4-2.8c-0.4-1.8,0.1-2.3-0.2-2.2c-0.3,0.1-1.1,0.5-1.7,0.8c0,0-0.1,0-0.1,0
		c-1.9,1-3,3.3-5.4,4.1c-4.6-5.7-5.2-13.9-1-20.3c5.2-7.9,15.9-10,23.8-4.7C98.9,42.2,101,52.9,95.7,60.7z"/>
	<path d="M72.9,52.6c-1.9,0.9-3.5,0.9-5,0.9c-0.2-0.4-0.3-1.2-0.5-1.9c1.5-0.9,3.4-2.1,5.5-3.7c0,0,0.4-1,0.2-1.4
		c0.1,0.1-3.5,3-5.7,4.7c-0.2,0.2-0.5,0.4-0.7,0.5c-0.3,0.2-0.5,0.4-0.7,0.6c0.2-0.1,0.5-0.2,0.7-0.4c0.2,1.2,0.4,2.2,0.4,2.2
		c0.3,0,0.6,0.1,0.8,0.1c0.2,2,1.5,2.9,2.1,3c0.2-0.2,1-1.1,2.9-2.1c0,0,0.1-0.8,0.2-1.5c0.2-0.1,0.4-0.2,0.6-0.3
		c0.2-1.7-0.5-3.1-1.1-3.8C72.9,50.8,72.9,52.6,72.9,52.6z M72.5,55.1c-1.6,0.8-2.2,1.6-2.4,1.7c-0.2-0.1-0.7-0.3-1-0.8
		c1.1-0.5,0.9-1.3,0.5-1.9c0.2,0,0.6,0,1.1-0.1c0.7-0.1,1.4-0.2,2-0.4C72.6,54.3,72.5,55.1,72.5,55.1z"/>
	<path d="M21.6,69.9c-0.1,0.2-0.3,1.1,0.5,1.6C21.7,71.2,21.5,70.2,21.6,69.9z"/>
	<path d="M22.3,71.7c-0.1,0-0.1-0.1-0.2-0.1C22.1,71.6,22.2,71.6,22.3,71.7z"/>
	<path d="M26.4,53.3c0.2,0.1,0.4,0.2,0.6,0.3c0,0.7,0.2,1.5,0.2,1.5c1.9,1,2.7,1.9,2.9,2.1c0.6-0.1,1.8-0.9,2.1-3
		c0.3,0,0.6-0.1,0.8-0.1c0,0,0.2-1,0.4-2.2c0.3,0.1,0.5,0.3,0.7,0.4c-0.2-0.1-0.4-0.3-0.7-0.6c-0.2-0.2-0.4-0.3-0.7-0.5
		c-2.2-1.7-5.8-4.6-5.7-4.7c-0.2,0.4,0.2,1.4,0.2,1.4c2.1,1.5,4,2.8,5.5,3.7c-0.1,0.8-0.3,1.5-0.5,1.9c-1.5,0-3.1,0-5-0.9
		c0,0,0-1.7,0.4-3.1C26.9,50.2,26.1,51.7,26.4,53.3z M27.4,53.8c0.6,0.2,1.3,0.3,2,0.4c0.5,0,0.8,0.1,1.1,0.1
		c-0.5,0.5-0.6,1.3,0.5,1.9c-0.4,0.5-0.8,0.7-1,0.8c-0.1-0.2-0.8-0.9-2.4-1.7C27.5,55.1,27.4,54.3,27.4,53.8z"/>
	<path d="M37.9,64.4c0,0,0-0.5,1.3-1.2c-0.3-0.4-1.1-0.5-1.8,0.3c-1.2,1.3-1.6,2.4-1.4,4c-0.5,0-1.1,0.2-1.7,0.6
		c-1.2,0.2-2.8,0.3-4.2,0.2c0.2,0.4,0.5,0.8,0.7,1.3c-1.5,0.1-4.6,0.4-6.5,1c0-0.1-0.1-1-0.3-1.2c0,0,0.1-0.4,0.2-0.8
		c0.1,0,0.1,0,0.2-0.1c-0.1,0.2-0.1,0.4-0.2,0.6c2.9-0.4,5.5-2.4,7.2-3.9c-0.1,0-0.3-0.1-0.6-0.2c0.3-0.2,0.5-0.4,0.8-0.7
		c0.1-0.1,0.2-0.2,0.3-0.3c1.3,0.1,3.1,0.1,3.9,0c0,0.2-0.1,0.4-0.1,0.4c0.3,0,0.8,0,0.8,0c0.7-0.9,1.8-2.2,3.2-1.5
		c1.2-1,4.1-0.9,6.1,0.6c0.8-2-1.9-5.4-5.2-3.4c0.4-0.7,1.2-0.8,1.2-0.8c-0.7-0.2-2.5,0.2-3.1,1.8c-0.5,0-1,0.1-1,0.1
		C37.1,61,36,60.8,36,60.8c0,0.1,0,0.3,0,0.4c-0.3-0.2-0.8-0.3-1.3-0.5c0,0,0,0,0-0.1c0-0.1-0.1-0.1-0.1-0.2
		c3.9-6.1,4.1-14.1-0.2-20.5c-5.8-8.6-17.4-11-26-5.2c-8.6,5.8-10.9,17.5-5.2,26.1c3.1,4.6,7.8,7.3,12.8,8.1
		c0.6,0.9,1.6,1.6,2.1,1.7c-0.1,1.2,0.8,2.5,1.7,3.5c-0.2,0.6,0.5,1,1.2,0.9c0.6,0.2,4.2,1.1,10.9-0.8c0.2,1.1,0.2,1.8,0.2,1.8
		l2.7-1.3c0,0-0.9-4.3-0.3-5.4c-0.1,1.7,0.8,5.1,1,5.2c0.2,0.1,1.7-0.1,1.8-0.5c0.1-0.4-1.3-3.6-1.2-5c0,0,1,2.8,1.8,5.1
		c1.8,1.2,11.9,1.8,10.8-4.2C47.6,64.2,42.5,60.4,37.9,64.4z M28,63.9c0,1.3-1.1,1.1-1.7,1.1c-0.6,0-0.6-1.6,0.2-1.7
		c-1.6-0.1-2.8-1.3-2.8-1.3c0.6-2.8-0.1-6-0.1-6c1.8,0.7,5.4,3.2,6.3,4.5s1.8,0.9,1.8,0.9c0.1,0.1,0.2,0.2,0.2,0.3
		c-0.1,0.1-0.1,0.2-0.2,0.2c-2.5-0.8-3.5-3.2-5.4-4.1c0,0-0.1,0-0.1,0c-0.7-0.3-1.5-0.7-1.7-0.8c-0.3-0.1,0.2,0.5-0.2,2.2
		c-0.3,1.1-0.2,2.4,0.4,2.8c1.2,0.8,3.3,0.5,5.1,1.9c-0.1,0.1-0.3,0.2-0.4,0.3C28.6,64.2,28,63.9,28,63.9z M29.4,62.1
		C29.2,62,28,61.3,28,61.3c0-0.1,0-0.3,0-0.3c0.2-0.3,0.3-1,0.3-1c-0.1,0.2-0.4,1.1-0.7,1.1c-0.2-0.1-0.9-0.5-1.5-0.8l0,0
		c0-0.1,0.2-0.9,0.2-0.9c0.1,0,0.1,0,0.2,0c0.1-0.1,0.3-0.2,0.3-0.2c-0.1,0-0.2,0.1-0.3,0.1l-0.1-0.2l0,0.2c-0.1,0-0.1,0-0.1,0
		c0,0.1-0.2,0.8-0.2,0.9c-0.3-0.2-0.6-0.4-0.7-0.6c0-0.4,0-0.5,0-0.5c0-0.2,0.1-0.8,0.2-1.1c0.1,0,0.2,0,0.2-0.1
		c0.1,0,0.3,0.1,0.4,0.1c1.8,0.9,2.8,3.1,5.3,4.2c-0.2,0.2-0.3,0.4-0.5,0.5c-0.4-0.2-1.3-0.6-1.3-0.6c0-0.1,0-0.3,0-0.3
		C29.7,62.1,29.4,62.1,29.4,62.1z M29.8,64.1c-1.8-2-4-1.3-4.9-2.2c-0.2-0.2-0.4-0.7-0.5-1.1c0.3-0.4,0.6-0.9,0.9-0.9
		c0.2,0.1,0.5,0.3,0.8,0.5c0,0.1,0.1,0.2,0.2,0.3c0,0,0.1,0,0.1,0c0.1,0.1,0.1,0.2,0.2,0.2c0.1,0,0.4,0,0.6,0.1
		c0.3,0.1,0.5,0.3,0.5,0.3c0,0.1-0.2,0.8-0.3,1.1c0.2-0.2,0.3-0.7,0.4-0.9c0.2,0,0.3-0.1,0.3-0.1c0.3,0.2,1.5,0.8,1.5,0.8
		c0,0.1,0,0.1,0,0.2c-0.1,0.1-0.3,0.3-0.4,0.6c0.1-0.3,0.4-0.5,0.5-0.5c0.1,0,0.2,0,0.2,0c0.3,0.1,0.9,0.5,1.2,0.6
		c-0.1,0.1-0.1,0.1-0.1,0.2C30.5,63.5,30.2,63.7,29.8,64.1z M35.6,63.7c-0.8,0-2.5-0.2-3.3-0.3c0,0,0,0,0,0c0.2-0.2,0.4-0.5,0.6-0.7
		l2,0.2l-1.7-0.5c0.1-0.1,0.1-0.2,0.2-0.2c0.6-0.2,1.1-0.5,1.2-0.9c0.5,0,1,0.1,1.3,0.2C35.9,62.2,35.7,63.1,35.6,63.7z M20.9,74.9
		c-0.8,0-0.7-0.3-0.8-0.9c0.1-0.3,0.4-0.5,0.6-0.7c0,0-0.5,0.2-0.8,0.5c-1.2-1.1-1.5-2.1-1.4-3.3c-1-0.2-4.1-2.8-1.7-5.7
		c-1.5,1.1-1.7,2.3-1.4,3.3c-4.4-0.8-8.6-3.3-11.2-7.3C-1,52.9,1.1,42.2,9,37c7.9-5.2,18.5-3.1,23.8,4.7c3.8,5.7,3.7,12.9,0.4,18.4
		c-0.4,0-0.6,0.1-0.6,0.1c0.1-1.1-5.4-4.7-11.1-6.9c-0.1,3.2-1.4,9.6-1.4,9.6c2.1,0.6,4.6,1.7,4.5,4.3c-0.1,0-0.2,0.1-0.2,0.1
		c0-0.6-0.1-1.2-0.6-1.4c0.4,0.4-0.3,3.5-0.8,3.6c0.8,0,1,0.8,0.9,1.2c0,0-0.7,0.5-1.1,1.2c1-1,5.7-1.7,8.2-1.9
		c0.2,0.7,0.4,1.3,0.6,2c-1.2,0.5-4,1.6-8.2,2.1c2-0.1,6.5-0.9,8.4-1.4c0.1,0.5,0.2,1,0.3,1.4C25.3,75.8,22.7,75.3,20.9,74.9z"/>
</g>
</svg>
