<?xml version="1.0" encoding="utf-8"?>
<!-- Generator: Adobe Illustrator 19.2.1, SVG Export Plug-In . SVG Version: 6.00 Build 0)  -->
<svg version="1.2" baseProfile="tiny" id="Layer_1" xmlns="http://www.w3.org/2000/svg" xmlns:xlink="http://www.w3.org/1999/xlink"
	 x="0px" y="0px" viewBox="0 0 100 100" xml:space="preserve">
<g>
	<path d="M90.1,5.9c-1.2-0.6-3.2-1.3-3.6,0.2c0.3,2.2-0.5,8.6-3.1,10.1c0,0,0,0,0,0c0,0.6,0.3,1.3,1.1,1.9c-0.9-0.2-1.6-1.1-1.8-1.9
		C78,15.8,68,19.5,66.8,24.3c4.2,0.5,10.9-1.1,10.9-1.1c-0.6,2.6-2.2,8.7-2.2,8.7c2.7-1.2,7.6-6.5,7.6-6.5c1.5,1.5,1.5,9.1,3.8,9.6
		c2.9-7.2,0.8-17.2,0.8-17.2C89.2,15,91.3,6.5,90.1,5.9z"/>
	<path d="M74.5,33.2c0,0,1.1-5.9,1.9-9.1c0,0-2.7,1.3-7.8,1.2c-7.4,7-21.6,20.1-30.2,39.8C25.7,94.5,4.3,87.8,2.3,90.3
		c-2,2.5,5.6,10.3,25.8,3.2C46.5,87,76.7,58.1,85.4,34.6c-1.9-2.8-1.3-6.9-2.3-7.8C83.1,26.8,77.9,31.7,74.5,33.2z M43.9,65.7
		c3.5-13.4,20.3-29.8,21.6-31.1c0.8-0.6,1.6-1,3.5-1C69,33.7,51,49.5,43.9,65.7z"/>
	<path d="M37.3,64.1c8.7-18.8,20.9-31.9,29.1-39c-3.6-4.2-7.3-7.5-10.3-10c0,0,8.1,11.9,0.6,12.3C45.3,28,43.8,8.8,52.6,0
		C37.3,8.8,42.4,27.4,36.2,41.6c2.5-8.4,0.4-18.3-7.2-25.6c0,0,5.1,6.7-7.4,29.1c-8.6,15.4-6.8,26,2.9,36.6
		C29.4,78.4,33.5,72.2,37.3,64.1z"/>
	<path d="M35.2,91.4c1.9,1.5,7.6,7.1,9.8,8.6c5.7-1.1,8.2-3.8,19.2-5.4c9.5-14.4,13.6-33,14.1-43.2C66.6,68.8,48.8,84.6,35.2,91.4z"
		/>
</g>
</svg>
