<?xml version="1.0" encoding="utf-8"?>
<!-- Generator: Adobe Illustrator 19.2.1, SVG Export Plug-In . SVG Version: 6.00 Build 0)  -->
<svg version="1.2" baseProfile="tiny" id="Layer_1" xmlns="http://www.w3.org/2000/svg" xmlns:xlink="http://www.w3.org/1999/xlink"
	 x="0px" y="0px" viewBox="0 0 100 100" xml:space="preserve">
<g>
	<path d="M93.6,64.1c1.3,0,5.1-1.7,5.1-1.7c-1-3.7-2.8-11-2.8-11c0,0-0.1,0.1-0.2,0.1c0,0,0-0.1,0-0.1c0.5-0.6,3-5.2,3.1-7
		c0,0,0.5-0.3-0.1-1.3c-0.3-1.6-2.3-3.8-4.3-4.8c-0.1-0.3-0.4-0.5-0.7-0.6c-0.3-0.3-0.6-0.5-0.6-0.5c0,0-0.1-0.1-0.1-0.2
		c2.1-1,3.6-3.1,3.6-5.5c0-3.4-2.7-6.1-6.1-6.1c-3.4,0-6.1,2.7-6.1,6.1c0,2.8,1.9,5.2,4.5,5.9c0,0.1-0.1,0.3-0.2,0.5
		c-0.5,0.1-0.9,0.4-1.3,0.9c-1.8,0.3-3.1,2.3-4.2,3.8c-0.2-0.8-5.3-3.8-6.2-4.2c-0.8-0.9-2-1.1-2.4-1.3c-0.3-0.1-1.5,0.3-0.5,0.5
		c1,0.2,2.1,1.1,1.8,1.6c-0.3-0.3-0.8-1.3-1-1c0.3,1.1,0.9,2.4,1.8,1.8c0.5,0.6,4.3,4.9,6,5.5c0,0,0.2,0.6,1.3,0.2
		c0.7,0,1.6-0.5,2.4-1.2c-0.1-0.2,0-1,0-1.2c0-0.2,0.7-2.5,0.8-2.6c-0.1,0.8-0.6,2.7-0.5,3.6v0c0.2,1.7,0.5,1.4,0.5,1.4c0,0,0,0,0,0
		c0.4-0.1,1-0.4,1-0.5c-0.1,0.3-0.6,0.5-1,0.6c0.1,1.2,0.2,7.2-0.3,8.5c-0.5,1.5-2.2,10.1-2.2,10.1c3.7,2.5,8.8,0.6,8.8,0.6
		c-0.2-2.7-0.6-5.8-0.6-5.8C93.3,60.9,93.6,64.1,93.6,64.1z M91,38.1c0,0,0.1-0.1,0.2-0.1c-1.5,1.3-0.3,2.3,1,2.9
		c0.6,1.8,2.6,2.7,4.1,3.5c-0.7,0.3-2.2,5.9-2.4,6.8c-0.1,0-0.2,0.1-0.2,0.1c0.1-0.7,0.7-3.2,1.3-5c-0.1-0.8-0.2-1.6-0.2-2.3
		c-1.2-0.7-2.4-1.6-2.8-2.9C90.7,40.4,89.6,39.4,91,38.1z M92.8,52.1c-2,0.3-4.3,0.4-4.3,0.4c0.8-0.2,2.8-0.4,4.4-0.7
		c0.1-0.1,0.2-0.2,0.4-0.3c-0.7,0.6-0.9,1.8-0.8,2.3c0.1,0.3,0.8,1.2,1.3,1.3c0,0,0.1,0,0.1,0c-0.1,0.1-0.2,0.2-0.3,0.2
		c-0.5-0.2-1.2-1.1-1.3-1.3C92.4,53.6,92.5,52.7,92.8,52.1z"/>
	<path d="M90.9,65.7c-1.9,0.2-4.3-0.1-4.4-0.3c-0.2,0.5-0.1,1.1-0.1,1.1c-0.4,0.4,0,1.6,0,1.6c-0.2,1.1,1.4,6.8,1.6,8.6
		c-1.2-0.5-3.4,0.6-3.8,0.7s0.1,1.3,1.8,1.3c0.7-0.4,3.2,0.4,3.5,0.3c0.2-0.1,1.4-0.4,1.4-0.8c0.1-0.5-0.8-1.4-0.8-1.4
		c0.2-1.1,1.3-6.6,0-8.6C91,66.5,90.9,65.7,90.9,65.7z"/>
	<path d="M99,73c0-1.1-0.1-4.9-1.7-6.6c0.7-1.8,0.8-3.6,0.8-3.6c-1.8,1-2.9,1.2-4,1.4c-0.1,0.5,0.1,1.1,0.1,1.1
		c-0.3,0.5,0.3,1.6,0.3,1.6c-0.1,1.1,2,5.4,2.6,7.2c-0.7,1.3-2.8,0.6-3.2,0.8c-0.5,0.2,0.3,1.8,2,1.6c1.3-0.3,0.7-0.7,3-1.2
		c0.2-0.1,1.3-0.6,1.3-1.1C100,73.8,99,73,99,73z"/>
	<path d="M47,50.5c-10.2,0-19.9,0.7-26.3,1.6c-1.6,0.2-3.4,0.4-4.3,0.6c-2.4,0.6-4.3,1.4-4.3,2.2c0,0.9,2.1,1.7,5.7,2.4
		c-0.1,0.1-0.1,0.2-0.1,0.4v2.8c-2-0.6-4-1.3-6.7-1.3c-0.2-2.9-0.5-9-0.5-9c-0.7,0.4-1.5,0.4-2.3,0.3c3.6-0.1,6.5-3,6.5-6.7
		c0-3.7-3-6.7-6.7-6.7c-3.7,0-6.7,3-6.7,6.7c0,2.6,1.4,4.8,3.5,5.9c-0.4,0.1-0.7,0.4-0.7,1.2c-0.3,6.5-1.9,11.2-0.7,13
		c0.3,0.4,1,0.8,2.1,1c-1.2-0.1-2-0.2-2-0.2c-2.2-0.5-0.3-8.5,0.1-15.1C2.9,49.7,1,49.3,1,49.7S0.6,74.2,0.6,74.2c0.4,0.3,1,0,1,0
		c0.1-1.9,0.7-8.1,0.7-8.1c0.4,0.1,1,0.1,1.6,0.2l-0.1,4.8h0.9l0.4-4.7c3.6,0.2,8.4,0.2,8.4,0.2c0.1,2.4-0.7,8.2-0.7,8.2
		c1.2,1.4,4.1,2.6,5,1.6s-2.2-2.7-2.2-2.7c0.6-1.7,1.7-6.2,2.1-8.7V67c0,0,0,0,0,0c-0.2,2.7-1.2,5.1-1.2,5.1c0.3,0,0.7,0,1.2,0v3.1
		c0,0.5,0.4,0.8,0.8,0.8s0.8-0.4,0.8-0.8v-3.3c1.2-0.2,2.2-0.7,1.9-1.5C21,70,20,70,19.3,70.2V57.7c0,0,0-0.1,0-0.1
		c0.8,0.1,1.7,0.3,2.7,0.4v13.3c0,0.5,0.4,0.8,0.8,0.8s0.8-0.4,0.8-0.8V58.2c6.2,0.7,14.4,1.1,23.4,1.1c10.1,0,19.2-0.5,25.5-1.4
		v17.3c0,0.5,0.4,0.8,0.8,0.8s0.8-0.4,0.8-0.8V57.7c0,0,0,0,0,0c1-0.2,1.9-0.3,2.7-0.5c0,0.1,0,0.1,0,0.2v13.5
		c0,0.5,0.4,0.8,0.8,0.8s0.8-0.4,0.8-0.8V57.4c0-0.2-0.1-0.4-0.2-0.5c2.3-0.6,3.7-1.3,3.7-2C82,52.5,66.3,50.5,47,50.5z M12,42.1
		c0.3,0,0.3,0,0.5-0.1c0.2-0.1,0.9,0.6,1.2,1.2c-0.5-0.6-1-1-1.2-0.9c-0.1,0.1-0.2,0.2-0.5,0.2c-0.3,0-0.5,0.4-0.7,1.3
		c0.4,0.7,0.6,1.5,1.5,1.5c0.7,0,1-0.4,1.2-1.2c0,0.3-0.1,1.5-1.2,1.5c-0.9,0-0.9-0.4-1.5-1.7C11.6,42.2,11.9,42.1,12,42.1z
		 M14,43.7c0,0.4-0.2,0.9-1,1.1c-0.7,0.2-1.5-0.4-1.5-1.1c0-0.7,0.7-0.7,1.4-0.9C13.4,42.6,13.9,43.4,14,43.7z M14.4,69.2
		c0-1.5,0-2.7,0-3.4c0.4,0,0.6,0,0.6,0C14.9,66.7,14.7,67.9,14.4,69.2z M11.6,61.8c2.7-0.4,4.7,0.2,6,1v0.6
		C16.8,62.1,11.6,61.8,11.6,61.8z M47,57.8c-18.1,0-33.5-1.7-33.5-3.2c0-0.4,1.4-0.9,3-1.3c0.4-0.1,2.8-0.4,4.1-0.5
		c6.2-0.8,16.1-1.5,26.4-1.5c18.1,0,33.2,1.7,33.2,3.2S65.1,57.8,47,57.8z"/>
	<path d="M79.3,36.7c-0.8-0.3-1.9-0.5-3.7-0.1c0.1,0,0.4,0.1,0.4,0.1C77,36.6,77.4,36.5,79.3,36.7z"/>
	<path d="M75.5,36.6C75.5,36.6,75.4,36.6,75.5,36.6C75.5,36.6,75.5,36.6,75.5,36.6z"/>
	<path d="M76.5,36.9c0.1,0,0.4,0.1,0.4,0.1c0.5,0,2,0,3.1,0.2C78.6,36.8,77.1,36.9,76.5,36.9z"/>
	<circle cx="17.6" cy="33.3" r="1.1"/>
	<path d="M72.5,33.3c-8.8-31-49-22.7-53.8-3C26.3,8.5,63.3,6.2,72.5,33.3z"/>
</g>
</svg>
