<?xml version="1.0" encoding="utf-8"?>
<!-- Generator: Adobe Illustrator 19.2.1, SVG Export Plug-In . SVG Version: 6.00 Build 0)  -->
<svg version="1.2" baseProfile="tiny" id="Layer_1" xmlns="http://www.w3.org/2000/svg" xmlns:xlink="http://www.w3.org/1999/xlink"
	 x="0px" y="0px" viewBox="0 0 100 100" xml:space="preserve">
<g>
	<path d="M80.4,51.1c0.4-0.9,0.2-1.1-0.1-1.4C80.5,49.9,80.6,50.7,80.4,51.1z"/>
	<path d="M80.4,51.1c0,0.1,0,0.1-0.1,0.2C80.4,51.2,80.4,51.2,80.4,51.1z"/>
	<path d="M92.6,76.5c1.5,0,5.7-1.9,5.7-1.9c-1.1-4.1-3.2-12.4-3.2-12.4c0,0-0.1,0.1-0.2,0.1c0,0,0-0.1,0-0.1
		c0.5-0.6,3.4-5.8,3.6-7.9c0,0,0.6-0.3-0.1-1.5c-0.3-1.8-2.6-4.3-4.9-5.5c-0.1-0.4-0.5-0.6-0.8-0.7c-0.4-0.3-0.7-0.5-0.7-0.5
		c0-0.1-0.1-0.2-0.1-0.3c2.4-1.1,4-3.5,4-6.3c0-3.8-3.1-6.9-6.9-6.9S82,35.8,82,39.6c0,3.2,2.2,5.9,5.1,6.7
		c-0.1,0.1-0.1,0.3-0.2,0.5c-0.5,0.1-1.1,0.4-1.5,1c-2.1,0.3-3.6,2.7-4.8,4.3c-0.2-0.9-6-4.3-7-4.8c-0.9-1-2.2-1.3-2.7-1.5
		c-0.3-0.1-1.7,0.4-0.5,0.6s2.4,1.2,2.1,1.8c-0.3-0.4-0.9-1.5-1.1-1.1c0.3,1.3,1,2.7,2,2c0.5,0.7,4.8,5.6,6.8,6.2
		c0,0,0.2,0.7,1.5,0.2c0.8,0,1.8-0.5,2.7-1.3c-0.1-0.2-0.1-1.1,0-1.4c0-0.3,0.8-2.8,0.9-2.9C85,50.8,84.5,53,84.6,54v0
		c0.2,2,0.5,1.6,0.5,1.6c0,0,0,0,0,0c0.5-0.2,1.1-0.4,1.2-0.5c-0.1,0.3-0.7,0.6-1.1,0.7c0.1,1.3,0.2,8.1-0.3,9.7
		c-0.5,1.7-2.4,11.4-2.4,11.4c4.2,2.8,10,0.7,10,0.7c-0.2-3-0.7-6.6-0.7-6.6C92.2,72.9,92.6,76.5,92.6,76.5z M89.7,47.1
		c0,0,0.1-0.1,0.2-0.1c-1.6,1.5-0.3,2.6,1.1,3.3c0.7,2,2.9,3,4.6,4c-0.8,0.4-2.5,6.6-2.7,7.7c-0.1,0-0.2,0.1-0.3,0.1
		c0.1-0.8,0.8-3.6,1.5-5.6c-0.1-0.9-0.2-1.8-0.2-2.6c-1.3-0.8-2.7-1.8-3.2-3.3C89.3,49.8,88.1,48.6,89.7,47.1z M91.7,62.9
		c-2.3,0.3-4.8,0.5-4.8,0.5c0.9-0.2,3.1-0.4,5-0.8c0.1-0.1,0.3-0.2,0.4-0.3c-0.7,0.6-1,2-0.9,2.6c0.1,0.3,0.9,1.3,1.5,1.5
		c0,0,0.1,0,0.1,0c-0.1,0.1-0.2,0.2-0.3,0.2c-0.6-0.2-1.4-1.2-1.4-1.5C91.2,64.6,91.3,63.6,91.7,62.9z"/>
	<path d="M89.6,78.4c-2.1,0.3-4.9-0.1-5-0.3c-0.2,0.6-0.1,1.3-0.1,1.3c-0.4,0.5,0,1.8,0,1.8c-0.3,1.2,1.6,7.7,1.8,9.8
		c-1.4-0.5-3.8,0.7-4.3,0.8s0.1,1.4,2,1.5c0.8-0.4,3.7,0.4,3.9,0.3s1.6-0.4,1.6-0.9c0.1-0.5-0.9-1.6-0.9-1.6c0.2-1.2,1.4-7.5,0-9.7
		C89.7,79.3,89.6,78.4,89.6,78.4z"/>
	<path d="M98.7,86.6c0-1.2-0.1-5.5-2-7.5c0.8-2,0.9-4.1,0.9-4.1c-2.1,1.1-3.3,1.3-4.5,1.6C93,77.3,93.2,78,93.2,78
		c-0.3,0.5,0.3,1.8,0.3,1.8c-0.1,1.2,2.3,6.1,2.9,8.2c-0.8,1.5-3.2,0.7-3.7,0.9s0.3,2,2.2,1.8c1.4-0.3,0.7-0.7,3.4-1.3
		c0.3-0.1,1.5-0.7,1.4-1.2C99.8,87.6,98.7,86.6,98.7,86.6z"/>
	<path d="M39.9,61.2c-11.6,0-22.5,0.8-29.8,1.8c0.1-0.9,0.2-2,0.3-2.4c0.2-0.1,0.2-0.2,0.2-0.4c0-0.1,0.1-0.5,0.1-0.8
		c0-0.2,0.1-0.3,0.1-0.5c0-0.2-1.4-0.6-3.2-0.6c-1.8,0-3.1,0.4-3.1,0.6c0,0,0,0.2,0.1,0.5c0.1,0.4,0.1,0.8,0.1,0.9
		c0,0.1,0,0.2,0.2,0.3c0.1,0.6,0.3,2.4,0.4,3.1c-2.8,0.7-4.9,1.6-4.9,2.4c0,1,2.4,1.9,6.5,2.7c-0.1,0.1-0.1,0.3-0.1,0.4v19.8
		c0,0.5,0.4,0.9,0.9,0.9s0.9-0.4,0.9-0.9V69.4c0,0,0-0.1,0-0.1c0.9,0.2,2,0.3,3,0.4v15c0,0.5,0.4,0.9,0.9,0.9s0.9-0.4,0.9-0.9V69.9
		c7,0.8,16.3,1.3,26.5,1.3c11.4,0,21.7-0.6,28.9-1.6v19.6c0,0.5,0.4,0.9,0.9,0.9s0.9-0.4,0.9-0.9V69.4c0,0,0,0,0,0
		c1.1-0.2,2.1-0.4,3.1-0.5c0,0.1,0,0.1,0,0.2v15.3c0,0.5,0.4,0.9,0.9,0.9s0.9-0.4,0.9-0.9V69c0-0.2-0.1-0.4-0.2-0.6
		c2.7-0.7,4.2-1.4,4.2-2.2C79.5,63.4,61.8,61.2,39.9,61.2z M4.7,59.5c-0.1-0.1,0-0.4,0-0.4c1.2,0.8,5.4,0.5,5.9,0
		c0,0.2-0.1,0.4-0.1,0.4C9,60.1,6.3,60.2,4.7,59.5z M5,61.1C5,61,5,60.6,5,60.6c1.1,0.8,4.8,0.5,5.3,0c0,0.2-0.1,0.4-0.1,0.4
		C8.8,61.6,6.4,61.7,5,61.1z M9.8,64.3c0,0.1-0.1,0.4-0.1,0.4c-1.1,0.4-3,0.5-4.1,0c0-0.1-0.1-0.4-0.1-0.4
		C6.3,64.9,9.4,64.7,9.8,64.3z M39.9,69.5c-20.4,0-37.9-2-37.9-3.7c0-0.4,1.6-1,3.4-1.4c0.3,1.7,0.1,0.8,0.2,1.1
		c0.1,0.3,0.1,1.1,2.1,1.1c2,0,2-0.7,2.1-1c0-0.3,0.2-1,0.2-1.2c0.1-0.1,0.1-0.2,0.1-0.3c0,0,0-0.1,0-0.1c7-0.9,18.3-1.7,29.9-1.7
		c20.4,0,37.6,2,37.6,3.7C77.5,67.5,60.3,69.5,39.9,69.5z"/>
	<path d="M76.4,45.6c-0.9-0.4-2.1-0.5-4.2-0.1c0.1,0,0.4,0.1,0.4,0.1C73.8,45.5,74.2,45.3,76.4,45.6z"/>
	<path d="M72.2,45.5C72.1,45.5,72.1,45.5,72.2,45.5C72.1,45.5,72.1,45.5,72.2,45.5z"/>
	<path d="M73.3,45.8C73.3,45.8,73.3,45.8,73.3,45.8C73.3,45.8,73.3,45.8,73.3,45.8z"/>
	<path d="M73.3,45.8c0.1,0,0.4,0.1,0.4,0.2c0.5-0.1,2.2,0.1,3.5,0.3C75.7,45.7,73.9,45.8,73.3,45.8z"/>
	<circle cx="12.9" cy="41.6" r="1.2"/>
	<path d="M68.7,41.8c-9.9-35.1-49.5-25.1-55-2.8C22.3,14.2,58.3,11,68.7,41.8z"/>
</g>
</svg>
