<?xml version="1.0" encoding="utf-8"?>
<!-- Generator: Adobe Illustrator 19.2.1, SVG Export Plug-In . SVG Version: 6.00 Build 0)  -->
<svg version="1.2" baseProfile="tiny" id="Layer_1" xmlns="http://www.w3.org/2000/svg" xmlns:xlink="http://www.w3.org/1999/xlink"
	 x="0px" y="0px" viewBox="0 0 100 100" xml:space="preserve">
<g>
	<path d="M40.5,85c-1.2,0-2.2,1-2.2,2.2s1,2.2,2.2,2.2s2.2-1,2.2-2.2S41.7,85,40.5,85z M40.7,88.7c-0.9,0-1.6-0.7-1.6-1.6
		c0-0.9,0.7-1.6,1.6-1.6c0.9,0,1.6,0.7,1.6,1.6C42.3,88,41.6,88.7,40.7,88.7z"/>
	<path d="M45.1,73.5c-1.1-0.4-2.4,0.2-2.7,1.4c-0.4,1.1,0.2,2.4,1.4,2.7c1.1,0.4,2.4-0.2,2.7-1.4C46.8,75.2,46.2,73.9,45.1,73.5z
		 M46.1,76.2c-0.3,0.8-1.2,1.3-2,1c-0.8-0.3-1.3-1.2-1-2c0.3-0.8,1.2-1.3,2-1C45.9,74.4,46.4,75.3,46.1,76.2z"/>
	<path d="M43.3,63.7c1.1-1.7,0.7-4-1-5.1c-1.7-1.1-4-0.7-5.1,1c-1.1,1.7-0.7,4,1,5.1C39.9,65.8,42.2,65.4,43.3,63.7z M38.3,64.4
		c-1.2-0.8-1.6-3-0.8-4.3s3.2-1.8,4.5-0.9c1.2,0.8,1.7,2.9,0.9,4.2S39.6,65.2,38.3,64.4z"/>
	<path d="M56.7,21.9c-3.5-1.2-3.3-16.3-2.9-20.6c0,0,0,0,0-0.1c0,0,0-0.1,0-0.1c0,0,0,0,0,0c-0.1-0.3-1.1-0.4-3.5,0
		c-9.8,1.5-15,3.8-16.4,5.4c-0.2,0.3-0.3,0.6-0.2,0.8c0.4,4.1,5.7,9.9,3.6,18C23.5,31.2,13.7,45,13.7,61c0,21.4,17.4,38.8,38.8,38.8
		c21.4,0,38.8-17.4,38.8-38.8C91.3,40.7,72.3,24.2,56.7,21.9z M18.8,49c0.8-1.2,3.1-2.4,6.3-3.3c-0.5,1.6-1,3.3-1.4,5.3
		c-2-0.4-3.7-0.9-5.1-1.5C18.7,49.4,18.7,49.2,18.8,49z M34.5,49.9c0-0.1,0.1-0.1,0.1-0.2c0.7-0.8,2-1.4,3.1-1.1
		c0.3,0.1,0.5,0.2,0.8,0.4c0.3,0.3,0.7,0.6,0.9,1.1c-0.8,1.1-4.9,0.9-5.2,0.3C34.4,50.2,34.4,50.1,34.5,49.9z M34.1,49.7
		c-1.5,0.1-3.1-0.1-4-0.3c0.1-0.3,0.1-0.5,0.2-0.8c0.3-0.6,0.7-1.1,2.2-1.8c-0.2,0,0-0.3-0.1-0.3c-0.9,0.3-1.6,0.9-2,1.6
		c0.1-0.3,0.2-0.6,0.3-1c2-1.5,5.3-2,6.9,1C36.2,48,34.8,48.8,34.1,49.7z M30,49.6c1.1,0.2,2.5,0.3,4,0.3c-0.1,0.1-0.2,0.3-0.2,0.4
		c0.5,1.1,5.4,1,6.4-0.3c-0.3-0.7-0.7-1.1-1.2-1.5c0,0,0,0,0,0c-1.7-3.7-5.4-3.7-8-2.3c0.3-0.8,0.6-1.5,0.9-2.2
		c17.9-3.4,47.9-4.1,51.3-0.9c-8.7,8.5-36.3,10.7-53.5,8.7C29.7,51.1,29.9,50.4,30,49.6z M50.9,1.7c-3.7,1-10.9,2.2-15.6,5.2
		C35.4,6.1,41,3.1,50.9,1.7z M36.6,28.3c-0.9,3-6.4,5.9-6.3,5.7c0.7,0.7,6.8-2.8,7.9-6.5c0.3-0.9,0.6-1.9,0.8-2.9
		c1.9-7.5-3.7-12.4-4-16.8C38,8.1,49.2,4,50.4,3.5c0.5-0.2,1.3-0.6,1.9-0.9c-0.6,13.9,1.8,20.1,3.7,20.3c3.1,0.6,6.2,1.6,9.2,3.1
		c-0.5,3.8-3.6,7.3-8.5,8.4c5.6-0.1,9.1-5.9,9.6-7.9c5.8,3.1,11.1,7.7,15,13.3c-8.2-2.6-32.6,0.1-48.8,3c0.4-0.7,0.9-1.4,1.3-2
		c-2.4,0.7-6.3-1.2-5.9-1.4c-0.6,0.9-1.5,2.6-2.3,4.7c-2.2,0.5-4.1,0.9-5.5,1.3C23.5,38,29.3,32,36.6,28.3z M52.5,95.5
		C32.9,95.5,17,79.6,17,60c0-2.9,0.4-5.7,1-8.4c1.4,0.6,3.2,1.1,5.3,1.5c-1.1,9.2,0.7,21.6,12.6,34.1c-4.2-6.4-7.7-21.2-6.6-33.1
		c16.9,2.2,44.2,1.2,55.3-8.6C86.7,50,88,54.9,88,60C88,79.6,72.1,95.5,52.5,95.5z"/>
</g>
</svg>
