<?xml version="1.0" encoding="utf-8"?>
<!-- Generator: Adobe Illustrator 19.2.1, SVG Export Plug-In . SVG Version: 6.00 Build 0)  -->
<svg version="1.2" baseProfile="tiny" id="Layer_1" xmlns="http://www.w3.org/2000/svg" xmlns:xlink="http://www.w3.org/1999/xlink"
	 x="0px" y="0px" viewBox="0 0 100 100" xml:space="preserve">
<g>
	<path d="M69.1,71.6c-1.3,3.2-8.5,8.1-14.6,10.4c0,0,5.2-1,6.4-1.6c0,0,1.2,13.7,1.5,19.6c0,0,0.2-15-0.1-20.2c3.2-1.8,8-7.2,8.8-9
		c0,0,0,0,0,0c-0.2,0-0.4,0-0.6,0.1C69.9,71.4,69.5,71.6,69.1,71.6z"/>
	<path d="M81.4,28.2c0.5-9.8-2.7-15.3-4.2-17.8C74.1,5.5,75.4,0,75.4,0c-1.1,2.4-1.2,6.5,1,12.1c0.9,2.5,3.6,8,3.3,16.9
		c-2.3,0.9-6.5,2.5-10.1,3.1c-5.2,0.9-20.4,5.5-25.6,7s-16.4,0.6-19.6,0.1c-1.2-0.2-2-0.7-2.7-1.3c0.1-0.5,0.1-1,0.2-1.4
		c0.5-5.9,0.5-11.3,1.9-13.6c4-6.9,4.2-17.9,2.1-20.8c1.1,8-2.4,16.6-3.9,19.1s-1.5,8.2-2,14.5c0,0.1,0,0.3,0,0.4
		c-0.2-0.1-0.3-0.2-0.4,0c-0.6,0.6-1.1,7.8-1.4,14.1C17.9,53,17.9,64,18.5,64c0,0,0.1,0,0.3,0c0.6,10.7,2.7,23.4,8.2,36
		c-4.4-14.3-6.1-26.2-6.7-35.8c5.5,0.7,22.1,2.9,24.7,3.4c3.1,0.6,22,3.8,23,3.9c0.5,0.1,0.8,0.1,1.2,0.1c0,0,0,0,0,0
		c1.1-1.2,1.2-0.8,1.4-1.9c0.2-1.1,8.4-19.6-10.7-25.4C68.2,46.6,69,48,71.9,52c0.6-3.4,1.2-7.2,1.2-7.2c-0.3,5.5-0.8,8.6-0.8,8.6
		c1.5,5.7,2,10.9-1.1,17.4c5.5-0.5,9.4-2.9,12.2-5.6c-1,3.7-2.6,6-3.9,7.8c0,0-6.8,26.9-6.8,26.9c2.8-6.8,8.5-25.5,8.5-25.5
		c1.8-2.5,4-5.7,5-12.1c0.1-0.2,0.3-0.3,0.4-0.5c0.6-2.9,1.8-5.9,1.7-12.5S84.7,31.6,81.4,28.2z M54.8,41.2c6-1,24.5-4.1,25.1-6.5
		C79.8,38.4,56.7,41.9,54.8,41.2z"/>
	<path d="M51.1,25c1.2,1,4.8,7.2,5.5,9.2C55.8,30.8,52.5,25,51.1,25z"/>
	<path d="M67.6,31.2c0.4-1.2,1.2-8.4,2.2-10.4C67.9,21.8,67.8,29.5,67.6,31.2z"/>
	<path d="M91.2,66.9c-0.1,0.2-0.2,0.5-0.3,0.7C91,67.5,91,67.3,91.2,66.9z"/>
	<path d="M92.9,54.8c-1.5-3.4-1.8-8.5-1.1-13s-3.1-13.1-6.6-14.1c4.2,4.1,6,10.6,5.6,13.8s-0.4,11,1.2,13.8
		c1.4,2.4-0.1,9.4-0.9,11.8C93.3,61.2,93.7,57,92.9,54.8z"/>
	<path d="M96.4,55.9C95.2,52,95,46,95.5,40.8s-2.4-15.3-5-16.4c3.2,4.8,4.5,12.4,4.2,16s-0.3,12.8,0.9,16c1.1,2.8-0.1,10.9-0.7,13.7
		C96.7,63.4,97,58.6,96.4,55.9z"/>
	<path d="M95.1,70c-0.1,0.3-0.1,0.5-0.2,0.8C94.9,70.7,95,70.4,95.1,70z"/>
</g>
</svg>
