<?xml version="1.0" encoding="utf-8"?>
<!-- Generator: Adobe Illustrator 19.2.1, SVG Export Plug-In . SVG Version: 6.00 Build 0)  -->
<svg version="1.2" baseProfile="tiny" id="Layer_1" xmlns="http://www.w3.org/2000/svg" xmlns:xlink="http://www.w3.org/1999/xlink"
	 x="0px" y="0px" viewBox="0 0 100 100" xml:space="preserve">
<g>
	<path d="M34.2,73.7c8.2,6.2,15.3,12,16,20.8c0,0,0,0.7,0,0.4c0,0.4,0-0.4,0-0.4c0.4-4.3,2.3-7.9,5.1-11.2
		C50.5,77.6,43.8,72.5,34.2,73.7z"/>
	<path d="M23.4,17.6C19.5,15.1,13.8,6.5,13,0c-2.9,7.9-1.8,17.2,0.5,22.8C14.7,25.4,24.8,18.6,23.4,17.6z"/>
	<path d="M32.6,72.5c9.2-2.3,18.1,1.8,24.5,8.8C69.5,68.9,93.9,60.2,93.9,31c0-4.3-1.8-8.8-4.8-12.4c-0.4,2-1.2,4.9-1.7,5.5
		c-3.6,2.8-13.6-6.2-11.9-7.1c2.2-1.2,4.3-3.2,5.5-4.5c-2.4-1-5-1.6-7.7-1.5c-11.5,0.1-22.8,3-22.9,24.2C50.2,14,38.7,11.1,27.2,11
		c-2.7,0-5.3,0.5-7.7,1.5c1.1,1.3,3.3,3.3,5.5,4.5c1.7,0.9-8.3,9.9-11.9,7.1c-0.6-0.6-1.4-3.5-1.7-5.5c-3,3.6-4.8,8.1-4.8,12.4
		C6.5,53,20.5,63.4,32.6,72.5z M57.5,38c2.9-1.5,6.1-2.2,9.7-2.2c3.8,0,6.8,0.8,9,2.5c2.2,1.7,3.3,4,3.3,6.9c0,3.9-1.7,7.3-5.1,10.3
		c-1.8,1.6-4.1,2.9-6.8,3.9s-5.3,1.5-7.8,1.5c-2.4,0-3.6-0.9-3.6-2.7c0-0.6,0.2-2,0.6-4L59,44c0.2-0.9,0.3-1.5,0.3-1.9
		c0-0.4-0.1-0.7-0.4-1c1.4-0.5,2.3-0.8,2.9-0.8c0.6,0,1,0.4,1,1.1c0,0.2-0.2,1.1-0.5,2.7l-1.7,8.5c-0.4,2.2-0.6,3.5-0.6,4.1
		c0,0.6,0.2,1,0.6,1.3c0.4,0.2,1.2,0.3,2.4,0.3c3.8,0,6.9-1.2,9.5-3.5c2.6-2.3,3.8-5.2,3.8-8.6c0-2.6-0.9-4.7-2.8-6.3
		c-1.9-1.6-4.3-2.4-7.4-2.4c-2.5,0-4.9,0.6-7,1.8s-4,2.9-5.4,5.1c-0.2-0.5-0.4-1.1-0.4-1.7C53.2,41.2,54.7,39.5,57.5,38z M27.1,37.5
		c0.6-0.4,1.6-0.5,4-0.8c0,0,14.1-0.1,17.1-0.1c0,1.4-2.2,2.5-4.7,2.7c-2.2,0.2-5.5,0.2-5.5,0.2L34.4,58c-0.2,1-0.3,1.7-0.3,2
		c0,0.3,0.1,0.6,0.2,1c-1.1,0.6-2.1,0.8-3,0.8c-0.6,0-0.9-0.2-0.9-0.7c0-0.2,0.1-0.9,0.3-2l3.9-19.6h-2.3c-2.6,0-5.8,0.1-7.5,2.8
		C24.8,39.4,26.5,37.9,27.1,37.5z"/>
	<path d="M77.1,17.6c-1.4,1,8.7,7.9,9.9,5.2c2.2-5.5,3.4-14.8,0.5-22.8C86.7,6.5,81,15.1,77.1,17.6z"/>
	<path d="M75.7,67.2c0,0-5.6,4.5-7.2,5.5c3.5-0.1,29.2,6.4,29.3,15.6c0.1,8-9.3,9.5-13.5,9.5c-11.8,0-21.3-8.7-26.7-15.5
		c0,0-16.2-20.8-37.3-2.9c-0.2,0.2-0.5,0.5-0.6,0.5c-4.2,0.3-3.5,5.4-7.1,6.5c3.4-1.7,2.7-4.6,5.8-6.5c0.6-0.4,1.3-0.5,2.3-0.9
		c0.2-0.2,0.5-0.4,0.8-0.7c-0.1-0.5-0.4-0.9-1.2-1.2c-0.9-0.3-1.9,0.1-2.7,0.8c-4,4-1.2,5.4-6.3,9.3c2.8,0.4,9.1,0.3,12.1-2.4
		c1.4-1.3,2.2-3.6,1.1-4.8c-0.8-0.8-1.9-1.6-3.6-0.7c21.1-15.7,34.1,3,35.3,4.2c0,0,13.6,16.5,28.3,16.5c7.2,0,15.6-2.8,15.6-12
		C100,76.9,82.9,71,75.7,67.2z"/>
</g>
</svg>
