<?xml version="1.0" encoding="utf-8"?>
<!-- Generator: Adobe Illustrator 19.2.1, SVG Export Plug-In . SVG Version: 6.00 Build 0)  -->
<svg version="1.2" baseProfile="tiny" id="Layer_1" xmlns="http://www.w3.org/2000/svg" xmlns:xlink="http://www.w3.org/1999/xlink"
	 x="0px" y="0px" viewBox="0 0 100 100" xml:space="preserve">
<g>
	<path d="M36.9,67.1C36.8,70,39.3,80,39.3,80c-1.2-9.5,0-11.8,0-11.8C38.4,68.5,37.2,67.4,36.9,67.1z"/>
	<path d="M36.9,67.1C36.9,67.1,36.9,67.1,36.9,67.1C36.9,67,36.9,67,36.9,67.1z"/>
	<path d="M30.7,90.1c-0.2,0.7,0,2.1,0.4,3.7c0.7,0.1,1.4,0.2,2.1,0.3c-0.2-1.9-0.2-3.4,0-3.8c0.6-1.5,1.5-3.8,5-5
		C34.6,85.8,31.4,87.3,30.7,90.1z"/>
	<path d="M65.6,71.9c0.7-3.1,2.4-6.9,3.1-11.1c4-4.8,6.3-11.1,6.3-18.2c0-3.2-0.5-6.3-1.4-9.2l-0.7-3.3c-1.1-4.7-2.6-14.1-4.3-17.7
		c-3.1-5.8-10.1-9.9-18.3-9.9c-8.1,0-15.1,4-18.2,9.7c-1.4,2.7-3,13.9-4.3,17.8l-0.7,3.1c-1,2.9-1.5,6.1-1.5,9.4
		c0,6.8,2.2,13,6,17.8c0.8,4.5,1.6,8.6,2.3,11.9c-17.1-0.4-34-9.8-34-9.8c0.7,2.3,2.3,28.8,23.7,33.2c1.4,0.4,2.8,0.7,4.3,1
		c0.3,0.1,0.6,0.1,0.9,0.2c0.8,0.1,1.6,0.3,2.5,0.4c0.6,0.1,1.2,0.1,1.9,0.2c4.1,0.4,8.4,0.6,12.8,0.6c0.4,0,0.8,0,1.1,0
		c9.1-0.1,18.2-1.1,24.6-2.2c0.3-0.1,0.7-0.1,1-0.2c0.5-0.1,1-0.2,1.4-0.3c23.7-3.2,25-31.5,25.8-33.9
		C100.1,61.4,82.6,71.2,65.6,71.9z M62,82c0,0-10.4-0.1-12.7,1.5C45.2,81.1,38.1,82,38.1,82c-0.7-9.7-2.6-16.4-3.9-19.1
		c9.5,7.9,24.2,6.4,31.9,0.5C64.3,67.5,62.5,72.2,62,82z M32.7,14C35,7.8,42,3.7,50.4,3.7c10.2,0,18.4,6.2,18.4,14.6
		c0,1.8-0.4,3.7-1.2,5.4c-2.6,5.8-9.3,9.8-17.2,9.8c-4.1,0-7.9-1.1-11-3C33.2,26,30.8,20,32.7,14z M27.9,38.5l3-15.8c0,0,0,0,0.1,0
		c0.5,1.7,1.3,3.4,2.3,4.8c0.5,0.7,1.3,1.6,1.9,2.2c3.7,3.6,9.1,5.9,15.3,5.9c8.3,0,15.5-4.2,18.5-10.2c0.1-0.1,0.1-0.3,0.3-0.5
		c0.4-0.8,0.6-1.6,0.9-2.5l0.9,5c0.2,1.3,0.4,2.2,0.7,4.1l1.2,6.7c0.1,1,0.1,2.1,0.1,3.2c0,1-0.1,2.1-0.2,3.1
		c-1.5,5.2-5.4,12.4-11.8,16.4c-3.5,2.1-13.2,4.6-21.2,0.3c-7.1-3.8-10.7-11.5-12-19.7c0,0,0-0.1,0-0.1
		C27.8,40.4,27.8,39.5,27.9,38.5z M27.7,45.6c1.6,7.9,6.2,13.5,11.3,16.1c9.5,5,18.4,2.2,22.8-0.5c4.7-2.8,8.6-7.5,10.5-13
		c-1.4,5.7-4.8,10.4-9.2,13.6c-6.8,5-16.1,5.8-25.4,0.5C32.1,59.3,28.7,52.6,27.7,45.6z M6,66.8c1.9,3.1,17.9,6.8,28.7,7.8
		c0,0,1.3,2.1,1.3,5.4c-1.8,0.2-15.8-1.8-22-2.8C7.8,76.1,6.5,71,6,66.8z M47.2,96.3c-0.4,0-0.8,0-1.1,0c-4.2-0.1-8.5-0.4-12.9-0.9
		c-0.7-0.1-1.4-0.2-2.1-0.3c-0.8-0.1-7.7-1.6-10.9-4.2C30.6,83.3,48.4,78.2,52,89c0.2-2.3-0.7-3.9-2.1-5c8-2,14.7-1.4,21.3,0.8
		c4.2,1.4,8.3,4.6,8.1,6.4C72,95.6,56.7,96.3,47.2,96.3z M85.6,76.5c-6.2,1-19.3,3.1-21,2.9c-0.4-2.2,0.3-5.2,0.3-5.2
		c10.8-1,26.8-5,28.7-8C93.1,70.4,91.8,75.4,85.6,76.5z"/>
</g>
</svg>
