<?xml version="1.0" encoding="utf-8"?>
<!-- Generator: Adobe Illustrator 19.2.1, SVG Export Plug-In . SVG Version: 6.00 Build 0)  -->
<svg version="1.2" baseProfile="tiny" id="Layer_1" xmlns="http://www.w3.org/2000/svg" xmlns:xlink="http://www.w3.org/1999/xlink"
	 x="0px" y="0px" viewBox="0 0 100 100" xml:space="preserve">
<g>
	<path d="M24.9,13.6c0,2.5-3.8,3.7-3.8,5.3c0,0.5,0.4,0.8,0.8,1l2.5-2.3c1.3-1.2,2.2-2.3,2.2-4.2c0-2.2-1.5-3.3-3.8-3.3
		c-2.1,0-3.2,0.7-3.8,1.3l1.1,1.3c0.5-0.5,1.2-1.1,2.6-1.1C24.1,11.6,24.9,12.3,24.9,13.6z"/>
	<path d="M24,24c0.2,0,0.3,0,0.4,0c0,0-1-1.3-1.2-1.3s-0.6,0.5-0.8,0.5s-0.6-0.5-0.7-0.5c-0.2,0-0.9,0.7-1.3,1.2c0.1,0,0.2,0,0.3,0
		c0.1,0.2,0.5,0.8,0.8,0.8c0.3,0,1.6,0,1.8,0C23.4,24.8,23.8,24.2,24,24z"/>
	<path d="M50.3,43.4c1.6,0,2.6,0.9,2.6,2.4c0,3-4.5,4.4-4.5,6.2c0,0.6,0.4,1,0.9,1.1l2.9-2.7c1.5-1.4,2.6-2.6,2.6-5
		c0-2.5-1.8-3.9-4.5-3.9c-2.5,0-3.7,0.8-4.4,1.5l1.3,1.5C47.8,44.1,48.7,43.4,50.3,43.4z"/>
	<path d="M50.9,56.5c-0.2,0-0.7,0.6-0.9,0.6c-0.2,0-0.7-0.6-0.8-0.6c-0.2,0-1,0.8-1.5,1.4c0.1,0,0.2,0,0.4,0c0.1,0.2,0.6,1,0.9,1
		c0.3,0,1.9,0,2.1,0c0.2,0,0.7-0.7,0.9-1c0.2,0,0.4,0,0.5,0C52.3,58,51.1,56.5,50.9,56.5z"/>
	<path d="M35.1,28.8c-2.3,0-3.4,0.8-4.1,1.4l1.2,1.4c0.5-0.5,1.3-1.1,2.8-1.1c1.5,0,2.4,0.8,2.4,2.2c0,2.8-4.1,4-4.1,5.7
		c0,0.6,0.4,0.9,0.8,1.1l2.7-2.5c1.4-1.3,2.4-2.4,2.4-4.6C39.3,30.1,37.7,28.8,35.1,28.8z"/>
	<path d="M49.8,96c0,0,0.1-0.8,0.4-1c0,0-0.7,0-1,0.4C49.2,95.4,49.5,95.7,49.8,96z"/>
	<path d="M68.1,28.9c1.4,0,2.2,0.8,2.2,2.1c0,2.6-3.9,3.8-3.9,5.4c0,0.5,0.4,0.8,0.8,1l2.5-2.3c1.3-1.2,2.3-2.3,2.3-4.3
		c0-2.2-1.5-3.4-3.9-3.4c-2.2,0-3.2,0.7-3.8,1.3l1.1,1.3C65.9,29.5,66.6,28.9,68.1,28.9z"/>
	<path d="M68.5,40.2c-0.2,0-0.6,0.5-0.8,0.5c-0.2,0-0.6-0.5-0.7-0.5c-0.2,0-0.9,0.7-1.3,1.2c0.1,0,0.2,0,0.3,0
		c0.1,0.2,0.5,0.8,0.8,0.8c0.3,0,1.6,0,1.8,0c0.2,0,0.6-0.6,0.7-0.8c0.2,0,0.3,0,0.4,0C69.8,41.5,68.7,40.2,68.5,40.2z"/>
	<path d="M80.8,10.9c1.4,0,2.3,0.8,2.3,2.2c0,2.7-4,3.9-4,5.6c0,0.6,0.4,0.9,0.8,1l2.6-2.4c1.3-1.2,2.4-2.4,2.4-4.4
		c0-2.3-1.6-3.5-4-3.5c-2.2,0-3.3,0.7-3.9,1.3l1.2,1.4C78.6,11.6,79.4,10.9,80.8,10.9z"/>
	<path d="M99.8,27.3c0,0-4.6-22.4-14.3-24.9c0.1-0.7-0.3-1.3-1-1.5c-0.6-0.2-1.2,0-1.8,0.3c0,0,0,0,0,0c-0.5,0.3-1.3,1.4-1.3,2.5
		c-0.2-0.4-0.2-0.8,0-1.2c-0.1,0-0.3,0.1-0.4,0.1c-0.3-0.1-0.6-0.2-0.8-0.3c0,0,0,0,0,0c-0.3-1-1.3-1.8-2.4-1.7
		c-0.8,0.1-1.4,0.7-1.4,1.5c0,0,0,0,0,0c0,0.7,0.5,1.7,1.2,2.3c-1-0.2-1.5-1.5-1.6-2.2c-6.4,1.6-10.5,11.3-12.2,18.4
		c0.3,0,0.7-0.1,1-0.1c-7.7,0.6-10,6-10.2,11.4c-1.1-0.1-2.2,0-3.5,0.2c-0.8-0.1-1.6-0.2-2.4-0.3c0,0,0,0,0,0
		c-0.7-2.3-1.9-4.4-3.6-6C47.8-4.1,37.6,0.2,34.7,4c0,0-2.9,0.3-5.8,1.3c-1.8-1-4-1.6-6.2-1.6c-2,0-3.9,0.5-5.6,1.3
		c-2.9-1-5.8-1.3-5.8-1.3C8.2-0.4-3.3-5,1.9,33c0.3-14.6,6-14.1,7.4-25.3c0.2,1.7,0.9,3.5,1.2,4.7c-0.5,1.4-0.8,2.8-0.8,4.3
		c0,5,2.8,9.3,7,11.5c-1.1-0.3-2.5-0.7-3.7-1.1c0,0,0,0-0.1,0c-2.1-0.3-4.4,1.2-5.4,3.5c-1.7,2-4.1,8.7-4.1,9.8
		c-0.4,0.5-0.2,1.7-0.2,1.7c1.4,2,5.6,4.7,8.3,6.3c0.1,1.7,0.3,4.1,1.9,4.9c0-0.2,0.1-0.5,0.1-0.8c-0.2,1.8-0.4,4-0.6,4.7
		c0.4-0.5,0.9-5.8,1.1-7.1c1.2,0.4,2.8,0.8,4.6,1c-1.8,2.3-4.4,9.4-4.4,10.6c-0.5,0.5-0.2,1.8-0.2,1.8c1.5,2.1,6,5.1,8.9,6.9
		c0.1,1.9,0.3,4.4,2.1,5.3c0.1-0.3,0.1-0.5,0.1-0.8c-0.2,2-0.4,4.3-0.6,5.1c0.4-0.6,1-6.2,1.2-7.7c0.9,0.3,2,0.6,3.3,0.8
		c0,0,0,0,0,0c-0.8,2-1.3,3.8-1.3,4.3c-0.5,0.6-0.3,1.9-0.3,1.9c1.6,2.3,6.5,5.5,9.7,7.4c0.1,2,0.4,4.8,2.3,5.7
		c0.1-0.3,0.1-0.6,0.2-0.9c-0.2,2.2-0.5,4.7-0.7,5.5c0.5-0.6,1.1-6.8,1.3-8.3c4.1,1.6,13.4,2,18.6,0.3c0.2,2.1,0.9,8,1.1,8.3
		c-0.1-1.4-0.5-6.8-0.7-8.5c0.1,0,0.2-0.1,0.4-0.1c-0.3-3.7,0.4-8.7,0.9-10.9c0.1,0.8,0.2,2.3,0.7,3.7c-0.8,1.1-0.9,8.6,0,11.3
		c-0.7,0.9,0,2.1,0.1,2.3c0.7,0.9,0.3,2.1,0.2,3c-0.1,0.9,0,1.9,0.6,2c0.6,0.1,3.9-3.9,3-7c0.7-1.3,1.6-8.2,1.1-11.3
		c0.5-1.1,1.2-9.1,0.8-12.5c3.1,0.1,6.3-0.2,8.5-0.9c0.2,1.8,0.8,6.9,0.9,7.2c-0.1-1.2-0.5-5.9-0.6-7.3c0.1,0,0.2-0.1,0.3-0.1
		c-0.2-3.2,0.3-7.6,0.8-9.4c0,0.7,0.2,2,0.6,3.2c-0.7,0.9-0.8,7.5,0,9.7c-0.6,0.8,0,1.8,0.1,2c0.6,0.8,0.2,1.8,0.1,2.6
		c-0.1,0.8,0,1.7,0.5,1.7c0.5,0.1,3.3-3.4,2.6-6.1c0.6-1.1,1.4-7.1,0.9-9.7c0.4-0.9,1-6.9,0.8-10.1c0,0.2,0,0.3,0,0.5
		c2.2-0.1,4.3-0.4,6-0.9c0.2,1.9,0.8,7.1,1,7.4c-0.1-1.2-0.5-6.1-0.6-7.6c0.1,0,0.2-0.1,0.3-0.1c-0.3-3.3,0.3-7.8,0.8-9.7
		c0,0.7,0.2,2.1,0.6,3.3c-0.7,1-0.8,7.7,0,10c-0.6,0.8,0,1.9,0.1,2c0.6,0.8,0.2,1.8,0.2,2.6c-0.1,0.8,0,1.7,0.5,1.8
		c0.5,0.1,3.4-3.5,2.7-6.3c0.6-1.2,1.5-7.3,1-10.1c0.5-1,1.2-9.1,0.6-11.8c0.4-0.8,0.1-3.5-1.4-5.2C97.1,28.2,100.1,28.1,99.8,27.3z
		 M80.3,6.2c1.1,2,9.3,3.9,12.4,8.4c0.2,0.8,0.2,1.6,0.2,2.4c0,6.5-5.1,11.7-11.5,12c-0.3-1.5-0.8-2.9-1.6-4.1c0.5,0,1.4,0,1.6,0
		c0.2,0,0.6-0.6,0.8-0.9c0.2,0,0.3,0,0.4,0c0,0-1.1-1.3-1.3-1.3c-0.2,0-0.6,0.6-0.8,0.6c-0.2,0-0.6-0.5-0.8-0.5
		c-0.1,0-0.6,0.4-1,0.8c-1.8-1.8-4.6-3-8.8-2.8l0,0C69,13.9,77.8,8.7,80.3,6.2z M81.6,29.8c2.1-0.1,4.1-0.7,5.8-1.6
		c0.6-0.1,1.2-0.2,1.7-0.4c0.3,0,0.6,0.1,0.9,0.1c-0.9,1.2-2.3,4.4-3,4.6c-0.9,0.2-2.5,0.8-3.7,1.4c-0.6,0.3-1.1,0.9-1.7,1.2
		C81.8,33.5,81.9,31.7,81.6,29.8z M88.1,27.7c0.1-0.1,0.2-0.2,0.4-0.3c-0.1,0.1-0.1,0.1-0.2,0.2C88.2,27.7,88.2,27.7,88.1,27.7z
		 M81,36.5c-0.1,0.4-0.2,0.8-0.3,1.2C80.8,37.3,80.9,36.9,81,36.5z M80.4,38.4c-0.1,0.1-0.1,0.3-0.2,0.4
		C80.3,38.7,80.4,38.6,80.4,38.4z M79.9,39.7c0,0.1,0,0.1-0.1,0.2C79.9,39.8,79.9,39.8,79.9,39.7z M68.6,20.8
		c-0.6-0.1-1.1-0.1-1.7-0.1C67.4,20.7,68,20.8,68.6,20.8z M66.4,20.7c-0.4,0-0.8,0-1.1,0C65.6,20.7,66,20.7,66.4,20.7z M63.4,24.3
		c0.5-0.3,1-0.5,1.4-0.8c1-0.3,2.1-0.5,3.2-0.5c1.5,0,2.9,0.3,4.2,0.8c0.2,0.1,0.3,0.3,0.5,0.4c1.1,1.5,4.1,13.7,3,15.9
		c1.5-0.7,2.6-1.4,3.5-2.1c-1.5,4.8-5.9,8.3-11.2,8.3c-1,0-1.9-0.1-2.8-0.3c0,0,0,0,0,0c-0.8-4.5-2.4-8.6-4.9-11.2c0,0,0,0,0,0
		C61,30.1,62.4,24.6,63.4,24.3z M67.8,50.8c-0.5-0.7-1.1-0.9-1.6-1.4c1.1,0.8,1.7,2.3,1.7,3c-0.3-0.1-0.7-0.2-1.2-0.5
		c-0.2-0.1-0.4-0.3-0.7-0.4c-0.1-1.5-0.3-3-0.5-4.5c0.8,0.2,1.7,0.3,2.6,0.3c2.3,0,4.5-0.6,6.4-1.6c1-0.2,2.3-0.5,2.8-0.6
		c0,0.1-0.1,0.2-0.1,0.3c-0.9,1.2-2.2,4.3-3,4.5c-0.9,0.2-2.5,0.8-3.6,1.4c-0.8,0.4-1.4,1.3-2.4,1.3c0-1.6,0.4-2.4,1-3
		C68.9,49.7,68.4,50.1,67.8,50.8z M66,62.4c0,0,0,0.1,0,0.1C66,62.5,66,62.4,66,62.4z M77.3,43.5C77.3,43.5,77.3,43.4,77.3,43.5
		C77.3,43.4,77.3,43.5,77.3,43.5z M76.2,44.4c0,0,0.1-0.1,0.1-0.1C76.3,44.3,76.3,44.4,76.2,44.4z M60.2,40.8
		c0.1,0.2,0.3,0.3,0.4,0.5c0.8,5.8,0.7,13.1,0.3,17.3c0,0-0.1,0.1-0.1,0.1C61,54.9,60.8,48.5,60.2,40.8z M60.6,60.7
		c0,0.1,0,0.1,0,0.2C60.6,60.8,60.6,60.7,60.6,60.7C60.6,60.7,60.6,60.7,60.6,60.7z M59.9,37.7C59.9,37.7,59.9,37.7,59.9,37.7
		c0-0.1-0.1-0.2-0.1-0.3C59.9,37.5,59.9,37.6,59.9,37.7z M58.5,33.4c0,0-0.1,0-0.1-0.1C58.4,33.4,58.5,33.4,58.5,33.4z M55.4,32.3
		C55.3,32.3,55.3,32.3,55.4,32.3C55.3,32.3,55.3,32.3,55.4,32.3z M57.8,38.8c0.1,0.1,0.2,0.3,0.3,0.4c1,2.5,1.8,14.4,1.3,21
		c-2.4,2.1-5.5,3.5-9,3.5c-3.7,0-7-1.5-9.4-3.8c-0.1-8.6,0.8-19.9,2.2-20.6c0.5-0.5,1-1,1.6-1.4c1.7-0.8,3.6-1.3,5.7-1.3
		C53.1,36.6,55.6,37.4,57.8,38.8z M59.2,61.8c0,0.1,0,0.2,0,0.3c-0.2,0.1-0.5,0.1-0.7,0.2C58.7,62.1,59,61.9,59.2,61.8z M43.4,62.9
		c-0.7-0.2-1.5-0.4-2.4-0.7c0-0.3,0-0.6,0-0.9C41.7,62,42.5,62.5,43.4,62.9z M41.2,37.4C41.2,37.4,41.2,37.4,41.2,37.4
		C41.2,37.4,41.2,37.4,41.2,37.4C41.2,37.4,41.2,37.4,41.2,37.4z M47.8,32.1c-0.1,0-0.2,0-0.2,0C47.6,32.1,47.7,32.1,47.8,32.1z
		 M46.7,32.2c-5.6,0.5-9.1,4.4-11.1,10.3c0,0,0,0,0,0c0,0-0.1,0-0.1,0c-0.2,0-0.6,0.6-0.8,0.6c-0.2,0-0.6-0.5-0.8-0.5
		c-0.2,0-1,0.7-1.4,1.3c0.1,0,0.2,0,0.3,0c0.1,0.2,0.5,0.9,0.8,0.9c0.2,0,0.8,0,1.3,0c-0.3,1.3-0.6,2.8-0.8,4.3
		c-6.5-0.5-11.6-5.8-11.6-12.4c0-4.1,2-7.7,5-10c2.8,1.6,12.1,2.2,15,0.1C44.5,28.1,45.9,30,46.7,32.2
		C46.7,32.2,46.7,32.2,46.7,32.2z M38.7,56.9c-0.1-0.2-0.3-0.5-0.4-0.7c-0.4-3.9-0.4-9,0.7-13.4c0.4-0.6,0.9-1.2,1.4-1.8
		C39,47.4,38.5,53,38.7,56.9z M39.3,60.9c-0.2-0.4-0.3-1-0.5-1.6c0,0,0.1,0.1,0.1,0.1C39,60,39.1,60.5,39.3,60.9z M33.6,55
		C33.6,55,33.6,55,33.6,55c-2.1-1.5-5.9-1.5-6.9-2.6c-0.9-1-1.1-3-1.9-4.4c0,0,0-0.1,0-0.1c1,0.3,3.6,0.9,4.8,1
		c1.4,0.6,2.9,1,4.5,1.1C33.8,51.6,33.7,53.3,33.6,55z M21.1,36c0-0.5,0-0.9,0.1-1.4C21.1,35.1,21.1,35.6,21.1,36z M19.7,44
		c0,0,0.1-0.1,0.1-0.1C19.8,43.9,19.7,44,19.7,44z M18.6,44.4c0,0,0.1,0,0.1,0C18.7,44.4,18.6,44.4,18.6,44.4z M18.9,44.4
		c0,0,0.1,0,0.1,0C19,44.4,18.9,44.4,18.9,44.4z M19.2,44.4c0,0,0.1,0,0.1-0.1C19.2,44.3,19.2,44.3,19.2,44.4z M19.4,44.2
		c0,0,0.1-0.1,0.1-0.1C19.5,44.2,19.5,44.2,19.4,44.2z M34.8,18.8C34.8,18.8,34.8,18.8,34.8,18.8C34.8,18.8,34.8,18.8,34.8,18.8z
		 M36.7,8c-0.1,6.5,3.9,9.3,6.1,16.4c-2-1.3-4.3-2.1-6.8-2.3c0.2-0.8,0-1.9-0.7-2.8c0.2-0.8,0.3-1.7,0.3-2.6c0-1-0.1-2-0.3-2.9
		c0,0,0,0,0.1,0C35,13.6,36.5,10.6,36.7,8z M11.2,17.3c0-1.4,0.3-2.8,0.7-4.1c2.2-1.1,4.7-4.3,5.7-6.3c1.5-0.7,3.2-1.2,5-1.2
		c2.1,0,4.1,0.6,5.8,1.5c1,1.8,3,4.5,5,5.8c0.5,1.3,0.8,2.7,0.8,4.2c0,0.4,0,0.8-0.1,1.1c-0.6-0.3-1.3-0.4-2.2-0.4
		c-5.5,0-8.6,8-9.3,10.8c0,0,0,0,0,0C16.3,28.8,11.2,23.6,11.2,17.3z M17.6,28.6c1.5,0.6,3.2,1,4.9,1c0,0,0,0,0,0.1c0,0,0,0,0,0.1
		c-0.7,1.4-1.1,2.8-1.3,4.4c-2-1.3-5.4-1.4-6.3-2.4c-0.9-1-1.1-2.8-1.7-4.1c0,0,0-0.1,0-0.1C14.1,28,16.5,28.5,17.6,28.6z
		 M22.6,29.3C22.6,29.3,22.6,29.3,22.6,29.3C22.6,29.3,22.6,29.3,22.6,29.3z M13.1,52.2c-0.7-1.4-1.2-2.3-1-3.9
		c0.3-0.3,0.5-0.6,0.7-1c-0.3,0.2-0.7,0.4-0.9,0.6c-2.2-1.2-6.8-3.9-8-6c0,0-0.1-1.1,0.2-1.6c0-1,2.9-7.4,4.1-9.4
		c0.8-2.2,2.6-3.4,4.1-3.1c1.2,4.1-0.4,5.7-0.5,6c-0.1,0.3-2.9,5.7-3.7,7.1c0,0,0,0,0,0c-0.7,0.2-2.5,0.3-2.5,0.3
		C6.7,42,8,41.9,8,41.9c0.2,0.1,3.3,2.8,5,4.9c0,0,0.1,0.1,0.1,0.3c0,0,0,0,0,0C13.2,48.6,13.1,52.2,13.1,52.2z M8.5,41.5
		c-0.3-0.1,0-0.3,0-0.3c0.7-0.9,2.1-3.8,3.1-5.7c-0.1,1.8,0.7,3.4,1.9,4.4c0.3,2.4,0.4,4.8,0.4,6.7C11.6,44.4,8.7,41.5,8.5,41.5z
		 M13.9,40.2c1.4,1.2,4.6,1.5,6.7,0.2c0.3-0.2,0.6-0.3,0.9-0.4c-0.2,1.2-0.6,2.4-1.2,3.2c0.5-0.8,0.9-1.8,1.1-2.9
		c-0.3,0.1-0.6,0.3-0.8,0.4C19.7,41.1,16,42.7,13.9,40.2z M19.9,43.8c0-0.1,0.1-0.1,0.1-0.2C20,43.7,20,43.7,19.9,43.8z M20.2,43.5
		c0.1-0.1,0.1-0.1,0.2-0.2C20.3,43.4,20.2,43.4,20.2,43.5z M18.4,44.4C18.4,44.4,18.3,44.4,18.4,44.4C18.3,44.4,18.4,44.4,18.4,44.4
		z M24.7,74.4c-0.7-1.5-1.3-2.5-1.1-4.2c0.3-0.3,0.5-0.7,0.7-1c-0.4,0.2-0.7,0.4-1,0.6c-2.4-1.3-7.4-4.2-8.6-6.5
		c0,0-0.2-1.2,0.2-1.7c0-1.1,3.1-8,4.5-10.1c0.8-2.4,2.8-3.7,4.5-3.4c1.2,4.5-0.5,6.2-0.5,6.5c-0.1,0.3-3.1,6.2-4,7.7c0,0,0,0,0,0
		c-0.7,0.2-2.7,0.3-2.7,0.3c1.2,0.9,2.6,0.7,2.6,0.7c0.2,0.1,3.6,3,5.4,5.3c0,0,0.1,0.1,0.1,0.4c0,0,0,0-0.1,0
		C24.9,70.5,24.7,74.4,24.7,74.4z M19.7,62.8c-0.3-0.1,0-0.3,0-0.3c0.7-1,2.3-4.1,3.4-6.2c-0.1,1.9,0.8,3.6,2,4.8
		c0.3,2.6,0.5,5.2,0.5,7.3C23.1,66,20,62.8,19.7,62.8z M25.6,61.4c1.5,1.3,5,1.6,7.3,0.2c0.2-0.1,0.5-0.3,0.7-0.4c0,0.1,0,0.2,0,0.3
		c0,0,0,0,0,0c-0.2,0.1-0.5,0.2-0.7,0.3C31.9,62.4,27.8,64.2,25.6,61.4z M29.9,70.8c0,0,0,0.1,0,0.1C29.9,70.9,29.9,70.8,29.9,70.8z
		 M32.2,66.3c0,0.1-0.1,0.1-0.1,0.2C32.1,66.4,32.2,66.4,32.2,66.3z M31.8,67c-0.1,0.1-0.1,0.2-0.2,0.3C31.7,67.2,31.7,67.1,31.8,67
		z M31.3,67.8c-0.1,0.1-0.1,0.2-0.2,0.3C31.2,68,31.3,67.9,31.3,67.8z M30.9,68.7c-0.1,0.1-0.1,0.2-0.2,0.3
		C30.8,68.9,30.8,68.8,30.9,68.7z M30.4,69.7c0,0.1-0.1,0.2-0.1,0.3C30.3,69.8,30.4,69.7,30.4,69.7z M39.1,91.1
		c-0.8-1.7-1.4-2.7-1.2-4.6c0.3-0.3,0.6-0.8,0.8-1.1c-0.4,0.2-0.8,0.5-1.1,0.7c-2.6-1.4-8-4.5-9.4-7c0,0-0.2-1.3,0.2-1.9
		c0-1.2,3.4-8.7,4.8-11c0.7-2,2-3.2,3.4-3.6c0.5,0.1,1.1,0.3,1.6,0.6c1,4.4-0.7,6.1-0.7,6.4c-0.1,0.3-3.4,6.7-4.3,8.3c0,0,0,0,0,0
		c-0.8,0.3-2.9,0.3-2.9,0.3c1.3,0.9,2.8,0.8,2.8,0.8c0.3,0.1,3.9,3.3,5.9,5.8c0,0,0.1,0.2,0.1,0.4c0,0,0,0-0.1,0
		C39.3,86.8,39.1,91.1,39.1,91.1z M33.6,78.5c-0.4-0.1,0-0.3,0-0.3c0.8-1.1,2.5-4.4,3.6-6.7c-0.1,2.1,0.9,3.9,2.2,5.2
		c0.3,2.8,0.5,5.6,0.5,7.9C37.3,82,34,78.6,33.6,78.5z M41.3,66c-0.1-0.9-0.2-2-0.3-3.2c1.2,0.3,2.5,0.5,3.3,0.6
		c1.8,0.8,3.8,1.2,6,1.2c2.7,0,5.2-0.7,7.3-1.9c0.5-0.1,1-0.2,1.4-0.3c-0.1,0.4-0.1,0.7-0.2,1c0.7-0.5,1.3-0.9,1.8-1.1
		c0,0,0,0.1,0,0.1c-1,1.3-2.6,5-3.4,5.2c-1,0.2-2.8,0.9-4.2,1.6c-1,0.4-1.6,1.5-2.7,1.5c-0.1-1.9,0.5-2.8,1.1-3.5
		c-0.2,0.3-0.8,0.8-1.5,1.6c-0.6-0.8-1.3-1.1-1.9-1.6c1.2,0.9,1.9,2.6,1.9,3.5c-0.4-0.1-0.8-0.2-1.4-0.6c-2.3-1.6-6.4-1.6-7.5-2.8
		c-0.6-0.6-0.9-1.6-1.2-2.6C40.7,65.3,41.2,66,41.3,66z M52.7,77.4c-2.4-1.2-3.7-0.2-4.8,0.2S42.5,80,40,77c1.7,1.4,5.4,1.8,7.9,0.3
		c2.1-1.3,4-0.6,6,0.3c1.7,0.8,6.6,0.5,7.6-1.6C60.3,78.7,55.9,79.1,52.7,77.4z M65.4,81.7c0.4,3.1-0.6,10-1.1,11.3
		c0.7,3.1-1.8,6.2-2.2,6.1c-0.4-0.1,0.2-0.7,0.3-1.5c0.1-0.9,0.2-1.6-0.3-2.5c-0.1-0.1-0.6-1.4-0.1-2.3c0,0,0,0,0,0
		c0.4,0,0.8,0,1.2-0.1c-0.3,0-0.9-0.1-1.3-0.3c-0.5-2.7-0.5-8.6,0-10.4c0.6-0.1,1.5-0.3,2-0.6c0,0-1.1,0.1-1.9,0
		c-0.5-2.1-0.4-4.3-0.4-4.3c0-0.1,0.1-0.3,0.1-0.5c1.8-2,2.1-5.3,0.7-8.1c-1.8-3.7-1.3-5.4-0.6-6.6c0.4-0.1,0.7-0.1,1.1-0.1
		c2.8,0.8,3.4,5.5,2.9,6.6C66.4,71.5,65.8,80.5,65.4,81.7z M70.1,58.3c-1.9-1-3-0.3-3.9,0.1c0,0,0,0,0,0c0-0.1,0-0.2,0-0.3
		c0,0,0,0,0,0c1.7-0.9,3.3-0.3,4.9,0.4c1.4,0.7,5.7,0.4,6.6-1.4C76.7,59.4,72.9,59.7,70.1,58.3z M66.1,61.2
		C66.1,61.2,66.1,61.2,66.1,61.2C66.1,61.2,66.1,61.2,66.1,61.2z M66.1,59.8C66.1,59.8,66.1,59.8,66.1,59.8
		C66.1,59.8,66.1,59.8,66.1,59.8z M81.1,62c0.3,2.6-0.5,8.6-0.9,9.7c0.6,2.7-1.5,5.4-1.9,5.3c-0.4-0.1,0.2-0.6,0.3-1.3
		c0.1-0.8,0.2-1.4-0.3-2.2c-0.1-0.1-0.5-1.2-0.1-2c0,0,0,0,0,0c0.3,0,0.7,0,1.1-0.1c-0.3,0-0.8-0.1-1.2-0.3c-0.4-2.3-0.4-7.4,0-9
		c0.5-0.1,1.3-0.2,1.7-0.5c0,0-1,0.1-1.7,0c-0.4-1.8-0.3-3.7-0.3-3.7c0-0.1,0.1-0.3,0.1-0.4c1.6-1.7,1.8-4.6,0.6-7
		c-1.6-3.2-1.1-4.7-0.5-5.7c0.2-0.1,0.5-0.1,0.8,0c2.5,0.5,3.1,4.7,2.7,5.8C82,53.2,81.4,61,81.1,62z M82.3,51.3c0,0.1,0,0.2,0,0.4
		C82.3,51.5,82.3,51.4,82.3,51.3z M82.2,50.6c0,0.1,0.1,0.3,0.1,0.5C82.3,51,82.2,50.8,82.2,50.6z M83,41.2c-1.9-1-3-0.4-3.9,0
		c0,0,0,0,0,0c0.1-0.1,0.2-0.3,0.3-0.4c1.6-0.7,3.1-0.1,4.7,0.6c1.5,0.7,5.9,0.4,6.8-1.4C89.7,42.4,85.8,42.7,83,41.2z M94.8,33.3
		c0.4,2.7-0.1,10.7-0.4,11.8c0.4,2.7-0.5,8.9-1,10.1c0.6,2.8-1.6,5.5-2,5.5c-0.4-0.1,0.2-0.6,0.3-1.4c0.1-0.8,0.2-1.4-0.3-2.2
		c-0.1-0.1-0.5-1.2-0.1-2c0,0,0,0,0,0c0.3,0,0.7,0,1.1-0.1c-0.3,0-0.8-0.1-1.2-0.3c-0.4-2.4-0.4-7.7,0-9.3c0.5-0.1,1.3-0.2,1.8-0.5
		c0,0-1,0.1-1.7,0C90.8,43,90.9,41,90.9,41c0-0.1,0.1-0.3,0.1-0.4c1.6-1.8,1.9-4.7,0.6-7.2c-1.4-2.8-1.2-4.4-0.8-5.4
		c0.7,0.1,1.5,0.1,2.4,0.1C94.8,29.5,95.1,32.5,94.8,33.3z"/>
</g>
</svg>
