<?xml version="1.0" encoding="utf-8"?>
<!-- Generator: Adobe Illustrator 19.2.1, SVG Export Plug-In . SVG Version: 6.00 Build 0)  -->
<svg version="1.2" baseProfile="tiny" id="Layer_1" xmlns="http://www.w3.org/2000/svg" xmlns:xlink="http://www.w3.org/1999/xlink"
	 x="0px" y="0px" viewBox="0 0 100 100" xml:space="preserve">
<g>
	<path d="M88.4,4.4c-12-8-28.2-4.8-36.2,7.2c-3.8,5.6-5.1,12.2-4.1,18.4c-15.2-5.4-32.6-0.1-42,13.9C-5,60.4-0.5,82.7,16,93.8
		c1.7,1.1,3.3,2,5,2.8c0.9,0.5,1.7,0.7,3.1,1.3c15.1,5.4,32.6,0,41.9-13.9c6.5-9.8,7.6-21.6,4-32c9.7,1.5,19.9-2.6,25.7-11.3
		C103.6,28.7,100.4,12.5,88.4,4.4z M67.9,22.1c-0.6,0.2-1.1,0.3-1.7,0.5c0.1,0,0.2,0.1,0.2,0.1c0.8,2.2,1.9,7.9,1.9,7.9
		c-0.4,0.2-0.8,0.3-1.2,0.5c0,0,0,0,0,0c0.4,2.8-0.9,4.4-1.6,4.7c-0.9,0.3-3.3,1.1-4.6-1.7c0,0-0.5-1-0.8-2c0,0,0,0,0,0
		c-0.3,0-0.6-0.1-0.8-0.1c-0.8-1.6-0.8-4.4-0.5-6.1c-1.3,0.7-2.2,1.2-2.2,1.2c-0.7-0.9-0.7-0.9-0.7-0.9
		C59.1,24.5,63.4,22.7,67.9,22.1z M63.8,83.7c-10,15.1-30.4,19.1-45.5,9.1C3.1,82.7-0.9,62.3,9.2,47.2c8.9-13.4,26-18.1,40.3-11.9
		c1.8,0.8,3.6,1.7,5.2,2.8c5.1,3.4,8.9,7.9,11.3,13C70.9,61.2,70.5,73.6,63.8,83.7z M83.4,46.7c-0.7,0.4-6.6,3.3-15.2,1.4
		c-0.3-0.6-0.6-1.2-0.9-1.8c0.1,0,0.2,0,0.3,0c1.9,0.3,4,0.8,7.8,0.5s7.6-1.2,8.4-2.5C83.9,44.1,84.2,46.2,83.4,46.7z M67.9,46.2
		c-0.3-0.1-0.5-0.1-0.7-0.2c-0.2-0.4-0.5-0.8-0.7-1.2c0-0.1-0.1-0.2-0.1-0.4c5.9,2.1,11.2,2,17.7-2C84.1,47.8,69.2,46.5,67.9,46.2z
		 M79.8,23.9c0,0-0.9,4.5-0.6,6.1c2,0.6,4.1,1.2,7,0.7c0,0,0.6-2.3,0.6-4.3c0.6,1.2,1,3.4,0.1,5.6c-0.3,0.1-0.5,0.1-0.9,0.1
		c0,0,0,0,0,0c-0.3,0.9-0.8,2-0.8,2c-2.9,0.6-4.3,1.5-4.6,1.7c-0.7-0.3-2.1-1.9-1.7-4.7c0,0,0,0,0,0c-0.4-0.1-0.7-0.3-1.1-0.5
		c0,0,0.4-4.8,1.2-7c0,0,0,0,0.1,0c-0.4-0.2-0.8-0.4-1.1-0.6c0,0,0,0,0.7-0.9c0,0,5.8,3.3,11.3,4.9C86.4,26.5,82.7,25.3,79.8,23.9
		C79.8,23.9,79.8,23.9,79.8,23.9z"/>
	<path d="M66.8,30c0.3-1.5-1.1-7.1-1.1-7.1c0,0,0-0.1,0-0.1c-2.5,0.9-4.8,2-6.6,2.8c0.1,2.1,0.6,5.1,0.6,5.1
		C62.7,31.2,64.9,30.6,66.8,30z"/>
	<path d="M63.1,32.1c0.1,0.2,0.1,0.3,0.1,0.3c0.4,0.9,0.8,0.9,1.4,0.9c0.5-0.2,0.7-0.5,0.7-1c0-0.2,0-0.4-0.1-0.6
		C64.5,31.8,63.8,32,63.1,32.1z"/>
	<path d="M81.3,33.5c0.8-0.1,1.1-0.6,1.2-1.5c-0.8-0.1-1.5-0.3-2.2-0.5c0,0.3,0,0.7,0,0.7C80.4,33.3,80.7,33.4,81.3,33.5z"/>
	<path d="M26.5,70.8c0.6-0.2,1.1-0.4,1.6-0.7c0,0-1.5-7.8-2.6-10.9c0,0-0.1-0.1-0.2-0.1c0.8-0.3,1.6-0.5,2.3-0.7
		c-6.1,0.8-12.2,3.2-16.5,5.5c0,0,0,0,0.9,1.2c0,0,1.2-0.7,3-1.6c-0.5,2.4-0.4,6.2,0.7,8.4c0.3,0.1,0.7,0.2,1.1,0.2
		c0.4,1.3,1.1,2.8,1.1,2.8c1.9,3.9,5.2,2.8,6.4,2.4C25.3,76.8,27.1,74.6,26.5,70.8z M16.6,70.2c0,0-0.7-4.1-0.9-7
		c2.4-1.2,5.6-2.7,9-3.9c0,0,0,0.1,0,0.1c0,0,1.9,7.7,1.5,9.8C23.6,70.1,20.6,70.9,16.6,70.2z M19,74.6c0,0-0.6-1.3-0.9-2.3
		c0.9,0,1.9,0,2.9-0.2c0.1,0.4,0.2,0.7,0.2,0.7c0.6,1.3,1.1,1.3,1.9,1.2c1.1-0.4,1.2-1.2,0.9-2.4c0.4-0.1,0.8-0.2,1.2-0.3
		c0.8,3.1,0.8,5-1.8,6.1C21.5,77.6,20.4,77.5,19,74.6z"/>
	<path d="M42.7,58.4c-0.9,1.2-0.9,1.2-0.9,1.2c0.5,0.3,1,0.5,1.6,0.8c-0.1,0-0.1,0-0.1,0c-1.1,3.1-1.7,9.7-1.7,9.7
		c0.5,0.2,1,0.4,1.5,0.6c-0.7,3.9,1.3,6.1,2.3,6.6c0.5-0.2,2.4-1.5,6.4-2.4c0,0,0.6-1.4,1.1-2.7c0.4,0,0.8-0.1,1.2-0.2
		c1.3-2.9,0.7-6-0.1-7.7c0,2.7-0.8,5.9-0.8,5.9c-4,0.7-7-0.1-9.7-0.9c-0.4-2.1,0.8-8.4,0.8-8.4c0,0,0-0.1,0-0.1
		c4.1,1.9,9.2,3.7,14.2,4.4C50.7,63,42.7,58.4,42.7,58.4z M43.7,71c0.4,0.1,0.7,0.2,1.1,0.3c0,0.5,0,1,0,1c0.1,1.4,0.6,1.7,1.4,1.8
		c1.2-0.1,1.5-0.9,1.6-2.1c1.4,0.2,2.7,0.3,3.9,0.3c-0.2,1.1-0.9,2.5-0.9,2.5c-3.3,0.7-5,1.8-5.3,2C44.7,76.2,43,74.3,43.7,71z"/>
	<path d="M52.3,82c-3.4,7.4-16.3,11-28.3,5.7c2.1,5.1,2.9,5.4,2.1,7.7c11.7,2.9,28.5,2.1,25.1-9.8C50.9,84.2,52.6,83.9,52.3,82z
		 M27.7,91.6c-1.8-0.4-1.7-0.8-2.1-2.5C33.7,92,41,91.8,50,86.4C50.1,93.8,29.5,91.9,27.7,91.6z"/>
</g>
</svg>
