<?xml version="1.0" encoding="utf-8"?>
<!-- Generator: Adobe Illustrator 19.2.1, SVG Export Plug-In . SVG Version: 6.00 Build 0)  -->
<svg version="1.2" baseProfile="tiny" id="Layer_1" xmlns="http://www.w3.org/2000/svg" xmlns:xlink="http://www.w3.org/1999/xlink"
	 x="0px" y="0px" viewBox="0 0 100 100" xml:space="preserve">
<g>
	<polygon points="68.7,86 68.7,84.9 66.7,84.6 	"/>
	<path d="M47,69.2c1,0,1.7-0.5,2.7-0.7c0.4-0.9,1-4.3,1-4.3c0.2,1,0.4,3.6,1.2,4.4c0.8,0.2,1.5,0.5,2.9,0.6c0.1-3.4-1.5-8-3.5-9.8
		C51.3,59.5,49.4,56.9,47,69.2z"/>
	<path d="M92.4,68.8c11.2-15.9,9.7-36.5-2.3-50.8c0-0.2,0-0.5,0-0.7C90.1,11.1,85.1,6,78.8,6c-1.2,0-2.4,0.2-3.4,0.5
		c-17.1-8.4-37.7-5.4-51.5,6.7c-3.2-5.2-5.8-9.4-6.1-9.9c-1.1-1.6-5-3.1-11.7,1.5c-6.7,4.5-6,8.8-5.3,9.7c0.3,0.4,5.5,8.5,10.8,16.9
		C5.9,47.6,11,65.8,24.9,77.2c-1.9,4.3-9.4,1.9-10.9,3c-1.6,1.1-9.8,6.1-2.9,8s14.4,3.2,17.6,6.6s15.9,3.1,21.9,3.1s25.6-3.2,26.9-8
		S87.4,86.8,90,85c2.3-1.6-0.1-8.3-3.3-9.7C88.8,73.4,90.7,71.2,92.4,68.8z M15.7,83.8c-1.7,0.9-3,0.9-1.5,2.8
		c-4.8-0.9,1.7-4.1,2.7-4.6s2.7,0,6.3,0C17.9,82.5,17.4,82.9,15.7,83.8z M71.6,10.6c0.2-0.3,0.5-0.5,0.7-0.7c0,0,0.1-0.1,0.1-0.1
		c0.3-0.2,0.5-0.4,0.8-0.6c1.1-0.8,2.4-1.4,3.8-1.7c0.7-0.2,1.4-0.2,2.2-0.2c5.6,0,10.1,4.5,10.1,10c0,0.1,0,0.1,0,0.2
		c0,1.9-0.5,3.7-1.4,5.2c-1.8,3-5,5-8.7,5c-4.7,0-8.6-3.1-9.8-7.4v0c-0.1-0.4-0.2-0.8-0.3-1.2c0-0.1,0-0.1,0-0.2
		c-0.1-0.4-0.1-0.9-0.1-1.3C69.1,14.8,70.1,12.4,71.6,10.6z M16.4,4.1c0,0,0.7,1.2,1,1.8C14.1,2.4,4.8,7.4,2.9,12.1
		C3.4,7.7,11.9,3.6,16.4,4.1z M3.7,17.2C6.9,11.5,14,6.1,19.5,8.6c4,6.9,15.1,24.3,15.1,24.5C28.2,32,21.9,38,19.7,42.5
		C15,34.9,3.7,17.2,3.7,17.2z M21.5,42.8c2.5-4.8,8.8-8.9,13.8-8.2c0,0,3,4.6,3.4,7.2c-0.8-2.1-2.2-4.1-3.9-6.6
		C28.7,35,24.8,39.1,21.5,42.8z M33.6,56.4c0,0-2.1-4-3.2-5.8c-0.9,0-4.2,0-4.9-1c1.2,0.2,2.8,0.5,5.2,0.4
		C30.8,50.1,33.6,54.5,33.6,56.4z M70.5,83.1c-0.5-5.1-1-9.9-1-9.9c3.9-3.2,11.8-10.4,11.8-10.4c-3.1,0.8-13.1,9.9-13.1,9.9
		c0.2,4.2,0.6,12.3,0.9,16.4l-0.2,0l-0.3,0.6l-0.3-0.4l-0.5,0.5l0.2,0.4l-0.6,0.6c-1.7,0.3-3.5,0.6-5.2,0.8L61.6,85l1.3-1.4
		l-0.1-1.3L62,83.6l-0.6,0.8l-0.2-5L60.4,80l0.5,7.1l-1-1l-1.6,1l-0.9-0.7l0.6,1.4l-1.1,0.8l1.9-0.5l0.8-1.1l1.4,1.2l0.4,3.4
		c-2.5,0.2-5.1,0.3-7.6,0.2l-0.6-6.7l1.4-0.3l0.7,0.6v-1.4l-1.6,0.5l-0.3-1.3l-0.6,1.3v-3.8l-0.9-0.2l0.9,7.8l-1.4-1.3l-1.8,1.1
		L48,87.4l1.4,1.5l1.6-1.1l1.4,1.6l0.2,2.4c-1.8-0.1-3.7-0.2-5.5-0.5v-0.8l-0.9,0.6l-0.5-1.1v-1.2l0.7,0.2l-0.6-1.3l-0.2-4.5
		l1.3-1.2l-1.2,0.5l-0.1-1.2l-1.8-1.4l1.1,1.8v2.4l-1.5-1.5l-1,2.2l-1.5,1l-0.1,0.8l0.7-0.6l1.4-0.6l0.5-1.7l1.2,1.5l0.1,4.7
		l-0.8,0.5l-0.4-0.5l0.2,1c-1.7-0.3-3.5-0.7-5.2-1.2c-0.1-0.5-0.1-1-0.2-1.7l0.8,0.7c0,0,0.8-0.2,1.4-0.4h-0.9l-1.2-1l-0.3-0.8
		c-0.2-1.6-0.5-3.5-0.7-5.4l0.6-0.9l0.1-2l1.1-1l1.6-0.3l-1.6-0.4l-1.8-1l1.2,1.1l-1.1,1.3v1.4l-0.3,0.2c-0.2-2-0.4-3.9-0.6-5.4
		c0,0-2.5-1.8-9.8-5.9c1.5,2.6,4.2,4.6,7.5,6.1c0,0,0.5,2.2,1,6.6c-1.1-0.5-2.1-1.1-3.2-1.8C17.3,69.8,11,52.7,15.2,37
		c4.1,6.5,7.7,12,8.4,12.9c1.4,1.8,4,2,5.9,2.1c0.2,2.4,1,4.5,2.3,6.1l8.1,1.3c1.3-0.9,2.3-2.4,3-4.1l-4.2-8.5l0.1-0.1c0,0,0,0,0,0
		c2.2-3,2.1-5.8,0.8-8.1C39,38,32.6,27.5,26.8,18.1c9.6-8.6,23-12.3,35.9-10c0.4,2.3-2.9,6.2-2.9,6.2l1.5,0.3l-1.7,0.9l-0.1,2.1
		l-4.1,0.7l-2.7-3.7l-4.4,3.1l3-1.5l-0.2,1.1h-0.7l1.1,0.5l0.5-1.8l0.6-0.6l2.5,3.5l-0.6,1.8l1.1,1.8l-0.5-2l0.8-1.7l4.2-0.8
		l0.2-2.3l2.3-0.9l1.3,0.2l-0.6,2.6l4.3,1.8L67,24.3l-2.4,4.7h-2.9l3.4,0.8l1.4-2.5l1.2,0.1l0.4,2.6l4.2,0.3L71.7,32l1.2-2.3
		l-4.3-0.5l-0.4-2.6l-1.2-0.5l0.8-1.6l0.7-2.5c1.8,3.8,5.7,6.5,10.2,6.5c4.1,0,7.7-2.2,9.7-5.4c10.1,12.9,11.2,31,1.2,45.2
		C84.9,75.3,78.1,80.2,70.5,83.1z"/>
	<path d="M76.8,11.2l-0.5-1.9c-3.2,1.5-4.9,8.1-3.3,12.1C72.3,16.6,74.5,12.6,76.8,11.2z"/>
	<path d="M72.9,45.8c-0.4-3.2,1-5.8,2.6-6.8l-0.3-1.3C73,38.8,71.8,43.2,72.9,45.8z"/>
	<path d="M76.8,35.6c-4.2,0-7.5,3.4-7.5,7.5c0,0.1,0,0.2,0,0.3c-4.1-0.9-9.1-1.8-12.3-2.3c-0.8,2.2-1.2,4.9-0.7,7.6
		c1.3,7.5,5.7,9.6,5.7,9.6l11-2.8c0.9-1.5,1.4-3.2,1.6-5.1c0.7,0.2,1.4,0.3,2.2,0.3c4.2,0,7.5-3.4,7.5-7.5S81,35.6,76.8,35.6z
		 M63.4,57.3c-0.2-2,0.7-3.7,1.7-4.3l-0.2-0.9C63.5,52.8,62.8,55.5,63.4,57.3l-1.3,0.3c-0.3-0.6-0.4-1.2-0.4-1.9
		c0-2.5,2-4.5,4.5-4.5c2.4,0,4.4,1.9,4.5,4.3L63.4,57.3z M77.1,49.9c-0.8,0-1.6-0.2-2.4-0.4c-2.4-0.9-4.2-3.1-4.4-5.8
		c0-0.2,0-0.3,0-0.5c0-3.7,3-6.8,6.8-6.8s6.8,3,6.8,6.8S80.8,49.9,77.1,49.9z"/>
	<path d="M14.5,18.9c0-0.3,0-0.6-0.1-1c0-0.1,0-0.1,0-0.2c0-0.1,0-0.1,0-0.1c-0.1-0.3-0.2-0.6-0.3-0.9c-0.1-0.3-0.2-0.5-0.3-0.8
		c-0.1-0.2-0.1-0.3-0.1-0.4c0-0.1,0-0.2,0.1-0.2c0,0,0.1,0,0.3,0c0.2,0,0.4,0.1,0.7,0.3c0.4,0.1,0.7,0.3,1.1,0.4
		c0.1,0,0.2,0,0.2,0.1c0.1,0,0.1,0,0.2,0c0.4,0.1,0.8,0.2,1,0.3c0.2,0.1,0.4,0.1,0.4,0.1c0.3,0,0.5,0,0.7,0c0.2-0.1,0.4-0.2,0.6-0.3
		c0.1-0.1,0.2-0.2,0.2-0.3c0.1-0.1,0.1-0.2,0.2-0.3c0-0.1,0.1-0.3,0.1-0.4c0-0.1-0.1-0.2-0.1-0.3c0,0-0.1-0.1-0.1-0.2
		c0-0.1,0-0.2,0-0.3c0-0.1-0.1-0.2-0.2-0.3c0,0-0.1-0.1-0.1-0.1c-0.1-0.2-0.2-0.4-0.3-0.5s-0.1-0.2-0.1-0.2
		c-0.1-0.1-0.1-0.1-0.2-0.2c0,0,0,0-0.1-0.1c0-0.1-0.1-0.1-0.1-0.1c-0.1-0.2-0.3-0.3-0.4-0.5c-0.2-0.2-0.3-0.3-0.5-0.5
		c0,0-0.1-0.1-0.3-0.2c-0.2-0.1-0.4-0.3-0.8-0.6c-0.1-0.1-0.2-0.1-0.2-0.1c-0.1,0-0.1,0-0.1,0c0,0-0.1,0-0.2,0.1c-0.1,0-0.1,0-0.2,0
		c0,0-0.1,0-0.1,0.1c-0.1,0-0.1,0.1-0.2,0.1c0,0,0,0,0,0.1c0,0,0,0.1,0.1,0.1c0.1,0.1,0.3,0.3,0.6,0.5c0.3,0.2,0.5,0.3,0.6,0.5
		c0,0,0,0.1,0.1,0.1c0,0,0,0.1,0,0.1c0,0-0.1,0-0.1,0c-0.1,0-0.1,0-0.2,0c-0.1,0-0.2,0-0.3,0c-0.1,0-0.2,0-0.3,0
		c-0.1,0-0.3,0.1-0.4,0.1c-0.1,0.1-0.2,0.1-0.4,0.2c0,0,0,0-0.1,0.1c0,0-0.1,0.1-0.1,0.1c-0.3,0.2-0.5,0.3-0.7,0.4
		c-0.2,0.1-0.4,0.3-0.6,0.4c-0.2-0.1-0.4-0.2-0.6-0.2c-0.1,0-0.2,0-0.3,0c-0.2,0.1-0.2,0.3-0.1,0.5c0.1,0.2,0,0.4-0.2,0.5
		c0,0,0,0-0.1,0.1c0,0-0.1,0-0.1,0.1l0,0.1l-0.1,0.1c-0.1,0-0.2,0.1-0.4,0.2s-0.5,0.3-0.8,0.6c0,0-0.1,0-0.1,0.1
		c0,0-0.1,0.1-0.3,0.3c0,0-0.1,0.1-0.2,0.1c-0.1,0-0.1,0-0.2,0c-0.1,0-0.3-0.1-0.3-0.1c-0.1,0-0.2,0-0.2,0c-0.1,0-0.1,0-0.1,0
		c0,0-0.1,0-0.1,0c0,0-0.1,0.1-0.1,0.1c0,0,0,0.1,0,0.1c0,0,0,0.1,0,0.1c0,0,0,0.1,0,0.1L9.1,17c0,0,0,0,0,0.1
		C9.1,17.2,9,17.3,9,17.4c0,0.1,0,0.1,0.1,0.2c0,0.1,0.1,0.1,0.2,0.1c0.1,0,0.1,0,0.2,0c0.1,0,0.1,0,0.2-0.1c0.1,0,0.1,0,0.2-0.1
		c1.1,0.9,2.1,1.5,2.8,1.8c0.7,0.3,1.2,0.4,1.5,0.1C14.3,19.4,14.4,19.2,14.5,18.9z M14.6,14.6c0,0,0.1-0.1,0.2-0.1
		c0.1-0.1,0.3-0.1,0.5-0.2l0.1-0.1c0.1,0,0.2,0,0.3-0.1c0.1-0.1,0.2-0.2,0.3-0.2c0.1-0.1,0.2-0.1,0.3-0.2c0.2-0.1,0.3-0.1,0.4-0.2
		c0.1,0,0.2,0,0.2,0c0.1,0,0.1,0,0.2,0.1c0.1,0.1,0.2,0.2,0.3,0.3c0,0,0,0.1,0.1,0.1c0,0.1,0.1,0.2,0.1,0.3c0.1,0.2,0.1,0.3,0.2,0.4
		c0,0.1,0.1,0.2,0.1,0.2c0,0.1,0,0.3,0,0.4c0,0.1-0.1,0.2-0.2,0.3c0,0-0.1,0.2-0.2,0.2c-0.1,0-0.2,0.1-0.3,0.1c-0.1,0-0.2,0-0.3,0
		c-0.1,0-0.2-0.1-0.3-0.1c0,0-0.1-0.1-0.3-0.2c-0.2-0.1-0.5-0.2-0.8-0.3C15.3,15.1,15,15,14.8,15s-0.3-0.1-0.3-0.2c0,0,0-0.1,0-0.1
		C14.5,14.7,14.5,14.6,14.6,14.6z M13.4,18.5c-0.1,0.1-0.2,0.1-0.4,0c-0.2,0-0.4-0.1-0.7-0.3c-0.7-0.3-1-0.5-1.1-0.5
		c0,0-0.1-0.1-0.2-0.2c-0.2-0.1-0.3-0.3-0.5-0.4l0-0.1l0-0.1c0.1-0.1,0.2-0.1,0.3-0.2c0.2-0.1,0.4-0.3,0.5-0.4
		c0.2-0.1,0.4-0.3,0.5-0.4c0.2-0.1,0.4-0.2,0.5-0.2c0.1,0,0.2,0,0.3,0c0,0,0,0.1,0,0.1c0,0.1,0,0.1,0.1,0.2c0,0.1,0,0.1,0.1,0.2
		c0,0,0,0.1,0.1,0.1c0.1,0.3,0.2,0.6,0.3,0.8c0.1,0.3,0.1,0.5,0.2,0.8c0,0.1,0,0.2,0,0.2C13.4,18.4,13.4,18.4,13.4,18.5z"/>
	<path d="M20,30.6c0.1,0,0.1,0,0.2-0.1c0.1,0,0.1,0,0.2,0c0.1,0,0.1,0,0.2,0c0.1,0,0.3,0.1,0.4,0.1c0.1,0,0.2,0,0.3,0
		c0.4,0.1,0.6,0.1,0.9,0.2c0.3,0,0.6,0.2,0.7,0.1l0,0c0,0,0.2,0,0.2,0c0.1,0,0.1,0,0.1,0.1c0,0,0,0.1,0,0.1c0,0.1,0,0.1-0.1,0.2
		c-0.1,0.1-0.1,0.2-0.1,0.3c0,0.1-0.1,0.2-0.1,0.2c0,0.1,0,0.2,0,0.4c0,0.1,0.1,0.3,0.2,0.4c0.1,0.1,0.2,0.2,0.2,0.2
		c0.1,0.1,0.1,0.1,0.2,0.1c0.1,0.1,0.3,0.2,0.5,0.3c0.2,0.1,0.5,0.1,0.9,0.2c0-0.1,0.1-0.2,0.1-0.2c0.1-0.1,0.1-0.2,0.2-0.3
		C25.1,33,25,33,25,33c-0.1,0-0.1,0-0.1,0c-0.1,0-0.2-0.1-0.4-0.2c-0.1-0.1-0.2-0.2-0.4-0.3c-0.1-0.1-0.1-0.2-0.1-0.3
		c0-0.1,0-0.1,0-0.2c0-0.1,0-0.1,0-0.2c0-0.1,0.1-0.1,0.2-0.2c0,0,0.1-0.1,0.1-0.1c0,0,0.1,0,0.1,0c0.5,0.1,0.9,0.1,1.3,0.1
		c0.3,0,0.6-0.1,0.8-0.1l0.2-0.1c0.1,0,0.2-0.1,0.2-0.1c0,0,0.1,0,0,0c0.1-0.1,0.1-0.2,0.2-0.2c0.1-0.1,0.1-0.2,0.1-0.2
		c0-0.1,0.1-0.1,0.1-0.2c0-0.1,0-0.1,0-0.2c0-0.1-0.1-0.1-0.1-0.2c0-0.1-0.1-0.1-0.2-0.2C27.1,30,27,30,27,29.9
		c-0.1,0-0.1,0-0.2-0.1c-0.1,0-0.1,0-0.2-0.1c-0.2,0-0.3,0-0.5,0c-0.2,0-0.3,0-0.4,0c-0.2,0-0.4,0.1-0.5,0.1c-0.2,0-0.3,0.1-0.4,0.1
		c-0.1,0-0.2,0.1-0.3,0.1c-0.1,0-0.2,0.1-0.2,0.1c-0.1,0.1-0.1,0.1-0.2,0.1c-0.1,0-0.1,0.1-0.2,0.1c-0.2,0-0.3-0.1-0.4-0.1
		c-0.1,0-0.3,0-0.4,0c0,0,0,0,0,0c-0.1,0.1-0.6,0-0.8,0c-0.2,0-0.4,0-0.5-0.1c-0.4-0.1-0.6-0.1-0.8-0.1c-0.1,0-0.2-0.1-0.3-0.1
		c-0.1,0-0.2,0-0.2-0.1l0,0c0,0,0-0.1,0-0.1c0-0.1,0.1-0.1,0.2-0.2c0.1-0.1,0.4-0.1,0.9-0.1c0.5,0,0.9-0.1,1.3-0.4
		c0.4-0.3,0.6-0.6,0.7-0.9c0.1-0.3,0-0.6-0.2-0.9c0-0.1-0.1-0.1-0.1-0.1c-0.1,0-0.1,0-0.2,0c-0.5,0-0.9,0-1.2-0.1
		c-0.3,0-0.5-0.1-0.6-0.1l-0.6-0.2c-0.1,0-0.2,0-0.3,0c-0.1,0-0.2-0.1-0.3,0l0,0c0,0,0,0-0.1,0c0,0,0,0,0,0c0,0,0,0,0-0.1
		c0,0,0-0.1,0.1-0.1c0.1,0,0.1,0,0.2,0c0.1,0,0.2,0,0.3-0.1c0.1,0,0.2-0.1,0.3-0.1c0.1,0,0.2-0.1,0.2-0.1c0.3-0.2,0.5-0.5,0.5-0.7
		c0.1-0.2,0-0.5-0.2-0.7c0,0-0.1-0.1-0.2-0.1c-0.1-0.1-0.2-0.1-0.4-0.2l0-0.1c0.1,0,0.2-0.1,0.3-0.1c0,0,0-0.1,0-0.1
		c0-0.1-0.1-0.1-0.1-0.2c-0.1-0.1-0.1-0.1-0.2-0.2c-0.1,0-0.2-0.1-0.2-0.1c-0.1,0-0.2,0-0.3,0c-0.1,0-0.2,0-0.3,0
		c-0.1,0-0.1,0-0.2,0c-0.1,0-0.2,0-0.2,0c-0.1,0-0.2,0-0.3,0c-0.1,0-0.1,0-0.2,0c-0.2,0-0.5-0.1-0.6-0.1c-0.2,0-0.3,0-0.4,0
		l-0.6-0.2c-0.1,0-0.2,0-0.3,0c-0.1,0-0.2,0-0.2,0c0,0,0,0,0,0c0,0,0,0-0.1,0c0,0,0,0-0.1,0c0,0,0,0,0-0.1c0,0,0-0.1,0.1-0.1
		c0.1,0,0.1,0,0.2,0c0.1,0,0.2,0,0.3-0.1c0.1,0,0.2-0.1,0.3-0.1c0.1,0,0.2-0.1,0.2-0.1c0.3-0.2,0.5-0.5,0.5-0.7
		c0.1-0.2,0-0.5-0.2-0.7c0,0-0.1-0.1-0.2-0.1c-0.1-0.1-0.2-0.1-0.4-0.2l0-0.1c0.1,0,0.2-0.1,0.3-0.1c0,0,0-0.1,0-0.1
		c0-0.1,0-0.1-0.1-0.2C18,20.1,18,20.1,17.9,20c-0.1,0-0.2-0.1-0.2-0.1c-0.1,0-0.2,0-0.3,0c-0.1,0-0.2,0-0.3,0c-0.1,0-0.1,0-0.2,0
		c-0.1,0-0.2,0-0.2,0c-0.1,0-0.2,0-0.3,0c-0.1,0-0.1,0-0.2,0c-0.2,0-0.5-0.1-0.6-0.1c-0.2,0-0.3,0-0.4,0l-0.6-0.2
		c-0.1,0-0.1,0-0.2,0c-0.1,0-0.1,0-0.2,0c0,0.1-0.1,0.2-0.1,0.3c-0.1,0.1-0.1,0.2-0.2,0.3c0.1,0,0.1,0,0.1,0c0,0,0.1,0,0.1,0
		c0.2,0,0.3,0.1,0.4,0.1c0.1,0,0.2,0,0.2,0.1c0,0,0,0.1,0,0.1c0,0,0,0.1,0,0.1c0,0-0.1,0.1-0.3,0.1c-0.2,0.1-0.3,0.1-0.4,0.2
		c-0.2,0.2-0.3,0.4-0.4,0.7c0,0.3,0,0.5,0.2,0.7c0,0,0.1,0.1,0.1,0.1c0.1,0,0.1,0.1,0.1,0.1c0,0.1,0.1,0.1,0.2,0.2
		c0.1,0.1,0.2,0.1,0.3,0.2c0.2,0.1,0.4,0.2,0.6,0.2c0.2,0,0.4,0.1,0.6,0.1c0,0.1-0.1,0.2-0.1,0.3c0,0.1,0,0.2,0.1,0.2
		c0.1,0.1,0.1,0.1,0.2,0.2c0.1,0,0.2,0.1,0.3,0.1c0.1,0,0.7,0.2,0.8,0.2c0.1,0,0.4,0.1,0.6,0.2c0,0-0.1,0.1-0.3,0.1
		c-0.2,0.1-0.3,0.1-0.4,0.2c-0.2,0.2-0.3,0.4-0.4,0.7c0,0.3,0,0.5,0.2,0.7c0,0,0.1,0.1,0.1,0.1c0.1,0,0.1,0.1,0.1,0.1
		c0,0.1,0.1,0.1,0.2,0.2c0.1,0.1,0.2,0.1,0.3,0.2c0.2,0.1,0.4,0.2,0.6,0.2c0.2,0,0.4,0.1,0.6,0.1c0,0.1-0.1,0.2-0.1,0.3
		c0,0.1,0,0.2,0.1,0.2c0.1,0.1,0.1,0.1,0.2,0.2s0.2,0.1,0.3,0.1c0.1,0,0.4,0.1,0.5,0.1c0.1,0,0.5,0.1,0.5,0.1c0,0,0,0,0,0
		c0-0.1,0.1,0,0.2,0c0.1,0,0.1,0,0.1,0c0.1,0,0.2,0.1,0.3,0.1c0.1,0,0.1,0,0.2,0c0.1,0,0.1,0,0.2,0c0.1,0,0.2,0,0.3,0
		c0.1,0,0.2,0.1,0.3,0.1c0.1,0,0.1,0.1,0.2,0.1c0,0,0.1,0.1,0,0.2c0,0.1,0,0.2-0.1,0.3c-0.1,0.1-0.1,0.2-0.1,0.2
		c0,0.1-0.1,0.1-0.1,0.1c-0.1,0.1-0.4,0.2-1,0.2c-0.5,0-0.9,0.2-1.1,0.3c-0.1,0.1-0.2,0.2-0.3,0.3c-0.1,0.2-0.2,0.2-0.2,0.2
		c0,0-0.1,0-0.2,0c-0.1,0-0.3,0-0.6,0c-0.3,0-0.6,0-0.8-0.1c-0.2,0-0.5,0-0.6,0c-0.3,0-0.5,0.1-0.7,0.1c-0.2,0.1-0.4,0.1-0.5,0.2
		c-0.2,0.1-0.3,0.3-0.3,0.5c0,0.2,0.1,0.4,0.2,0.5c0.1,0.2,0.3,0.3,0.5,0.4c0.2,0.1,0.5,0.2,0.8,0.3c0.5,0.1,1,0.2,1.3,0.1
		c0.4,0,0.7-0.2,1-0.4c0.2-0.1,0.3-0.3,0.4-0.5C19.8,30.8,19.9,30.7,20,30.6z M24.9,30.8c0.1-0.1,0.3-0.1,0.6-0.2
		c0.3,0,0.5,0,0.5,0.1c0,0,0,0,0,0.1c0,0,0,0.1-0.1,0.1c0,0-0.1,0.1-0.2,0.1c-0.1,0-0.1,0-0.2,0c-0.1,0-0.1,0-0.2,0
		c-0.1,0-0.1,0-0.2,0c-0.1,0-0.1,0-0.2,0c-0.1,0-0.1,0-0.1,0C24.9,30.9,24.9,30.9,24.9,30.8C24.9,30.8,24.9,30.8,24.9,30.8z
		 M16.6,22.4c-0.1,0-0.1,0-0.2,0c-0.1,0-0.2,0-0.3,0c-0.3,0-0.5,0-0.7-0.1c-0.2-0.1-0.4-0.2-0.5-0.3c-0.1-0.1-0.1-0.2-0.1-0.3
		c0-0.1,0.1-0.2,0.2-0.2c0.1,0,0.1-0.1,0.2-0.1c0.1,0,0.2-0.1,0.3-0.1c0.2-0.1,0.3-0.1,0.4-0.1c0.1,0,0.2,0,0.2,0
		c0.1,0,0.1,0.1,0.2,0.1c0.1,0,0.1,0,0.2,0c0.1,0,0.3,0,0.4,0c0.1,0,0.1,0,0.2,0c0.1,0,0.1,0,0.1,0c0.1,0.1,0.1,0.2,0.2,0.3
		c0,0.1,0.1,0.1,0.1,0.1c0,0,0,0.1,0,0.2c0,0.1-0.1,0.2-0.2,0.3l-0.4,0.1C16.7,22.3,16.6,22.3,16.6,22.4z M17.1,23.5
		C17,23.6,17,23.6,17.1,23.5C17,23.6,17,23.6,17.1,23.5C17.1,23.5,17.1,23.5,17.1,23.5C17.1,23.5,17.1,23.5,17.1,23.5z M17.8,24.1
		c-0.1,0-0.2-0.1-0.2-0.1c0,0-0.2-0.1-0.2-0.1c0.2,0,0.2,0,0.3,0.1C17.8,24,17.8,24,17.8,24.1C17.8,24,17.8,24,17.8,24.1
		C17.8,24.1,17.8,24.1,17.8,24.1z M19.6,26.1c-0.1,0-0.1,0-0.2,0c-0.1,0-0.2,0-0.3,0c-0.3,0-0.5,0-0.7-0.1c-0.2-0.1-0.4-0.2-0.5-0.3
		c-0.1-0.1-0.1-0.2-0.1-0.3c0-0.1,0.1-0.2,0.2-0.2c0.1,0,0.1-0.1,0.2-0.1c0.1,0,0.2-0.1,0.3-0.1c0.1-0.1,0.3-0.1,0.4-0.1
		c0.1,0,0.2,0,0.2,0c0.1,0,0.1,0.1,0.2,0.1c0.1,0,0.1,0,0.2,0c0.1,0,0.3,0,0.4,0c0.1,0,0.1,0,0.2,0c0.1,0,0.1,0,0.1,0
		c0.1,0.1,0.1,0.2,0.2,0.3c0,0.1,0.1,0.1,0.1,0.1c0,0,0,0.1,0,0.2c0,0.1-0.1,0.2-0.2,0.3L19.8,26C19.7,26,19.6,26,19.6,26.1z
		 M18.7,30.7c-0.1,0.1-0.1,0.2-0.2,0.2c-0.1,0-0.2,0.1-0.3,0.2c-0.2,0.2-0.6,0.2-1,0.2c-0.5-0.1-0.8-0.2-1-0.4c0,0-0.1-0.1,0-0.1
		c0,0,0-0.1,0.1-0.1c0.1-0.1,0.5-0.1,1.3-0.1c0.7,0,1.1,0,1.2,0.1C18.8,30.5,18.7,30.6,18.7,30.7z"/>
	<path d="M39,46.5l4,8c0.3-1.1,0.5-2.2,0.5-3.5c0-2.1-0.5-4.1-1.4-5.6C41.2,45.8,40.2,46.1,39,46.5z"/>
</g>
</svg>
