<?xml version="1.0" encoding="utf-8"?>
<!-- Generator: Adobe Illustrator 19.2.1, SVG Export Plug-In . SVG Version: 6.00 Build 0)  -->
<svg version="1.2" baseProfile="tiny" id="Layer_1" xmlns="http://www.w3.org/2000/svg" xmlns:xlink="http://www.w3.org/1999/xlink"
	 x="0px" y="0px" viewBox="0 0 100 100" xml:space="preserve">
<g>
	<path d="M90.2,77.9c-0.4,0-2.9-0.2-6.4-0.5c7.1-8.9,9.3-20.7,6.4-32.5c0.6-28.4-20.5-32.3-21.3-32.3c3.9-4.1,6.3-0.2,6.3-0.2
		c0-2.2-6.3-6.7-14.4-3.2C59.2,6.5,63,2.5,63,2.5c-3.7,1.2-9.7,5.3-10.1,8.7C44.6,7.2,8.7,6.3,4.8,57c1.6,0.6,3.9-2.4,5.1-5.5
		c1.3,4.2-3.7,19.8-9.5,25.3c5.5,1.4,9.1,0.2,10.3-2.2c2.6,2.9-1.3,14.9-1.6,16.8c10.2-1.4,13.6-6.3,14.8-9.1c1.6,1.6,3.4,3,5.4,4.3
		c1.8,1.2,3.7,2.2,5.5,3.1c0.2,0.1,0.4,0.2,0.7,0.3c-2.4,3.3,1.9,4.5,15.4,4.5c13.3,0,17.5-0.5,15.2-3.9c4.2-1.6,11.5-7,11.5-7
		c0.9-0.7,1.7-1.4,2.6-2.1c5.2,0.5,9.7,0.9,9.7,0.9C92.3,82.3,92.6,78.2,90.2,77.9z M63,56.4c-7.5-6.7-2.5-13,0.9-13.8
		C58.8,45.2,60.3,52,63,56.4z M56.9,45.9c-0.6,0.4-1.3,0.8-1.6,0.8c-0.3,0-1.2-0.4-1.9-0.8c-1.7-6.7-15.9-9.3-23.1-2.1
		c0,0,0,0-4.1-1.3c0,0-4.9-1.3-7.6-2c0.9-2,1.9-3.9,3.1-5.7c1.4-2.1,3-4,4.7-5.7c4.1-2.2,7.9-2.8,8.9-2.8
		c5.5,9.5,20.3,11.4,20.3,11.4C49.8,31.7,51.7,26,51.7,26c7.1,5.7,28.2,12.4,28.2,12.4C74.2,33.1,74,28.4,74,28.4
		c1.2,0.2,2.3,0.5,3.3,0.8c2,1.9,3.7,4,5.2,6.3l0,0c0.2,0.6,1.7,3,2.9,6.7c-0.7,0.3-1.2,0.6-1.2,0.6C80,43.9,80,43.9,80,43.9
		C72.8,36.7,58.6,39.3,56.9,45.9z M35.5,56.5c-4.9-5.4-2.9-13.5,1.1-14.6C33.4,45.3,33.3,49.5,35.5,56.5z M76.7,81.7
		c-12,11.2-30.6,13.1-44.9,3.6C17.9,76.1,12.5,59,17.4,43.9c2.2,0.5,6.4,1.5,12.3,3.3c0,11.1,6.7,12.3,12.6,12.4
		c4.6,0.1,8.9-3,10.5-7.8c1.1-0.6,2.3-1.5,2.5-1.5c0.2,0,1.1,0.5,2,1c1.5,5.1,5.9,8.4,10.7,8.3c5.9-0.1,12.6-1.3,12.6-12.4
		c2.8-0.8,4.6-1.4,5.8-1.8c1.9,7.8,2.3,19.2-6.2,31.6c-5.5-0.5-12.1-1-16.9-1.4C63.3,74.7,63,74,63,74c-0.1,0-0.1,0-0.2,0
		c0.9-0.5,1.5-1,1.7-1.5c-4.3,0.1-5.2-1.8-6-1.6c-0.9,0.1-0.8,1.3-2.2,1.5c-1.4,0.2-1.7-0.9-2.6-0.8c-0.9,0.1-0.2,2.8-7.3,3.9
		c1.7,3.8,4.4,8.8,12.2,7c2.2-0.5,3.4-1.6,4.1-2.7c1.3,0.1,2.6,0.3,3.5,0.4c0,0,0,0,0,0c1.7,0.2,6.2,0.6,10.9,1
		C77,81.4,76.8,81.6,76.7,81.7z M59.5,81.8c-4.1,1.2-6.2,0.4-7-0.2c0.2,0,0.6-0.1,0.8-0.2C54,82,55.3,82.4,59.5,81.8z M52.3,79.8
		c-0.9,0-3-1.6-3.8-2.8c3.6-1.4,4.6-0.2,5.6,0.5c0,0,0.4-0.6-0.7-1.2c1.3-0.7,2.6-0.8,3.6-0.5c-0.4,1.1-0.4,3-0.2,3.2
		c0,0,0.4,0.1,1,0.2C55.6,79.6,52.9,79.9,52.3,79.8z M49.3,75.6c1.3-0.2,3.9-1.3,4-2c0,0.5,0.2,0.6,0.2,0.6
		C53.1,74.4,50.7,75.6,49.3,75.6z M88.8,81.6c0,0-3.8-0.3-8.2-0.8c-1-0.1-2-0.2-3-0.3c-3.9-0.4-7.7-0.7-9.2-0.9
		c-0.4-0.6-0.3-2.4,0.2-3c0,0,5.8,0.5,11.3,1c1.2,0.1,2.4,0.2,3.5,0.3c3.1,0.3,5.5,0.5,6,0.5C88.4,79,87.9,80.4,88.8,81.6z"/>
	<path d="M91.5,67.3c-3.1,3.1,0.4,5.8,0,9.8C93,74.7,88.9,70.3,91.5,67.3z"/>
	<path d="M93.4,74.9c4.5-2.6-0.4-12.8,6.6-15.3C91.9,61.8,97,69.1,93.4,74.9z"/>
</g>
</svg>
