<?xml version="1.0" encoding="utf-8"?>
<!-- Generator: Adobe Illustrator 19.2.1, SVG Export Plug-In . SVG Version: 6.00 Build 0)  -->
<svg version="1.2" baseProfile="tiny" id="Layer_1" xmlns="http://www.w3.org/2000/svg" xmlns:xlink="http://www.w3.org/1999/xlink"
	 x="0px" y="0px" viewBox="0 0 100 100" xml:space="preserve">
<g>
	<path d="M9.3,40.3C9.3,40.4,9.4,40.4,9.3,40.3c0.1,0.1,0.1,0.1,0.1,0.1C9.4,40.4,9.3,40.4,9.3,40.3z"/>
	<path d="M91,16.4c-4-1.6-11,0-14.4,0c-3.4,0-11,3.2-15,3.1c-2.9-0.1-11.4,0.3-16.1,1.1c1.9-0.9,3.9-2.1,2.2-2.7
		c-2.9-0.9-4-1.8-7.6,1.2c-3.5-7.7-6-9.9-8.3-9.9C25.4,3.7,15.9,2.8,8.6,7.8C7.9,8.2,7.3,8.7,6.8,9.1l-2.4,2.4c0,0,0,0,0,0
		c-5.3,6.4-6.1,15.8-1.2,23.1c0.9,1.4,2.1,2.7,3.3,3.7c3.8,2.9,6.9,4.1,10,4.6c3,0.4,6.2,0.2,9.1-0.9c0.8-0.3,3.4-1.6,4.3-2.2
		c1.2-0.8,2.2-1.7,3.1-2.6c0,0,0,0-0.1,0.1c0.7,2.8,1.3,5,1.6,5.7c0,0,1.7-0.6,2-1.2c0,0,6.6,0.3,9.3-1.7c0-0.1-0.1-0.2-0.1-0.3
		c2.9,0.2,15.2-0.2,15.2-1.3c0-1.1,12.3-0.9,11-0.5c-3.1,0.8-0.4,7.1-2.6,8.7c-1.6,1.2-1.7,8.1-3.7,10.1c-2,2-10.1,13.2-10.1,17.9
		c0,0-3.2,0.2-4.9,1.1c-1.6,0.9-5.4,1.4-7.2,0.9c0,0-2-4.9-2.2-6.9c-0.2-2-2.7-1.4-3.8-2.3c-0.5-0.5-1.4-0.9-3.1-1.3
		c0.6-3.5,1-18.8-8.4-18.8c-9.9,0-8.4,12.3-8.5,17.9c-3.3,1-5.6,2.8-6.1,4.1c-0.9,2.5-4,10.5-4,10.5S5,86.8,4.8,93.3c-0.1,0,0,0,0,0
		c0,0.1-0.6,4.9,0.7,5.6c0,0,0.1-4.7,34-6.7c6.2,0.4,15.9,0.4,15.9,0.4c0-0.2,0.1-0.5,0.1-0.8c33.8,1.9,33.9,6.7,33.9,6.7
		c1.4-0.7,0.7-5.6,0.7-5.6s3.9-24.6,3.9-27.4c0-2.9,3.2-17.1,2.7-18.4c-0.5-1.3,1.4-17.7,2.5-23.1S95,18,91,16.4z M46.6,19
		c1.7,0.9-4.5,1.9-4.5,1.9c-0.1,0.3-0.1,0.7-0.2,1.1c-0.7-0.5-1.6-1.1-1.9-1.9C43.1,17.8,44.9,18.2,46.6,19z M38.3,17.5l-0.7,0.4
		c0,0,0,0,0,0.1c-0.1-0.4-0.3-0.9-0.5-1.3l0.6-0.1C38,16.9,38.2,17.2,38.3,17.5z M37.6,16.1l-0.4,0.5c0,0,0,0,0,0
		c-0.2-0.5-0.4-0.9-0.6-1.3l0.4-0.1C37.2,15.4,37.4,15.8,37.6,16.1z M36.6,14.5l-0.2,0.4c-0.3-0.6-0.7-1.2-1.1-1.8
		c-0.2-0.3-0.4-0.5-0.6-0.8c0,0,0,0,0,0C35.3,12.8,35.9,13.6,36.6,14.5z M33.4,10.7C33.3,10.6,33.3,10.6,33.4,10.7
		C33.3,10.6,33.3,10.6,33.4,10.7z M28.8,39.3c-3.5,2.3-7.6,3.2-11.5,2.8c-2.2-0.3-4.7-1.1-7.1-2.3c-2.3-1.3-4.3-3.1-5.8-5.4
		c-4.7-7.1-3.7-16.3,2-22.1c0.7-0.8,1.6-1.4,2.5-2.1C9,10.2,9.1,10.1,9.2,10c8.1-5.4,19-3.2,24.4,4.9C39.1,23,36.9,33.9,28.8,39.3z
		 M36.7,40.2c-0.1,0.1-0.7-2.1-1.6-5.4c0,0,0,0,0,0c3.4-4.9,4.4-11.1,2.5-16.8l1,0.1c0.4,0.7,0.7,1.5,1.1,2.3c0,0,0.8,1.7,2.1,2.2
		c-0.3,3.5-0.3,9.7,2.4,16.3C41.9,40.7,36.7,40.2,36.7,40.2z M19.2,55.9c0-3.7,4.7-6.8,6.9-6.8s4.9,2.4,6,4.9
		c0.8,1.9-0.3,8.9,0.6,11.7c-1.5-0.3-3.4-0.7-5.9-1.1c-2.7-0.5-5.3-0.3-7.6,0.2C19.2,62.7,19.2,58.6,19.2,55.9z M6,97.5
		c0,0.5-1.1-2.4-0.5-3.5c0.5-1,26.8-3.7,33.5-4.3c0,0,0,0,0,0l0.2,2.3C34.5,91.5,6.2,93.9,6,97.5z M50.2,90.8l0.1,1.1
		c-2.9,0-6.8-0.1-9.7-0.2L40.3,90c0-0.6,6-0.8,10.1-0.8l-0.5,0v0.7l-5.6,0.4v0.4H50.2z M54,91.8c0,0-1.2,0-3,0l-0.2-2.7
		c1.7,0,3.1,0,3.4,0C54.2,89.2,54.2,90.9,54,91.8z M89,97.1c-0.2-3.7-30-6.1-33.5-5.4c0.1-0.8,0.1-1.8,0.1-2.4
		c5.8,0.6,33.4,3.4,33.9,4.4C90.1,94.7,89,97.5,89,97.1z M95,47.6c1.1,2.5-2.5,15-3.1,17.5c-0.3,1.5-1.5,6.8-2.8,13.5
		c-11.4,0.1-11.9,3.3-13.7,8.7c3-6,4.3-6.1,13.7-8.5c-0.8,4.1-1.7,8.8-2.5,13.5c-8.9-1.3-26.7-2.8-30.9-3.1c0-0.5,0-0.8,0-0.8
		c-0.9,0-5.9,0-10.2,0.2c-0.1-1.3-0.6-7.2-0.3-7.3c0.3-0.2,7.4-1,7.4-1.4c0,0-8,0.8-8.2,1.1c0,0,0,5.1,0.3,7.7l0,0
		c-3,0.2-5.6,0.5-5.8,1c-3,0.2-10.5,0.9-17.9,1.6l-1.2-0.9c0,0,1.4-2,1.4-3.4c0,0-1.2,2.9-2.1,4.5c-4.8,0.5-9.3,1-12.3,1.5
		c0.2-1,2-10.3,2.5-12.2c0.3-1.1,1-3.8,1.9-6.2c4-0.3,16.8-1.4,17.6-3.7c0,0-5.8,2.6-17,2c0.5-1.2,1-2.3,1.5-2.7
		c1.4-1.4,8.7-4.8,13-4.3s8.7,2.9,9.6,2.9c0.9,0,2.7,1.4,4,1.4c1.3,0,2.2,3.1,1.6,6.5c0,0-1.8,0.4-3.8,0.9c0,0,9.4,0.9,11.5,0.4
		c2-0.5,4.8-1.2,6.8-2.1c1.4,3.2,8.9,4.2,14.9,5.5c-0.8-0.6,0-0.8,2.5-1.3c-4.5,0.4-16.1-2.2-16.5-4.9c-0.5-3,7.4-15.1,10.1-17.3
		c0,0,1.5,3.5,2.8,4.1c0,0-1.1-3.1-1.6-5.7c1.5-3.3,1.6-9.2,3.2-9.8c2.7-0.9,5.3-1.1,5.3-1.1c-0.7-0.1-3.5-0.4-4.5-0.5
		c0.1-2-0.8-5,0.8-5.4c4-1,3.7-9.4,3.7-12.3c0,0-1.2,5.4-3.3,9.5c0,0-9.4-0.6-12.8,0.4c0.5-1.6,0.6-4.9,0.6-6.2c0,0-0.9,2.9-1.8,6.9
		c-1.1,2-9.4,1.1-13,0.2c-3.6-0.9-2.7-14.3-2.5-15.3c0.2-1.1,14.1-2.3,17.7-1.6c3.6,0.7,12.3-3.2,14.6-3.1c2.3,0.2,6.9-1.6,14.1-0.2
		c7.2,1.4,7.4,3.8,7.4,5.6C97.5,25.1,93.9,45.1,95,47.6z"/>
	<path d="M22,58.5c0.6-0.2,4.8-0.5,7.5-0.3c0,0,0.2,0.1,0.1-0.6C29,57.3,24.5,57.1,22,58C22.1,58.1,21.4,58.7,22,58.5z"/>
	<path d="M22,61.2c0.6-0.2,4.8-0.5,7.5-0.3c0,0,0.2,0.1,0.1-0.6C29,60,24.5,59.8,22,60.7C22.1,60.8,21.4,61.4,22,61.2z"/>
	<path d="M29.6,63.7c0,0,0.2,0.1,0.1-0.6c-0.6-0.3-5.2-0.5-7.7,0.4c0.1,0.1-0.5,0.7,0,0.5C22.6,63.8,26.8,63.5,29.6,63.7z"/>
	<path d="M19,17.3c6.7-3.8,9,1.6,9,1.6c0.3-0.7,0.3-0.7,0.3-0.7C28,15.9,23.8,12.9,19,17.3z"/>
	<path d="M15.1,17.5C9.8,13.6,6,17,5.9,19.3c0,0,0,0,0.4,0.7C6.3,20,8,14.4,15.1,17.5z"/>
	<path d="M26.5,26c0,0,0.2-1.5,0-2.3c-4.3-8.7-5.9-0.1-5.9,1.1c0.3,2.7,2,3.8,2.6,3.9C24,28.7,26.1,28.6,26.5,26z M21.5,25.1
		c-0.2-2.1,2-7.4,4.4-0.8c0.1,0.7,0,1.7,0,1.7c-0.2,2-0.9,2.3-2,2.5C22,28.4,21.7,27.2,21.5,25.1z"/>
	<circle cx="23.2" cy="25.8" r="1"/>
	<path d="M12.5,28.7c0.6-0.2,2-1.6,1.7-4.4c-0.3-1.2-3.8-9.2-6,0.2c0.1,0.9,0.6,2.3,0.6,2.3C9.6,29.4,11.7,29,12.5,28.7z M9.3,26.7
		c0,0-0.3-1-0.4-1.7c0.9-6.9,4.1-2.3,4.4-0.2c0.3,2.1,0.2,3.3-1.5,3.8C10.7,28.8,10,28.6,9.3,26.7z"/>
	<ellipse transform="matrix(0.9749 -0.2225 0.2225 0.9749 -5.5236 3.1165)" cx="11.1" cy="26.1" rx="1" ry="1"/>
	<path d="M26.5,32.2c0.7,0.3,0.8,0.4,1.2,2.1C27.8,33.5,28.4,31.9,26.5,32.2z"/>
	<path d="M18.3,35.1c-2.5,0-6.5-0.4-7.6-1.6c0.1-0.4,0.3-0.5,0.6-0.7c-1.4-0.3-0.9,1.3-0.9,2.1c0.1-0.6,0.2-1,0.3-1.3
		c0.1,0.9,0.8,4.4,1.5,4.6c4,0.8,12.7,0.6,13.7-0.1c1-0.8,0.5-2.9,1.2-5.1C25.1,35.4,20.9,35.1,18.3,35.1z M14.3,38
		c0.2-1.4,3.4-1.4,4.3-1.1c0.1,0.4,0.1,0.7,0.1,1.3c0-0.7,0-1,0.1-1.3c2.6-0.3,4.7-0.1,5.1,1.3C22.5,38.3,16,38.2,14.3,38z"/>
</g>
</svg>
