<?xml version="1.0" encoding="utf-8"?>
<!-- Generator: Adobe Illustrator 19.2.1, SVG Export Plug-In . SVG Version: 6.00 Build 0)  -->
<svg version="1.2" baseProfile="tiny" id="Layer_1" xmlns="http://www.w3.org/2000/svg" xmlns:xlink="http://www.w3.org/1999/xlink"
	 x="0px" y="0px" viewBox="0 0 100 100" xml:space="preserve">
<g>
	<path d="M38.2,17.8C38.2,17.8,38.2,17.8,38.2,17.8C38.2,17.8,38.2,17.8,38.2,17.8C38.2,17.8,38.2,17.8,38.2,17.8z"/>
	<path d="M29.2,10.7c-3.1-2.9-5.8-0.9-6,0.6c0,0,0,0,0.2,0.5C23.4,11.7,24.9,8.2,29.2,10.7z"/>
	<path d="M38.5,12.5c0.3-0.4,0.3-0.4,0.3-0.4c0-1.5-2.5-3.7-5.9-1.2C37.4,8.9,38.5,12.5,38.5,12.5z"/>
	<path d="M25.2,18c0.4-0.1,1.5-0.7,1.7-2.5c0-0.8-1.1-6.4-3.8-0.7c-0.1,0.6,0,1.5,0,1.5C23.3,18,24.7,18,25.2,18z M23.5,16.3
		c0,0-0.1-0.7,0-1.1c1.5-4.3,2.9-0.9,2.8,0.5c-0.1,1.4-0.3,2.1-1.5,2.2C24.1,17.8,23.7,17.6,23.5,16.3z"/>
	<circle cx="24.9" cy="16.1" r="0.7"/>
	<path d="M34,15.3c-0.2,1.8,0.7,2.7,1.1,2.8c0.5,0.1,1.9,0.4,2.4-1.2c0,0,0.3-0.9,0.4-1.5C36.4,9.3,34.2,14.5,34,15.3z M37.4,15.8
		c0,0.4-0.3,1.1-0.3,1.1c-0.4,1.2-0.9,1.3-1.6,1.3c-1.1-0.3-1.2-1.1-1-2.5C34.7,14.3,36.8,11.3,37.4,15.8z"/>
	<ellipse transform="matrix(0.2224 -0.975 0.975 0.2224 11.8425 47.6758)" cx="35.8" cy="16.4" rx="0.7" ry="0.7"/>
	<path d="M44.6,9c0.1,0.4,0.4,1.9,0.4,2.2c6-0.7,51.3,3.6,32.6,14.3c-3-2.3-10.5-5.1-28.7-5.1c-1.9,0-5.7,0.1-5.8,0.1
		c2.5-4.9,1.7-10.7-1.7-14.8c-1-1.2-1.8-1.9-2.9-2.6C32.4-1.2,24,0.6,19.8,6.8c-3.9,5.8-2.7,13.4,2.5,17.8c0,0-2.7,1.7-2.7,4.4
		c0,0.6,0,1.3,0,1.7c0,0.3,0.4,1.8,2.9,3.3c-0.1,0,1.2,10.5,1.5,11.8c0.2,0.8,0.1,1.9,1.5,3c0.8,6.7,3.4,27.6,3.7,28.9
		c0.1,0.7,0.1,1.7,0.9,2.6c2.6,15.9,1.1,7.4,1.5,10.2c0.4,2.8,0.6,9,18,9c17.4,0,17.5-5.8,18-8.8c0.4-2.6,1.4-8.9,1.6-10.6
		c0.7-0.9,0.7-1.7,0.9-2.8c0.2-1.8,2.9-23.6,3.5-28.6c1.5-1,1.5-2.1,1.7-3.3c0.3-1.9,1.5-10.5,1.7-11.6c2.4-1.5,2.8-2.7,2.8-2.7
		c0-1.6,0-3.1,0-3.1c0,0,0,0,0,0c0,0,0,0,0,0c0-0.4-0.3-1.3-1.6-2.4C98.2,15.3,55.2,7.9,44.6,9z M48.9,21.3c18,0,25,2.7,27.6,4.8
		c-0.6,0.3-1.2,0.6-1.8,0.9c-1.8-1.8-7.6-4.6-25.7-4.6c-2.6,0-5,0.1-7.1,0.2c0,0,0.6-0.7,0.9-1.1C44.7,21.4,46.7,21.3,48.9,21.3z
		 M74.1,28.3c0,0.2,0,0.5-0.3,0.9c-0.3-0.3-0.8-0.7-1.5-1c0.5-0.2,1-0.4,1.5-0.6C74.1,27.9,74.1,28.2,74.1,28.3z M25.7,26.8
		c0.2,0.1,1.9,0.7,2.4,0.8c-1.4,0.5-2.4,1-3.1,1.5C24.9,28.7,25,27.5,25.7,26.8z M30.3,27.9c0.9,0,1.8,0,2.7-0.1
		c0.6,0.6,1.2,1,2,1.1c2.2,0.2,2.6-1,2.6-1c0.6,0.3,1.7,0.1,2.1-0.7c0.1-0.2,0.2-0.4,0.2-0.7c2.7-0.2,5.8-0.3,9.5-0.3
		c12.3,0,18.5,1.2,21.5,2.4c-1.4,0.5-2.9,1-4.5,1.6c1.7-0.5,3.3-1,4.8-1.5c1.2,0.5,1.8,1,2.1,1.4c-1.9,1.6-7.4,3.8-23.7,3.8
		c-17,0-22.3-2.3-23.9-4C26.3,29.3,27.7,28.6,30.3,27.9z M32.6,26.3c-0.9-1.2-1.6-2.5-1.6-2.5l1.4-0.2l0.5,0.2
		c0.1,0.3,0.3,1.3,1.3,2.1c0.1,0.1,0.3,0.2,0.5,0.3c-0.1-0.1-0.2-0.3-0.2-0.4C34.1,25,34,24.1,34,23.6l1-1c0.1,0.7,0.5,1.8,1,2.6
		c0.3,0.5,0.6,0.9,1,1.1l0,0l0,0c0.2,0.1,0.3,0.1,0.5,0.1c0.8,0,1.4-0.5,1.7-1c0.2-0.3,0.3-0.5,0.3-0.6c0,0,0,0,0,0
		c0,0.2,0,0.4,0,0.5c0,0.4,0,0.7-0.1,1.1c0,0.2-0.1,0.5-0.2,0.6c-0.4,0.4-0.3,0.7-1.8,0.4c-0.6,0.8-0.7,1-2.3,0.9
		c-0.5,0-1.1-0.5-1.7-1.1C33.1,26.9,32.9,26.6,32.6,26.3z M40,24.5c0.5-0.4,0.9-0.8,1.3-1.3c2.2-0.1,4.8-0.2,7.7-0.2
		c18.2,0,23.4,2.8,24.7,4.4c-0.5,0.2-1,0.4-1.6,0.7C68.7,26.6,61.2,25,49.5,25c-3.6,0-6.7,0.1-9.5,0.4C40,25,40,24.7,40,24.5z
		 M20.9,8.1c3.8-5.7,11.5-7.2,17.2-3.4c0.1,0.1,0.2,0.1,0.3,0.2c0.6,0.4,1.2,0.9,1.7,1.5c3.7,3.7,4.6,9.5,2.1,14.3
		c-0.2,0.4-0.4,0.8-0.7,1.2c-1.1,1.6-2.5,2.9-4.1,3.8c-0.2-0.2-0.4-0.5-0.6-0.8c-0.4-0.6-0.7-1.3-0.8-1.8c0-0.4,0-0.8-0.1-1.3
		c-0.1-0.5,0.5-0.6,0.4-1.3c-1.2,2.6-5.8,3.9-10,2c0.8,1.8,1,1.9,0.8,2.7c1.4,0.4,3,0.5,4.5,0.5c0.1,0.3,0.3,0.5,0.4,0.8
		c0.2,0.3,0.4,0.6,0.6,0.8c-5.7,0-8.3-2.2-8.5-2.3C18.6,21.1,17.3,13.6,20.9,8.1z M65.9,90.8c-0.3,2.7-1.8,7.1-16.3,7.1
		s-15.7-4.2-16.4-7.1c-0.5-2.1-1.1-6.7-1.4-8.9c0.5,0.3,1.2,0.6,1.9,0.8c6.6,2.1,9.7,2.6,15.8,2.6s10.5-0.7,15.4-2.5
		c1-0.4,1.8-0.7,2.4-1.1C66.9,84.1,66.2,88.5,65.9,90.8z M68.2,77.3c-0.3,2.4-0.8,6.7-18.7,6.7c-17.9,0-18.5-5.1-18.7-6.8
		C30.6,75.7,28,54.8,27.4,50c0.6,0.3,1.4,0.5,2.3,0.8c8.3,2.1,12.2,2.6,19.8,2.6c7.7,0,13.2-0.7,19.3-2.5c1-0.3,1.9-0.6,2.6-0.9
		C70.9,56,68.4,75,68.2,77.3z M74,45.4c-0.3,2.4-2.2,6.7-24.5,6.7c-22.4,0-24.3-5.1-24.6-6.8c-0.2-1.5-0.7-8.4-0.8-10.3
		c4,1.9,11.5,3.6,25.4,3.6c13.2,0,20.7-1.6,24.8-3.4C74.9,40.8,74.4,43.1,74,45.4z M78.6,30.5c-0.1,0.2-0.1,0.4-0.1,0.4
		c0,1-4.4,6.6-29,6.6c-24.7,0-29.1-6.7-29.1-6.7c0-0.1,0-0.1,0-0.2c2.1,2.5,8.7,5.8,29.1,5.8C70.2,36.4,76.6,32.9,78.6,30.5z
		 M78,28.2c0,1-0.6,7.2-28.5,7.2c-28,0-28.6-6.3-28.6-7.2c0-0.4,0.2-1.6,2.3-2.9c0.1,0.1,0.2,0.2,0.3,0.2c0.4,0.3,0.8,0.5,1.3,0.7
		c-1.1,0.9-1.3,1.6-1.3,1.9c0,0.8,0.5,6.2,26,6.2c25.4,0,25.9-5.3,26-6.2c0-0.2-0.1-0.6-0.5-1.1c0.7-0.3,1.3-0.6,1.9-0.8
		C77.8,27.2,78,27.9,78,28.2z"/>
</g>
</svg>
