<?xml version="1.0" encoding="utf-8"?>
<!-- Generator: Adobe Illustrator 19.2.1, SVG Export Plug-In . SVG Version: 6.00 Build 0)  -->
<svg version="1.2" baseProfile="tiny" id="Layer_1" xmlns="http://www.w3.org/2000/svg" xmlns:xlink="http://www.w3.org/1999/xlink"
	 x="0px" y="0px" viewBox="0 0 100 100" xml:space="preserve">
<g>
	<path d="M61.1,18.8c-1.4,1,9.1,8.2,10.4,5.4c2.4-5.8,3.6-15.5,0.5-23.8C71.2,7.2,65.2,16.2,61.1,18.8z"/>
	<path d="M33.6,45.2c0,0-0.1-0.1-0.3-0.1c0.9-0.3,1.9-0.6,2.9-0.9c-7.5,1-14.8,3.9-20.1,6.7c0,0,0,0,1.1,1.4c0,0,1.4-0.8,3.6-1.9
		c-0.6,2.9-0.5,7.5,0.8,10.3c0.4,0.1,0.9,0.2,1.4,0.2c0.5,1.6,1.3,3.3,1.3,3.3c2.3,4.7,6.3,3.4,7.8,2.9c1.1-0.5,3.3-3.2,2.6-7.9
		c0.7-0.3,1.4-0.5,2-0.8C36.8,58.4,34.9,48.9,33.6,45.2z M30.9,67.1c-2.2,0.4-3.6,0.3-5.3-3.3c0,0-0.7-1.6-1.1-2.8
		c1.1,0,2.3,0,3.5-0.2c0.1,0.5,0.3,0.9,0.3,0.9c0.7,1.6,1.3,1.6,2.3,1.4c1.3-0.5,1.4-1.5,1.1-3c0.5-0.1,1-0.2,1.5-0.4
		C34.1,63.5,34.1,65.9,30.9,67.1z M34.5,57.4c-3.3,1-6.9,2-11.8,1.1c0,0-0.8-5-1.1-8.5c2.9-1.4,6.9-3.3,11-4.7c0,0.1,0,0.1,0,0.2
		C32.6,45.4,34.9,54.8,34.5,57.4z"/>
	<path d="M54.4,44.1c-1.1,1.4-1.1,1.4-1.1,1.4c0.6,0.3,1.2,0.7,1.9,1c-0.1,0-0.2,0-0.2,0c-1.3,3.7-2,11.8-2,11.8
		c0.6,0.3,1.2,0.5,1.8,0.8c-0.8,4.7,1.6,7.4,2.8,8c0.6-0.3,2.9-1.9,7.8-2.9c0,0,0.8-1.8,1.3-3.3c0.5-0.1,1-0.1,1.4-0.2
		c1.6-3.6,0.9-7.3-0.1-9.3c0,3.3-1,7.2-1,7.2c-4.9,0.9-8.5-0.1-11.8-1.1c-0.4-2.6,1-10.2,1-10.2c0-0.1,0-0.1,0-0.1
		c5,2.3,11.2,4.5,17.3,5.3C64.2,49.7,54.4,44.1,54.4,44.1z M55.7,59.4c0.4,0.1,0.9,0.3,1.4,0.4c0,0.6,0,1.2,0,1.2
		c0.1,1.7,0.7,2,1.7,2.2c1.4-0.1,1.8-1.1,2-2.6c1.7,0.3,3.3,0.4,4.7,0.3c-0.3,1.3-1.1,3-1.1,3c-4,0.9-6,2.2-6.5,2.4
		C56.9,65.8,54.9,63.5,55.7,59.4z"/>
	<path d="M62.9,16.1c1.1-1.3,2.3-2.7,3.3-4.3c-13.9-7.2-30.3-6.1-43.1,1.9c1.1,1.6,2.4,3.1,3.7,4.4C37.7,11.9,51.1,10.9,62.9,16.1z"
		/>
	<path d="M27.7,20.1c-4-2.6-9.8-11.6-10.6-18.4c-3,8.3-1.8,18,0.5,23.8C18.8,28.3,29.1,21.1,27.7,20.1z"/>
	<path d="M86,71.5c0,0-1.6,4.7-3.3,5.8c3.7-0.1,14.8,0.9,14.9,10.6c0.1,8.4-9.8,9.9-14.1,9.9c-7.2,0-13.6-3.1-18.8-7.1
		c7.1-3.3,13.3-8.5,17.9-15.4c12.4-18.7,8.7-43.6-8.1-57.9c-0.2,1.9-0.7,3.7-1.2,5.3c14.8,13,17.9,35.3,6.8,52.1
		C75.8,81.5,69.8,86.3,63,89.3c-0.5-0.5-1.1-0.9-1.6-1.4c3.3-2.1,4.9-5.6,3.5-10.7c-0.4-1.6,1.6-2,1.3-4.3
		c-1.8,3.9-5.7,6.9-10.7,8.5c-1.5-1.9-17.9-20.7-38.9-2.9c0,0-0.1,0.1-0.1,0.1c-0.1-0.1-0.2-0.2-0.2-0.3c0.2-0.1,0.5-0.2,0.7-0.3
		c0.2-0.2,0.5-0.4,0.9-0.7c-0.1-0.5-0.4-1-1.3-1.3c-0.6-0.2-1.3-0.1-1.9,0.2C5,63.1,4.1,44.9,13.7,30.5c1-1.5,2.1-2.9,3.3-4.3
		c-0.8-1.8-1.4-3.8-1.8-6.1c-1.9,1.9-3.6,4-5.2,6.3c-11,16.4-9.4,37.4,2.4,52c-2.2,3.1-0.6,4.6-5.2,8.1c2.6,0.4,8.2,0.4,11.6-1.7
		c1,0.8,2.1,1.6,3.2,2.4c2,1.3,4,2.4,6,3.4c1.1,0.6,2,0.9,3.7,1.6c10.3,3.7,21.6,3.3,31.5-0.9c5.5,4.3,12.9,8.6,20.5,8.6
		c7.6,0,16.3-2.9,16.3-12.5C100,75.8,93.6,75.4,86,71.5z M57.5,83.8c-0.6-0.6-1.1-1.3-1.6-1.9c2.4-0.9,4.9-2.1,7.5-3.7
		C63.4,81,60.9,82.7,57.5,83.8z M54.2,82.7c0,0,0.5,0.6,1.3,1.5c-7.5,1.5-17.9,0.5-19.3,0.3c-2.2-0.4-2-1-2.6-3
		c6.9,2.5,13.4,3.1,20.3,1C54,82.6,54.1,82.7,54.2,82.7z M8.6,85.9c3.1-1.6,2.9-4.1,5-6c0,0,0.1,0.1,0.1,0.1
		C11.6,81.6,11.4,84.9,8.6,85.9z M24.7,85.9c-1.4-0.9-2.7-1.9-4-3c0.8-1.3,1.1-2.9,0.2-3.8c-0.8-0.9-1.9-1.7-3.7-0.7
		c20-14.9,33.1-0.2,36.3,3.6c-6.4,1.6-14.2,1.1-21.8-2.2c2.6,6.2,3.6,6.6,2.6,9.3c8.5,2.1,19.3,2.6,25.7-0.4
		c0.5,0.4,0.9,0.8,1.4,1.2C49.7,94.5,36,93.4,24.7,85.9z"/>
</g>
</svg>
