<?xml version="1.0" encoding="utf-8"?>
<!-- Generator: Adobe Illustrator 19.2.1, SVG Export Plug-In . SVG Version: 6.00 Build 0)  -->
<svg version="1.2" baseProfile="tiny" id="Layer_1" xmlns="http://www.w3.org/2000/svg" xmlns:xlink="http://www.w3.org/1999/xlink"
	 x="0px" y="0px" viewBox="0 0 100 100" xml:space="preserve">
<g>
	<path d="M26.6,64.6c12.2,4.9,13.9,2.6,14.1,2.1c0.2-0.4,1-3.3-11.9-8.4c-12.8-5.1-14.2-2.6-14.4-2.1C14.3,56.6,14.4,59.7,26.6,64.6
		z M28.7,58.6c8.6,3.4,10.8,5.7,11.3,6.9c-1.1,0.2-4.3,0.4-12.8-3c-9.1-3.6-11.1-6-11.3-6.8C17.2,55.3,20.5,55.4,28.7,58.6z
		 M15.1,56.4c0-0.1,0.1-0.2,0.3-0.4c0.4,1.2,4.1,4.1,11.5,7c7.6,3.1,11.7,3.3,13.2,2.9c0,0.2,0,0.4,0,0.5c-0.1,0.4-1.7,2.4-13.3-2.2
		S14.9,56.8,15.1,56.4z"/>
	<path d="M84.9,44.7c1.6,0.5,3.8,0,5-2.1c1-0.9,1.8-2.2,2.5-3.5c0.9-0.6,5.4-7.1,5.8-8.8c0.2-0.1,1.7-2.2,1.8-2.7c0,0,0-0.3,0-0.9
		c0,0-1.4,2.4-2.1,2.9c-0.5-0.4-1.6-1.1-2-1.1c0,0,1.2,0.8,1.7,1.7c-0.4,2.5-3.3,5.8-5.7,8.1c-0.4-0.7-1.5-1.8-2.3-2
		c0,0,1.4,1,2,2.2c0.6,1.1-3.1,6-5.9,5c-1.5-0.6-2.3-2.4-2-4.4c0-0.2,0.1-0.4,0.1-0.6c0.3-1.3,1-2.6,2.3-3.5c0-0.1,0.1-0.2,0.1-0.2
		c0.1-0.1,0.1-0.3,0.2-0.4c1-1.8,3.9-5.2,5.2-6.5c0.3-0.3,0.5-0.4,0.6-0.5c0-0.1,0.2-0.5,0.5-1.1c0,0,0,0,0-0.1
		c0.5-0.9,1.7-2.7,2.6-3.8c0.6,0.4,1.3,0.8,2.1,1.4c2.4,1.6,2.4,1.6,2.4,1.6c0-0.6,0-0.8,0-0.9c-1.2-0.5-2.8-1.4-4.3-2.5
		c0-0.1,0.1-0.3-0.2-0.2c-1.2-0.8-2.3-1.7-3.3-2.6c-3.6-1.8-6.8-4.7-7.9-6.4s0.9-4.1,2.6-3.7c0.5,0.1,0.8,0.2,1,0.2l1.1,0.6
		c0,0,5,2.3,5.7,2.6s3.2,2.5,5.2,4.2c0,0-0.1-0.7,0-1.3c0.1-0.3-3.8-2.9-4.8-3.6c-0.9-0.5-6.1-2.9-8-3.5c0,0,0,0,0,0
		c-0.1,0-0.2-0.1-0.3-0.1c-0.1,0-0.3,0-0.3,0c-1.7,0.1-3.5,2.3-2.8,4.4c0.1,0.3,0.3,0.6,0.5,1c0,0-0.1,0-0.1,0.1
		c-0.4,0.3-1.1,1.2-1.9,2.4c-0.5-0.3-1-0.6-1.3-0.7c0.3,0.1,0.8,0.7,1,1c-0.6,0.8-1.1,1.7-1.7,2.5c-0.4,0.1-1.5,1.6-3.2,3.8
		c-0.1-0.2-0.4-0.6-0.9-0.8c0.4,0.2,0.7,0.7,0.8,1c-0.8,1-1.7,2.2-2.6,3.5c-0.2,0.1-0.3,0.2-0.4,0.3c-0.5,0.2-1,0.2-1.4,0.1
		c-2.2-0.8-2.3-4.8,0.3-6.7c0.4-1.2,4.2-5.7,4.8-6c0-0.5,8.3-10.9,9.9-13c0,0,0.3-0.6-0.3-0.2c-0.6,0.4-8.9,11.3-9.9,12.9
		c-0.4,0.1-2.2,2.6-4.7,5.8c-2,1.1-2.5,4-1.9,5.8c-6.1-8.4-15-9.8-22.1-8.5c-1.6-0.9-3.4-1.7-5.5-2.2c-7.8-1.8-17.2,2.5-21.4,11
		l-8.2-3.5c2.7-6.5,8.2-11.8,15.8-14.6c-7.4,2.2-13.4,7.3-16.3,14.3L0,17.1v3.5l11.9,5.1c-1.5,5.9-0.9,12.8,2.5,20.3
		c0,0,0.1-1.1,0.6-1.3c-3.4-6.5-4-13-2.6-18.8l8,3.5c-1.1,3.6-1.4,7.8-0.6,12.5c0-0.2,0.2-0.7,0.2-1.2c-0.2-4.4,0.1-8,1-11.1
		l6.2,2.7c-0.5,0.9-6.2,11.4-7.6,13.8c-1,0.2-1.2,0.7-1.5,1.3c-0.5,0.8-2.6,4.5-3.1,5.4c-1.7,0.2-2.2,0.9-2.2,0.9
		c-0.3,0.8-0.5,1.6-0.5,1.6c0.1-0.1,0.1-0.1,0.2-0.2c0,0.1-0.1,0.1-0.1,0.2c-0.2,0.6-0.2,4.5,13.9,10.2c14.1,5.7,16.3,2.5,16.5,2
		c0.1-0.2,0.2-0.7,0-1.4c0,0,0,0,0-0.1c0,0,0-0.1-0.1-0.3c0,0.1,0,0.1,0,0.1c-0.8-1.7-3.7-4.7-13.4-8.5c-10.8-4.3-14.7-3.7-16.1-2.8
		c0.1-0.2,0.2-0.3,0.2-0.3c0.2-0.5,3.6-2.4,16.1,2.5c10.4,4.2,12.8,7.8,13.2,8.9c0.1-1-0.8-4.6-13.3-9.6c-6.5-2.6-10.4-3.3-12.9-3.3
		c0.9-2.8,1.6-3.9,2.2-5c0.6-1.1,2.4-2.9,13.8,1.6s11.3,7.5,11.1,8.4s-1.8,5.6-1.8,5.6c0,0.1,0.9,0.6,0.9,0.6
		c0.7-3.1,1.4-5.6,1.5-6.4c0.1-0.5,0.3-1-0.2-1.8c0.6-2.3,2.1-7.9,3.1-11.7c2-0.1,3.7-0.9,5.1-2.1c4.2,1.6,11.2,4.4,19.3,7.4
		c0.2,1.3,0.4,2.5,0.5,3.6c0-1,0-2.2-0.2-3.5c7.6,2.9,16.2,6,24.1,8.7c0,0-20.5,31.8-27.2,41.8c0,0,1.3,0.2,3.3,0
		c0,0,14.4-20.5,25.8-38.9l0.2,4.2L76.2,100h3L100,67.1v-9.9c0,0-14.7-5.5-28.9-10.9c-1.6-7.7-5.8-16.8-10.1-18.5
		c3.1,1.2,7.4,10.3,9.6,18.3c-6-2.3-11.9-4.6-16.5-6.4c3.9-5.9,3.3-16.2-4.4-21.7c7.4-1.1,16.7,0.9,22.6,11
		c-1.2,2.7-0.6,6.2,1.2,7.1c0.6,0.3,1.3,0.3,1.9,0.2c0,0.1,0,0.2,0.1,0.2c-1,1.6-1.3,3.7-1,5.4c0,1.2,0.2,2.6,1.6,3
		c0.4,0.1,0.9,0.2,1.3,0.3c0.1,0.8,0.2,1.6,0.3,2.4c-0.1-0.8-0.2-1.6-0.3-2.4c1,0.1,1.9-0.3,2.7-1.7c1.3-1,2.4-2.5,3.1-3.3
		c0,0.3,0,0.6,0.1,0.9C83.2,42.6,83.4,44.2,84.9,44.7z M29,57.8c12.9,5.1,13.2,8.3,13,9.2c0,0-0.1,0.1-0.1,0.1c0,0,0,0,0,0
		c0,0,0,0.1,0,0.1c-0.2,0.5-2.1,3.2-15.6-2.2c-13.4-5.4-13.5-8.9-13.3-9.4C13.3,55.2,14.9,52.1,29,57.8z M22.1,26.5
		C26.7,16.1,37.5,15.1,43.4,16c1.7,0.3,3.2,0.8,4.5,1.5c-5.6,1.2-10,3.9-11.2,6.2c-4.1-0.6-5,1.3-5.6,2.4c-0.4,0.8-1.3,2.2-2,3.4
		L22.1,26.5z M47.4,37.9c-0.2-0.2-0.5-0.5-0.8-0.8c-2.9-2.4-4.4-3.3-7.5-4.5c-3.1-1.2-5.5-1.8-8.3-1.8c-0.6,0-1,0-1.4,0.1
		c0.7-1.1,2-3.2,2.6-4.3c0.7-1.3,2.3-3.2,9.7-0.3s7.1,5.3,6.9,6.9C48.3,34.3,47.7,36.7,47.4,37.9z M42.2,54.1
		c-3.8-2.7-5.6-3.8-9.5-5.3c-3.9-1.6-6.8-2.3-10.3-2.6C21.8,46,21.3,46,20.9,46c1.5-3,6.6-12,7.2-13.2c0.6-1.1,1.8-3.2,10.8,0.4
		s8.3,6.3,8.1,7.2c-0.2,0.8-3.1,11.9-3.8,14.5C42.9,54.7,42.6,54.4,42.2,54.1z M47.2,43.4c0.4-1.6,0.7-2.7,0.7-2.9
		c0,0,1.3,0.5,3.5,1.4C50.2,42.6,48.8,43.2,47.2,43.4z M53.7,39.7c-2.2-0.8-4-1.6-5.4-2.2c1.5-6.5,0.6-2.6,0.9-4
		c0.3-1.5,1.5-4.7-7.3-8.2c-1.6-0.6-2.9-1.1-4.1-1.3c0.9-2.1,5.4-4.8,11.1-5.7C56.1,23.1,58.1,33.9,53.7,39.7z M80.7,19.7
		c0-0.7,1.6-2.7,3.8-5.3c1.2,1.5,3.3,3,5.1,4.1c0,0,0,0,0,0c-0.3,0.2-1.5,1.8-2.7,3.6c-0.6-0.5-1.4-0.5-1.6-0.5
		c0.5,0,1.1,0.5,1.4,0.7c-1.4,2.1-3,4.4-3.7,5.4c-0.2,0.1-0.7,0.5-1.3,1.3c-0.3-0.4-1.2-1.5-1.7-1.4c0.7,0.5,1.2,1.5,1.4,1.9
		c-1.1,1.3-2.6,3.4-4.3,5.7c-0.2,0.1-0.4,0.2-0.5,0.4c-0.4,0.2-0.7,0.3-1.1,0.4c-0.7-2.5-1.6-4.6-2.6-6.5c0.4-0.8,1-1.5,1.8-2.1
		c0,0,0-0.1,0.1-0.1c0,0,0.1,0,0.1-0.1c0-0.1,0-0.1,0-0.2C75.7,24.9,80,20,80.7,19.7z M71.7,27.4c0.1,0.1,0.2,0.1,0.2,0.2
		c0.4,0.2,0.8,0.2,1.3,0.2c-0.3,0.3-0.5,0.7-0.7,1C72.3,28.3,72,27.8,71.7,27.4z M74.2,35.8c-2-0.7-2.6-3.6-1.6-6
		c1,1.8,1.9,3.8,2.6,6.1C74.9,35.9,74.6,35.9,74.2,35.8z M75.6,36.4C75.7,36.4,75.7,36.4,75.6,36.4C75.7,36.4,75.7,36.4,75.6,36.4
		C75.7,36.4,75.7,36.4,75.6,36.4z M75.8,37.5c0.6,2,1.1,4.3,1.5,6.7c-0.1,0-0.1,0-0.2,0C74.8,43.4,74.3,40,75.8,37.5z M77.3,44.2
		c-0.4-2.5-0.8-4.8-1.4-6.9c0.4-0.6,0.9-1.2,1.5-1.6c0.5-1.6,5.4-7.3,6.1-7.6c0-0.7,4.3-6.7,6.5-9.3v0c0.8,0.5,1.5,0.8,2,1
		c1.3,1.2,2.1,2,3.1,2.7c-0.2,0.2-0.2,0.5-1.7,2.7c-0.3,0.3-1.2,1.4-1.5,1.7c-0.5-0.4-1.6-1.1-2-1.1c0,0,1.2,0.8,1.7,1.7
		c0,0.1-0.1,0.3-0.1,0.4c-0.1,0.1-0.2,0.2-0.2,0.3c-0.5,0.2-2.9,3.5-5.8,7.4c-0.5-0.7-1.4-1.5-2-1.6c0,0,1.2,0.9,1.8,1.9
		c0,0.1-1.7,1.7-1.9,3.5c0,0.1,0,0.3,0,0.4C82.2,40.7,79.6,44.5,77.3,44.2z"/>
	<path d="M85.5,10.2c-0.5,0.7-1,1.1-1.3,2c-0.2,0.6,4.1,3.2,5.2,3.1s2-2.9,2-2.9C91.5,12,86.7,8.5,85.5,10.2z"/>
	<path d="M100,24.7C100,24.7,100,24.7,100,24.7C100,24.7,100,24.6,100,24.7z"/>
	<path d="M92.6,16.4c0.3-1.1,1.3-2.8,1.3-2.8l-0.4,0.4C93.1,14.5,92.5,15.6,92.6,16.4z"/>
	<polygon points="94.8,14.6 93.9,16.2 94.9,14.7 	"/>
	<path d="M95.9,14.4c0,0.9-1.2,3-1.7,3.4C95,17.6,96.5,14.9,95.9,14.4z"/>
	<path d="M20.2,83.6c0.2-0.1,0.3-0.1,0.5-0.2c0,0-0.4-2.2-0.7-3.1c0,0,0,0-0.1,0c0.2-0.1,0.5-0.1,0.7-0.2c-1.8,0.2-3.5,0.9-4.8,1.6
		c0,0,0,0,0.3,0.3c0,0,0.3-0.2,0.9-0.5c-0.1,0.7-0.1,1.8,0.2,2.4c0.1,0,0.2,0,0.3,0.1c0.1,0.4,0.3,0.8,0.3,0.8
		c0.5,1.1,1.5,0.8,1.8,0.7C19.8,85.3,20.4,84.7,20.2,83.6z M17.3,83.4c0,0-0.2-1.2-0.3-2c0.7-0.3,1.6-0.8,2.6-1.1c0,0,0,0,0,0
		c0,0,0.5,2.2,0.4,2.8C19.4,83.4,18.5,83.6,17.3,83.4z M18,84.7c0,0-0.2-0.4-0.3-0.7c0.3,0,0.5,0,0.8,0c0,0.1,0.1,0.2,0.1,0.2
		c0.2,0.4,0.3,0.4,0.5,0.3c0.3-0.1,0.3-0.3,0.3-0.7c0.1,0,0.2-0.1,0.3-0.1c0.2,0.9,0.2,1.5-0.5,1.8C18.8,85.5,18.4,85.5,18,84.7z"/>
	<path d="M24.9,80c-0.3,0.3-0.3,0.3-0.3,0.3c0.1,0.1,0.3,0.2,0.4,0.2c0,0,0,0,0,0c-0.3,0.9-0.5,2.8-0.5,2.8c0.1,0.1,0.3,0.1,0.4,0.2
		c-0.2,1.1,0.4,1.8,0.7,1.9c0.1-0.1,0.7-0.4,1.8-0.7c0,0,0.2-0.4,0.3-0.8c0.1,0,0.2,0,0.3-0.1c0.4-0.9,0.2-1.7,0-2.2
		c0,0.8-0.2,1.7-0.2,1.7c-1.2,0.2-2,0-2.8-0.3c-0.1-0.6,0.2-2.4,0.2-2.4c0,0,0,0,0,0c1.2,0.6,2.6,1.1,4.1,1.3
		C27.2,81.3,24.9,80,24.9,80z M25.2,83.6c0.1,0,0.2,0.1,0.3,0.1c0,0.1,0,0.3,0,0.3c0,0.4,0.2,0.5,0.4,0.5c0.3,0,0.4-0.3,0.5-0.6
		c0.4,0.1,0.8,0.1,1.1,0.1c-0.1,0.3-0.3,0.7-0.3,0.7c-1,0.2-1.4,0.5-1.5,0.6C25.5,85.1,25,84.6,25.2,83.6z"/>
	<path d="M19.5,88.4c0.6,1.5,0.9,1.6,0.6,2.2c3.4,0.9,8.2,0.6,7.3-2.8c-0.1-0.4,0.4-0.5,0.3-1C26.7,88.9,23,90,19.5,88.4z
		 M20.5,89.6c-0.5-0.1-0.5-0.2-0.6-0.7c2.4,0.9,4.5,0.8,7-0.8C27,90.2,21.1,89.7,20.5,89.6z"/>
	<path d="M28.7,72.9C24,69.7,17.5,71,14.3,75.8c-3.2,4.8-1.9,11.2,2.9,14.4c0.5,0.3,1,0.6,1.4,0.8c-1.2,1.4,1.3,2.4,4.1,2.3
		c2.8-0.1,7.5-0.5,5-2.5c1.5-0.8,2.9-1.9,3.9-3.5C34.8,82.6,33.5,76.1,28.7,72.9z M31,87.3c-2.9,4.4-8.8,5.5-13.1,2.6
		c-4.4-2.9-5.5-8.8-2.6-13.1c2.9-4.4,8.8-5.5,13.1-2.6C32.7,77,33.9,82.9,31,87.3z"/>
</g>
</svg>
