<?xml version="1.0" encoding="utf-8"?>
<!-- Generator: Adobe Illustrator 19.2.1, SVG Export Plug-In . SVG Version: 6.00 Build 0)  -->
<svg version="1.2" baseProfile="tiny" id="Layer_1" xmlns="http://www.w3.org/2000/svg" xmlns:xlink="http://www.w3.org/1999/xlink"
	 x="0px" y="0px" viewBox="0 0 100 100" xml:space="preserve">
<g>
	<circle cx="46.9" cy="74.7" r="1"/>
	<circle cx="43.5" cy="70.5" r="1"/>
	<circle cx="42.5" cy="65.2" r="1"/>
	<circle cx="47.9" cy="60" r="1"/>
	<circle cx="44.9" cy="53.8" r="1"/>
	<path d="M72.3,37.5c-11.6,0-21.1,2-21.1,4.6c0,0.2,0,0.3,0.1,0.5c0.1,0.6,0.3,1.2,0.4,1.8c-2.6-0.3-5.6-0.5-8.8-0.5
		c-9,0-16.5,1.4-17.4,3.2c-0.8-5.6-1.5-10.2-1.9-12.5c3.7,1.9,10.9,3.5,19.3,3.5c7.7,0,14.5-1.4,18.4-3c-0.2,0.9-0.5,2-0.7,3.2
		c0.9-0.1,1.8-0.3,2.7-0.4c0.4-1.7,0.7-3.2,1.1-4.6c2.1-0.2,4.5-0.4,7.1-0.4c8.3,0,15,1.4,15,3c0,0.8-1.4,1.5-3.7,2
		c0.8,0.1,1.5,0.2,2.2,0.3c0.6-0.2,1-0.4,1.5-0.6c0,0.3-0.1,0.6-0.1,0.9c0.8,0.2,1.6,0.3,2.2,0.5c1.2-6.9,2.5-13.3,3.7-17.8
		c0.1-0.2,0.2-0.4,0.2-0.6c0-1.9-5.2-3.5-12.7-4.3c0.8-4.3,1.7-8.2,2.5-11.2c0.1-0.2,0.2-0.4,0.2-0.6c0-2.7-10-4.8-22.3-4.8
		c-12.3,0-22.3,2.2-22.3,4.8c0,0.2,0,0.3,0.1,0.5c0.3,1.3,0.6,2.9,1,4.7c-3.1-0.4-6.6-0.6-10.3-0.6c-12,0-21.8,2.1-21.8,4.7
		c0,0.2,0,0.3,0.1,0.5C9.8,27,15,67.8,15,67.8c1.7,1.7,5.7,4.7,12.6,5.2c1,7.5,1.7,13,1.7,13c1.9,1.9,6.5,5.3,14.6,5.3
		c6.9,0,10-3.1,11.7-4.7c0.3-2.5,0.7-5.9,1.2-9.8c1.3,9.7,2.3,17.4,2.3,17.4c1.8,1.8,6.3,5.1,14.1,5.1c6.7,0,9.7-3,11.3-4.6
		c1.2-10.8,5.3-39.4,8.7-51.9c0.1-0.2,0.1-0.4,0.1-0.6C93.4,39.6,84,37.5,72.3,37.5z M43.8,44.4c3,0,5.7,0.2,8.1,0.5
		c0.3,1.5,0.6,3.1,0.9,5c-2.5,0.4-5.6,0.6-9,0.6c-8.3,0-15-1.4-15-3S35.5,44.4,43.8,44.4z M14.4,29.3c0-1.7,6.7-3,15-3
		c4.8,0,9.1,0.5,11.8,1.2c0,0,0,0,0,0c-10.8,0.2-19.3,2.1-20.1,4.4c0,0,0,0,0,0C17.1,31.3,14.4,30.3,14.4,29.3z M44,36.2
		c-10.3,0-18.7-1.8-18.7-4.1c0-2.2,8.4-4.1,18.7-4.1c10.3,0,18.7,1.8,18.7,4.1C62.7,34.4,54.4,36.2,44,36.2z M49.4,18.2
		c1.6-0.4,3.5-0.7,5.8-0.8c-3.9,0.9-6.3,2-6.3,3.3c0,0.2,0,0.3,0.1,0.5c0.1,0.5,0.2,1.1,0.4,1.7l-1-0.2
		C48.7,21.1,49.1,19.6,49.4,18.2z M50.3,27.7c-0.9-0.1-1.9-0.1-2.8-0.2c0,0,0,0,0,0c0.2-1.2,0.5-2.4,0.7-3.6l1.4,0.1
		C49.8,25.1,50,26.3,50.3,27.7z M87,34.7c-2.5-1.3-8.9-2.2-16.3-2.2c-2.1,0-4.2,0.1-6.1,0.2c0.1-0.2,0.1-0.4,0.1-0.5
		c0-1.9-5.2-3.5-12.7-4.3c-0.3-2-0.6-3.6-0.7-4.7c3.7,1.9,10.9,3.5,19.3,3.5c7.7,0,14.5-1.4,18.4-3C88.4,26.3,87.7,30.2,87,34.7z
		 M90.5,20.7c0,2.2-8.4,4.1-18.7,4.1c-10.3,0-18.7-1.8-18.7-4.1c0-2.2,8.4-4.1,18.7-4.1C82.1,16.6,90.5,18.4,90.5,20.7z M61.2,0.4
		c10.6,0,19.1,1.9,19.1,4.2s-8.6,4.2-19.1,4.2S42.1,6.8,42.1,4.5S50.7,0.4,61.2,0.4z M40.4,7.1c3.7,1.9,11.2,3.6,19.7,3.6
		c7.9,0,14.8-1.4,18.8-3.1c-0.5,2.2-1.1,5.2-1.7,8.6c-2.1-0.1-4.3-0.2-6.6-0.2c-4.1,0-7.9,0.2-11.1,0.7c-3.7,0-7.1,0.3-10,0.7
		c0.2-1,0.5-1.9,0.7-2.8c0.1-0.2,0.2-0.4,0.2-0.6c0-1.6-3.8-3.1-9.5-3.9C40.7,8.9,40.6,7.8,40.4,7.1z M29.7,9.9
		c10.3,0,18.7,1.8,18.7,4.1S40,18,29.7,18c-10.3,0-18.7-1.8-18.7-4.1S19.3,9.9,29.7,9.9z M9.3,16.4c3.7,1.9,10.9,3.5,19.3,3.5
		c7.7,0,14.5-1.4,18.4-3c-0.6,2.6-1.3,6.3-2,10.5c-0.5,0-1.1,0-1.6,0c-3.1-1-8.6-1.6-14.8-1.6c-9,0-16.5,1.4-17.4,3.2
		C10.4,23.3,9.7,18.7,9.3,16.4z M11.4,29.9c1,1.3,4.8,2.6,10,3.3c1.4,6.1,3.2,17.9,4.7,28.8c-4.3-0.4-7.8-1.8-10.5-3.4
		C14.4,50.2,12.7,38.9,11.4,29.9z M16.8,66.9c-0.2-1.4-0.4-3.2-0.7-5.3c2.5,1.7,6.4,2.5,10.4,2.5c0.3,2.3,0.6,4.5,0.9,6.6
		C21.2,70.1,16.9,67.8,16.8,66.9z M54.1,85.6c-2.8,2.8-3.9,3.3-10.1,3.3c-7.4,0-12.7-2.8-12.9-3.9c-0.2-1.4-0.4-3.2-0.7-5.3
		c5.7,3.8,18.7,3,22.9-1c-10.6,3.2-18.4,1.1-23.3-2c-1.2-8.4-2.9-19.7-4.3-28.7c1.4,1.8,8.6,3.8,17.2,3.8c3.7,0,7.2-0.4,10-0.9
		c1,5.6,2,12.5,3,19.1C54.8,78.8,54.1,85.6,54.1,85.6z M83.1,93.7c-2.7,2.7-3.8,3.2-9.7,3.2c-7.2,0-12.3-2.7-12.4-3.7
		c-0.2-1.4-0.4-3.1-0.7-5.1c5.5,3.7,18.1,2.9,22.1-1c-10.2,3.1-17.7,1-22.5-1.9c-1.2-8.1-2.8-19-4.1-27.7c1.3,1.8,8.3,3.7,16.6,3.7
		c6.8,0,12.6-1.3,15.3-2.7C85.3,73.8,83.1,93.7,83.1,93.7z M73.1,59.8c-8,0-14.5-1.3-14.5-2.9c0-1.6,6.5-2.9,14.5-2.9
		c8,0,14.5,1.3,14.5,2.9C87.6,58.5,81.2,59.8,73.1,59.8z M88.1,55.6c-2.4-1.3-8.6-2.2-15.7-2.2c-8.7,0-15.9,1.3-16.8,3
		c-0.8-5.4-1.5-9.8-1.8-12c3.5,1.8,10.5,3.4,18.6,3.4c7.5,0,14-1.3,17.7-2.9C89.4,47.5,88.8,51.3,88.1,55.6z M73.3,46
		c-10,0-18.1-1.8-18.1-3.9c0-2.2,8.1-3.9,18.1-3.9s18.1,1.8,18.1,3.9C91.4,44.3,83.3,46,73.3,46z"/>
	<circle cx="66.4" cy="83.2" r="0.9"/>
	<circle cx="68.4" cy="79.1" r="0.9"/>
	<circle cx="66.4" cy="73.1" r="0.9"/>
	<circle cx="70.5" cy="69" r="0.9"/>
	<circle cx="66.4" cy="62.9" r="0.9"/>
</g>
</svg>
