<?xml version="1.0" encoding="utf-8"?>
<!-- Generator: Adobe Illustrator 19.2.1, SVG Export Plug-In . SVG Version: 6.00 Build 0)  -->
<svg version="1.2" baseProfile="tiny" id="Layer_1" xmlns="http://www.w3.org/2000/svg" xmlns:xlink="http://www.w3.org/1999/xlink"
	 x="0px" y="0px" viewBox="0 0 100 100" xml:space="preserve">
<path d="M66.4,41.8c-5.8,1-17-6-15.5,0.3c1.8,7.4-3.5,4-3,7.5c0.6,3.8,1,6.5,1,8.4c-1-0.7-2.4-1.4-4.4-2.1
	C41.8,23,35.7,12,30.6,11.5c-0.1-0.2-0.2-0.5-0.3-0.6c0,0-1.9-0.5-2.7-0.5c-0.7,0-1.8-2.7-2.3-3.2c-0.5-0.4-1.8-0.7-3.5-1.1
	c0.3-1.7-0.2-2.8-3-3.4c-1.4-0.3-3-0.5-4.5-0.4C14,2.2,13.6,2.1,13,2C8.6,1,2.2-1.3,1.5,3.8C0.4,6,0.4,10.4,0.8,12
	c0.6,0,1.4,0.2,2.4,0.4C9.4,29.8,35,90.9,35,90.9c1.8,0.9,3.7,1.5,5.8,2c0.8,2,1.3,3.2,1.3,3.2c7.9,3.9,20.5,3.9,24.6-0.5
	c14,0.9,26.9-8.7,29.7-22.9C99.5,57.3,88.1,38,66.4,41.8z M44.1,57.1c2.4,0.8,3.9,1.5,4.7,2.1c-0.1,1-0.4,1.6-0.9,1.8
	c-0.2,0-0.3,0-0.5-0.1c-1.9-0.2-5.3-3.8-5.3-3.8c-0.8-16-6.6-40.8-10.4-42.8c-0.5-0.2-0.8-0.5-1.1-0.7c0.1-0.5,0-1.1-0.1-1.7
	C34.2,12.3,41.7,24.5,44.1,57.1z M24,16.1c0.8,0,2.9-2.2,3.3-2.2s1.6,0.6,3.2,0.6c0,0,0.1-0.1,0.1-0.2c5.4,2.8,9.9,26.5,11,43.4
	c-1.3-2-2.1-3.2-2.1-3.2c-3.1-8.3-14.9-32.1-18.1-38.6C22.1,16,23.4,16.1,24,16.1z M3.7,7.1c-1-2.7-0.4-3.2,1-4.2
	c0.5-0.2,1-0.3,1.5-0.3c0,0,0,0,0.1,0c0.3,0,0.6,0,0.8,0c0,0,0,0,0,0c0.1,0,0.2,0,0.3,0c1.1,0.1,2.3,0.4,3.5,0.7
	c-0.4,0.2-0.7,0.6-1,0.9c0,0,0,0,0,0c-1.1,1.4-1.9,2.5-1.7,5C8.2,9.3,5.6,9.3,3.7,7.1z M30.6,75.8c0,0-20.4-48.5-25.5-63
	c1.5,0.4,3.1,0.8,4.1,1.1c0.2,0.6,0.4,1.3,0.6,2c3.2,9.6,16,40.7,24.5,61.3C33,76.9,31.8,76.5,30.6,75.8z M37.7,81
	c0,0-21-50.2-25.8-63.7C7.5,4.7,13.3,3.5,17.8,4.4c4.5,0.9,1.5,4.2,2.1,10.7c0,0,13.7,28.1,17.1,37c0,0,7,11.7,16.2,25.2
	C51.1,82.3,44.3,84.4,37.7,81z M92.9,71.2c-2.4,11.8-17,21.2-28.9,19c-6.3-8.9-13.8-19.8-18.8-27.3c5.8,3.8,8.7-3.9,4.9-11.3
	c-1.7-3.2,0.5-2.9,1.9-4c0.5,1.1,1.9,1.7,3.1,0.7c-1.7,0.2-2.2-0.7-2.3-1.8c0.3-0.8,0.3-1.9-0.2-3.7c-1.6-5.5,6,1.5,14.1,0.8
	C90,41.6,95.3,59.3,92.9,71.2z"/>
<path d="M64.2,45.2c0.6,1.9-0.1,6.3-0.1,6.3c2.6-0.9,8.6-2.2,8.3-4.6C72.1,44.3,64.7,45.2,64.2,45.2z M65.2,49.9
	c0,0,0.2-1.1,0.2-2.3c1-0.3,2.5-0.7,2.4-1.5c-0.1-0.4-0.6-0.5-1.3-0.6c1.6-0.1,4.2,0,4.3,1.2C71.1,48.5,66.9,49.3,65.2,49.9z"/>
</svg>
