<?xml version="1.0" encoding="utf-8"?>
<!-- Generator: Adobe Illustrator 19.2.1, SVG Export Plug-In . SVG Version: 6.00 Build 0)  -->
<svg version="1.2" baseProfile="tiny" id="Layer_1" xmlns="http://www.w3.org/2000/svg" xmlns:xlink="http://www.w3.org/1999/xlink"
	 x="0px" y="0px" viewBox="0 0 100 100" xml:space="preserve">
<g>
	<path d="M15.3,65.2L15,65.3l0.2,0.3c0,0,0.2,0,0.2-0.1C15.5,65.5,15.3,65.2,15.3,65.2z"/>
	<path d="M22.1,65c-0.2,0-0.5,0-0.5,0l0.1,0.4l0.4-0.1C22.2,65.2,22.2,65,22.1,65z"/>
	<path d="M23.3,64.6c-0.1-0.1-0.4-0.1-0.4,0l-0.1,0.3l0.4,0C23.3,64.9,23.4,64.7,23.3,64.6z"/>
	<path d="M27.7,63.4c-0.1-0.1-0.5,0-0.5,0l0.1,0.4l0.4-0.1C27.7,63.6,27.8,63.4,27.7,63.4z"/>
	<path d="M29,63.2c-0.1-0.1-0.4-0.1-0.4-0.1l-0.1,0.3l0.4,0C28.9,63.4,29,63.2,29,63.2z"/>
	<path d="M31,66.8l-0.1,0.4c-0.1,0,0.3,0.1,0.5,0c0.1,0,0.1-0.3,0.1-0.3L31,66.8z"/>
	<path d="M31.5,67.1l0.1,0.3c0,0,0.3,0,0.4,0c0.1-0.1-0.1-0.2-0.1-0.2L31.5,67.1z"/>
	<path d="M19.9,71c-0.1,0.1-0.2,0.5-0.1,0.5l0.4,0l0-0.4C20.2,71,20,70.9,19.9,71z"/>
	<path d="M19.9,70.4c0,0-0.1-0.2-0.2-0.1c-0.1,0.1-0.2,0.4-0.2,0.3l0.3,0.2L19.9,70.4z"/>
	<path d="M55.8,63l-0.3-0.5l-1.2-0.8l-1,0.2c-0.4-0.1-0.7-0.2-1.1-0.3l-0.7-0.4l-0.3-0.7l-0.6,0.2l-1.4-0.6l-1.8,0.6
		c-1.1-0.1-2.2-0.2-3.4-0.2l-0.2-0.4l-1.4,0.4c-0.5,0-1,0-1.5,0l-1.7-0.3l-2.8,0.7c-0.1,0-0.3,0-0.4,0.1l-3.3,0.2L32.5,62
		c-0.5,0.2-1,0.4-1.4,0.6L30,62.8l-0.2,0.8c-0.1,0.2-0.1,0.3-0.1,0.5l-0.1,1l0.9,0.6l0.2-0.2c0.2,0.2,0.5,0.3,0.9,0.5l0.2,0.5
		l1.1,0.5h0.9l1.3,0.8l1.4-0.5c0.6,0.1,1.2,0.2,1.8,0.2l0.5,0.5l2.3,0.4l1.1-0.6c0.4,0,0.7,0,1.1,0c0.2,0,0.4,0,0.5,0l0.5,0.2
		l0.6,0.9l1-0.5l1-0.4l0.3-0.4c0.2,0,0.4,0,0.6-0.1l0.1,0.2l2.9-0.2l0.1-0.4c1-0.2,1.8-0.4,2.6-0.6l1.4-0.1l1-1l0,0
		c0.4-0.3,0.6-0.5,0.7-0.8l0.5-0.6l-0.6-0.4C56.3,63.4,56.1,63.2,55.8,63z"/>
	<path d="M29.3,69.9c-1.5,0-6.1,0-6.1,0c-0.3-0.5-2.7-1.6-2.7-0.2c0,1.1,1.4,1.6,2.6,0.9c1.2,0,6.1-0.1,6.1-0.1
		C29.6,70,29.3,69.9,29.3,69.9z M21,69.4c-0.1,0.3,0,0.8,0.4,1.3C20.6,70.4,20.8,69.5,21,69.4z"/>
	<path d="M94,64.7V54.1c0-2.6-1.5-4.8-3.6-5.9v-17c0-3.7-3-6.7-6.7-6.7H61.1c-0.4,0-0.9,0-1.3,0.1v-3.6h-0.1V2.2H31V16h-4.2v-4.9
		H14.3V16H8.7v6h5.5v4.9h5.4v5h5.5v4.9h12.5v-4.9h4.1V32h12.5v-4.9h1.6c-0.9,1.1-1.4,2.6-1.4,4.1v22.2c0,0.1-26,0.5-26,0.5
		c-0.8-1.2-1.6-1.8-1.8-2c-0.4-0.3-1.3-1.6-2.3-3c-1-1.4-6-4.1-6-5.5s-1.2-5.1-2.4-5.2s-5.4,4.7-5.4,4.7S6.3,48.5,6,48.5
		c-0.3,0-1.6,5.5-2.4,6.5C2.8,56,0.7,58,0,57.8c0.5,0.8,3.1,2.8,3.1,2.8l3.5,2.9c0,0,2.8,0.8,4,0.9c0.8,0.1,2.4,0.3,3.7,0.3l0.1,0.1
		c0,0,0.1,0,0.1-0.1c0.7,0,1.2-0.1,1.4-0.2c0.6-0.4,5.4-0.9,6-0.9c0.5,0,4.3-2.8,4.7-2.9c0.3-0.1,3.6-3.3,3.6-3.3
		c-0.3-1.2-0.8-2.2-1.3-2.9l25.8,0.1c0.5,1.4,1.8,1.7,1.8,0.5v-0.5l0.6,0l0.9,6.7v12.5c0,2.5,2.1,3.3,2.1,1.8V63.6h31.8v11.1
		c-0.1-0.1-0.2-0.3-0.2-0.6V64H63.4c1,3.6,4.3,15.5,5.2,18.8c1.3,5,11.3,4.4,28.2,3.9c0,0,0,0,0,0c2.1,0,2.8-1.8,2.8-3.4
		C99.1,80.8,95,67.9,94,64.7z M25.2,59.8c-0.3,0.1-3.7,2.6-4.1,2.6c-0.5,0-4.8,0.4-5.3,0.8c-0.5,0.4-3.6,0.1-4.7-0.1
		c-1.1-0.2-3.5-0.8-3.5-0.8l-3.1-2.6c0,0-2.3-0.7-2.8-1.4c0.6,0.2,2.5-2.7,3.1-3.6c0.7-0.8,1.9-5.8,2.2-5.8c0.2,0,3.8-5.1,3.8-5.1
		s3.8-4.2,4.8-4.1c1.1,0.1,2.2,3.4,2.2,4.6c0,1.2,4.5,3.7,5.4,4.9c0.9,1.2,1.7,2.4,2.1,2.7c0.4,0.3,2.2,1.8,3.1,5
		C28.4,56.9,25.5,59.7,25.2,59.8z M90.8,55.3c-0.1,0-0.1,0-0.1,0.1c0,1-1.5,1.1-2.4,1.1c-0.1,0-0.3,0-0.6,0v-6.8
		c0.8,0.3,1.5,0.8,2.1,1.4L90.8,55.3z M84.1,26.8c3.3,0.1,4.2,2.9,4.2,5.7v8.6h-4.2V26.8z M80.3,26.3h1.3c0.5,0,1,0.1,1.5,0.2v14.6
		h-2.8V26.3z M76.5,26.3h2.8v14.8h-2.8V26.3z M72.7,26.3h2.8v14.8h-2.8V26.3z M68.9,26.3h2.8v14.8h-2.8V26.3z M65.1,26.3H68v14.8
		h-2.8V26.3z M61.4,26.6c0.6-0.2,1.2-0.3,1.8-0.3h1.1v14.8h-2.8V26.6z M54.5,3.1h3.8v6.8c-0.1,0-0.2-0.1-0.3-0.1
		c-1-0.1-2.3-0.1-3.5,0V3.1z M54.5,12.8c0.4-0.1,0.7-0.1,1-0.2c-0.3,0.1-0.7,0.2-1,0.3V12.8z M54.5,13.5c0.9-0.2,1.7-0.4,2.2-0.4
		c0.7,0,1.2-0.2,1.6-0.5v8.1h-3.8V13.5z M49.9,3.1h3.8v6.7c-1.3,0.1-2.5,0.1-3.1,0.1c-0.2,0-0.5,0-0.7,0.1V3.1z M49.9,14.1
		c1.2-0.4,2.6-0.8,3.8-1.1v0.2c-1.2,0.4-2.6,0.8-3.8,1.2V14.1z M49.9,15c1.3-0.4,2.6-0.9,3.8-1.2v7h-3.8V15z M45.3,3.1h3.8v7.1
		c-1.1,0.4-2.4,1-3.8,1.5V3.1z M45.3,12.4c0.6-0.1,1-0.3,1.4-0.4c-0.3,0.2-0.8,0.5-1.4,0.6V12.4z M49.2,14.3v0.3
		c-1.6,0.5-2.9,0.9-3.2,0.9C46.3,15.4,47.6,14.9,49.2,14.3z M45.3,16.2c0.2,0,0.5,0,0.7-0.1c0.8-0.1,1.9-0.4,3.2-0.9v5.5h-3.8V16.2z
		 M37.7,25.9v-3.7h9.5V26h-4v0H37.7z M39.2,15.2c-0.5,0-1.1-1.1-0.2-1.5c0.2-0.1,0.6-0.2,1.1-0.3v0.4C39.1,14,38.4,14.2,39.2,15.2z
		 M40.8,3.1h3.8c0,0.1,0,0.2,0,0.3c0,1.9-1.5,3.5-3.5,3.5c-0.1,0-0.2,0-0.3,0V3.1z M40.8,7.7c0.1,0,0.2,0,0.3,0
		c1.5,0,2.9-0.9,3.5-2.2V12c-0.5,0.1-0.9,0.2-1.4,0.3c-0.8,0.1-1.6,0.2-2.4,0.3V7.7z M40.8,13.3c1.1-0.2,2.6-0.5,3.8-0.7v0.3
		C44.2,13,43.8,13,43.8,13c-0.2,1.4-2.4,1.3-2.8,0.8c-0.1,0-0.2,0-0.2,0V13.3z M40.8,16.2c1.3,0.1,2.7,0.1,3.8,0.1v4.6h-3.8V16.2z
		 M37.7,3.1H40v3.6c-1.4-0.5-2.4-1.7-2.4-3.3C37.7,3.3,37.7,3.3,37.7,3.1z M36.2,3.1h1.1c0,0.2-0.1,0.5-0.1,0.7
		c0,1.8,1.2,3.2,2.8,3.7v5.1c-1.8,0.4-3.1,0.9-3,2c0,0.7,1.4,1.2,3,1.4v4.7h-3.8V3.1z M32.3,3.1h3.1v17.6h-3.1V3.1z M36.2,22.1v3.7
		h-9.5v-3.7H36.2z M30.8,17.1v3.7h-9.5v-3.7H30.8z M15.8,12.2h9.5V16h-9.5V12.2z M10.2,20.9v-3.7h9.5v3.7H10.2z M15.7,25.8V22h9.5
		v3.7H15.7z M21.1,30.8V27h9.5v3.7H21.1z M36.1,35.7h-9.5V32h9.5V35.7z M41.7,30.8h-9.5V27h4v0h5.5V30.8z M52.7,30.9h-9.5v-3.7h9.5
		V30.9z M48.8,26v-3.7h9.5v2.9c-0.5,0.2-0.9,0.5-1.3,0.8H48.8z M60.4,26.9v14.2h-4v-8.6C56.5,29.7,58.1,27.9,60.4,26.9z M56.5,53.6
		v-3.4l0.5,3.4L56.5,53.6z M64,61.5h-3.4c-0.2,0-0.4,0-0.5-0.1v-4.5c0.1,0,0.3,0,0.5,0c0,0-0.1,1,0,1.7c0-0.4-0.1-1.9,0.9-1.9
		c0.2,0,1.2,0,2.6,0V61.5z M64,56.5c-1.4,0-2.3,0-2.6,0c-0.7,0-1.1,0-1.4-0.1v-0.5c0-2.7,1.6-5,4-6.1V56.5z M67.8,61.5H65v-4.8
		c0.8,0,1.8,0,2.8,0V61.5z M67.8,56.5c-1,0-2,0-2.8,0v-7c0.6-0.2,1.2-0.3,1.8-0.3h1.1V56.5z M71.6,61.5h-2.8v-4.8c0.9,0,1.9,0,2.8,0
		V61.5z M71.6,56.5c-1,0-1.9,0-2.8,0v-7.3h2.8V56.5z M75.4,61.5h-2.8v-4.8c0.9,0,1.9,0,2.8,0V61.5z M75.4,56.5c-1,0-1.9,0-2.8,0
		v-7.3h2.8V56.5z M79.2,61.5h-2.8v-4.8c1,0,1.9,0,2.8,0V61.5z M79.2,56.5c-0.9,0-1.9,0-2.8,0v-7.3h2.8V56.5z M83,61.5h-2.8v-4.8
		c1,0,2,0,2.8,0V61.5z M83,56.5c-0.9,0-1.8,0-2.8,0v-7.3H83V56.5z M86.8,61.5h-2.8v-4.8c1.1,0,2.1,0,2.8,0V61.5z M86.8,56.5
		c-0.7,0-1.7,0-2.8,0v-7.3h1.3c0.5,0,1,0.1,1.5,0.2V56.5z M64.7,47.4c-2.6,0-4.8,1.5-5.9,3.6c-0.4-2.4-0.9-5.3-1.5-7.4
		c0.3,1.1,0.8,4.6,1.3,7.8c-0.4,0.8-0.6,1.7-0.6,2.7v0.2l-1.4-7.4c-0.2-0.9-0.1-4.4-0.1-4.4c0.2-0.3,0.6-0.5,1-0.5h29.1
		c0.7,0,1.3,0.3,1.3,1l0.3,0.8l0.9,3.8c-0.6-0.2-1.2-0.2-1.8-0.2H64.7z M91.3,58.7v1.6c0,0.6-0.4,1.1-1,1.2c0,0-0.1,0-0.1,0l0,0
		c-0.1,0-0.1,0-0.2,0h-2.3v-4.8c0.3,0,0.5,0,0.6,0c1.2,0,2.1-0.1,2.6-0.9c0.1,0.2,0.5,1.8,0.7,2.8L91.3,58.7z M91,52.5
		c0.6,1,0.9,2.1,0.9,3.4v0.5L91,52.5z M73.8,84.2c-2.3,0-3.2-4.8-3.2-4.8c1,0,2.9,0,4,0l0.7,4.8C75,84.2,74,84.2,73.8,84.2z
		 M76.5,84.2l-0.7-4.8c0.7,0,1.4,0,2.1,0l0.7,4.8C77.8,84.2,77.1,84.2,76.5,84.2z M79.7,84.2l-0.6-4.8c0.7,0,1.4,0,2.1,0l0.6,4.7
		C81.1,84.2,80.4,84.2,79.7,84.2z M83,84.2l-0.6-4.7c0.7,0,1.4,0,2.1,0l0.6,4.7C84.4,84.2,83.7,84.2,83,84.2z M85.6,79.6
		c0.3,0,1.4,0,2.5,0l0.5,4.6c-1.1,0-2.1,0-2.4,0L85.6,79.6z M89.7,84.2l-0.5-4.6c1.1,0,2.1,0,2.3,0l0.6,4.6
		C91.8,84.2,90.8,84.2,89.7,84.2z M92.7,79.7c0.2,0,0.4,0,0.6,0l0,0l2.5,0.1l0.9,2.8c0.2,0.8,0,1.5-1.2,1.6c-0.9,0-1.8,0-2.1,0
		L92.7,79.7z"/>
</g>
</svg>
